<svg width="1440" height="115" viewBox="0 0 1440 115" fill="none" xmlns="http://www.w3.org/2000/svg">
<path d="M24.2707 32.4082L1.26047 0.37368H-12.291V0.737476L6.27282 27.4767L9.94112 32.772L7.59664 36.1573L-11.6443 63.8767V64.4426H1.62427L24.2707 32.4082Z" fill="#F8F8F9"/>
<path d="M51.7273 32.4082L28.717 0.37368H15.1655V0.737476L33.7294 27.4767L37.3977 32.772L35.0532 36.1573L15.8123 63.8767V64.4426H29.0808L51.7273 32.4082Z" fill="#F8F8F9"/>
<path d="M79.1833 32.4082L56.1731 0.37368H42.6216V0.737476L61.1854 27.4767L64.8537 32.772L62.5092 36.1573L43.2683 63.8767V64.4426H56.5369L79.1833 32.4082Z" fill="#F8F8F9"/>
<path d="M106.64 32.4082L83.6296 0.37368H70.0781V0.737476L88.642 27.4767L92.3103 32.772L89.9658 36.1573L70.7249 63.8767V64.4426H83.9934L106.64 32.4082Z" fill="#F8F8F9"/>
<path d="M134.096 32.4082L111.086 0.37368H97.5342V0.737476L116.098 27.4767L119.766 32.772L117.422 36.1573L98.1809 63.8767V64.4426H111.449L134.096 32.4082Z" fill="#F8F8F9"/>
<path d="M161.552 32.4082L138.542 0.37368H124.99V0.737476L143.554 27.4767L147.222 32.772L144.878 36.1573L125.637 63.8767V64.4426H138.906L161.552 32.4082Z" fill="#F8F8F9"/>
<path d="M189.009 32.4082L165.998 0.37368H152.447V0.737476L171.011 27.4767L174.679 32.772L172.334 36.1573L153.094 63.8767V64.4426H166.362L189.009 32.4082Z" fill="#F8F8F9"/>
<path d="M216.465 32.4082L193.455 0.37368H179.903V0.737476L198.467 27.4767L202.135 32.772L199.791 36.1573L180.55 63.8767V64.4426H193.819L216.465 32.4082Z" fill="#F8F8F9"/>
<path d="M243.921 32.4082L220.911 0.37368H207.359V0.737476L225.923 27.4767L229.592 32.772L227.247 36.1573L208.006 63.8767V64.4426H221.275L243.921 32.4082Z" fill="#F8F8F9"/>
<path d="M271.378 32.4082L248.367 0.37368H234.816V0.737476L253.38 27.4767L257.048 32.772L254.704 36.1573L235.463 63.8767V64.4426H248.731L271.378 32.4082Z" fill="#F8F8F9"/>
<path d="M298.834 32.4082L275.823 0.37368H262.272V0.737476L280.836 27.4767L284.504 32.772L282.16 36.1573L262.919 63.8767V64.4426H276.187L298.834 32.4082Z" fill="#F8F8F9"/>
<path d="M326.29 32.4082L303.28 0.37368H289.729V0.737476L308.292 27.4767L311.961 32.772L309.616 36.1573L290.375 63.8767V64.4426H303.644L326.29 32.4082Z" fill="#F8F8F9"/>
<path d="M353.746 32.4082L330.736 0.37368H317.185V0.737476L335.748 27.4767L339.417 32.772L337.072 36.1573L317.831 63.8767V64.4426H331.1L353.746 32.4082Z" fill="#F8F8F9"/>
<path d="M381.203 32.4082L358.193 0.37368H344.642V0.737476L363.205 27.4767L366.874 32.772L364.529 36.1573L345.288 63.8767V64.4426H358.557L381.203 32.4082Z" fill="#F8F8F9"/>
<path d="M408.659 32.4082L385.649 0.37368H372.098V0.737476L390.661 27.4767L394.33 32.772L391.985 36.1573L372.744 63.8767V64.4426H386.013L408.659 32.4082Z" fill="#F8F8F9"/>
<path d="M436.116 32.4082L413.106 0.37368H399.554V0.737476L418.118 27.4767L421.786 32.772L419.442 36.1573L400.201 63.8767V64.4426H413.469L436.116 32.4082Z" fill="#F8F8F9"/>
<path d="M463.572 32.4082L440.562 0.37368H427.01V0.737476L445.574 27.4767L449.242 32.772L446.898 36.1573L427.657 63.8767V64.4426H440.926L463.572 32.4082Z" fill="#F8F8F9"/>
<path d="M491.029 32.4082L468.018 0.37368H454.467V0.737476L473.031 27.4767L476.699 32.772L474.354 36.1573L455.114 63.8767V64.4426H468.382L491.029 32.4082Z" fill="#F8F8F9"/>
<path d="M518.484 32.4082L495.474 0.37368H481.922V0.737476L500.486 27.4767L504.155 32.772L501.81 36.1573L482.569 63.8767V64.4426H495.838L518.484 32.4082Z" fill="#F8F8F9"/>
<path d="M545.941 32.4082L522.931 0.37368H509.379V0.737476L527.943 27.4767L531.612 32.772L529.267 36.1573L510.026 63.8767V64.4426H523.295L545.941 32.4082Z" fill="#FC7010"/>
<path d="M573.398 32.4082L550.387 0.37368H536.836V0.737476L555.4 27.4767L559.068 32.772L556.724 36.1573L537.483 63.8767V64.4426H550.751L573.398 32.4082Z" fill="#FC7010"/>
<path d="M600.854 32.4082L577.843 0.37368H564.292V0.737476L582.856 27.4767L586.524 32.772L584.18 36.1573L564.939 63.8767V64.4426H578.207L600.854 32.4082Z" fill="#FC7010"/>
<path d="M628.31 32.4082L605.3 0.37368H591.748V0.737476L610.312 27.4767L613.98 32.772L611.636 36.1573L592.395 63.8767V64.4426H605.663L628.31 32.4082Z" fill="#FC7010"/>
<path d="M655.766 32.4082L632.756 0.37368H619.205V0.737476L637.768 27.4767L641.437 32.772L639.092 36.1573L619.851 63.8767V64.4426H633.12L655.766 32.4082Z" fill="#FC7010"/>
<path d="M683.222 32.4082L660.212 0.37368H646.66V0.737476L665.224 27.4767L668.892 32.772L666.548 36.1573L647.307 63.8767V64.4426H660.575L683.222 32.4082Z" fill="#FC7010"/>
<path d="M710.679 32.4082L687.669 0.37368H674.117V0.737476L692.681 27.4767L696.349 32.772L694.005 36.1573L674.764 63.8767V64.4426H688.032L710.679 32.4082Z" fill="#FC7010"/>
<path d="M738.135 32.4082L715.125 0.37368H701.574V0.737476L720.138 27.4767L723.806 32.772L721.461 36.1573L702.22 63.8767V64.4426H715.489L738.135 32.4082Z" fill="#FC7010"/>
<path d="M765.592 32.4082L742.581 0.37368H729.03V0.737476L747.594 27.4767L751.262 32.772L748.917 36.1573L729.677 63.8767V64.4426H742.945L765.592 32.4082Z" fill="#FC7010"/>
<path d="M793.048 32.4082L770.038 0.37368H756.486V0.737476L775.05 27.4767L778.718 32.772L776.374 36.1573L757.133 63.8767V64.4426H770.402L793.048 32.4082Z" fill="#FC7010"/>
<path d="M820.505 32.4082L797.494 0.37368H783.943V0.737476L802.507 27.4767L806.175 32.772L803.831 36.1573L784.59 63.8767V64.4426H797.858L820.505 32.4082Z" fill="#FC7010"/>
<path d="M847.961 32.4082L824.95 0.37368H811.399V0.737476L829.963 27.4767L833.631 32.772L831.287 36.1573L812.046 63.8767V64.4426H825.314L847.961 32.4082Z" fill="#FC7010"/>
<path d="M875.417 32.4082L852.406 0.37368H838.855V0.737476L857.419 27.4767L861.087 32.772L858.743 36.1573L839.502 63.8767V64.4426H852.77L875.417 32.4082Z" fill="#FC7010"/>
<path d="M902.873 32.4082L879.863 0.37368H866.312V0.737476L884.875 27.4767L888.544 32.772L886.199 36.1573L866.958 63.8767V64.4426H880.227L902.873 32.4082Z" fill="#FC7010"/>
<path d="M930.33 32.4082L907.32 0.37368H893.769V0.737476L912.332 27.4767L916.001 32.772L913.656 36.1573L894.415 63.8767V64.4426H907.684L930.33 32.4082Z" fill="#FC7010"/>
<path d="M957.785 32.4082L934.775 0.37368H921.224V0.737476L939.787 27.4767L943.456 32.772L941.111 36.1573L921.87 63.8767V64.4426H935.139L957.785 32.4082Z" fill="#F8F8F9"/>
<path d="M985.241 32.4082L962.231 0.37368H948.68V0.737476L967.244 27.4767L970.912 32.772L968.567 36.1573L949.326 63.8767V64.4426H962.595L985.241 32.4082Z" fill="#F8F8F9"/>
<path d="M1012.7 32.4082L989.689 0.37368H976.138V0.737476L994.702 27.4767L998.37 32.772L996.025 36.1573L976.784 63.8767V64.4426H990.053L1012.7 32.4082Z" fill="#F8F8F9"/>
<path d="M1040.16 32.4077L1017.15 0.373192H1003.59V0.736988L1022.16 27.4762L1025.83 32.7715L1023.48 36.1568L1004.24 63.8762V64.4421H1017.51L1040.16 32.4077Z" fill="#F8F8F9"/>
<path d="M1067.61 32.4082L1044.6 0.37368H1031.05V0.737476L1049.61 27.4767L1053.28 32.772L1050.94 36.1573L1031.7 63.8767V64.4426H1044.97L1067.61 32.4082Z" fill="#F8F8F9"/>
<path d="M1095.07 32.4082L1072.06 0.37368H1058.51V0.737476L1077.07 27.4767L1080.74 32.772L1078.39 36.1573L1059.15 63.8767V64.4426H1072.42L1095.07 32.4082Z" fill="#F8F8F9"/>
<path d="M1122.52 32.4082L1099.51 0.37368H1085.96V0.737476L1104.53 27.4767L1108.19 32.772L1105.85 36.1573L1086.61 63.8767V64.4426H1099.88L1122.52 32.4082Z" fill="#F8F8F9"/>
<path d="M1149.98 32.4082L1126.97 0.37368H1113.42V0.737476L1131.98 27.4767L1135.65 32.772L1133.31 36.1573L1114.07 63.8767V64.4426H1127.33L1149.98 32.4082Z" fill="#F8F8F9"/>
<path d="M1177.44 32.4082L1154.43 0.37368H1140.88V0.737476L1159.44 27.4767L1163.11 32.772L1160.76 36.1573L1141.52 63.8767V64.4426H1154.79L1177.44 32.4082Z" fill="#F8F8F9"/>
<path d="M1204.89 32.4082L1181.88 0.37368H1168.33V0.737476L1186.89 27.4767L1190.56 32.772L1188.22 36.1573L1168.98 63.8767V64.4426H1182.25L1204.89 32.4082Z" fill="#F8F8F9"/>
<path d="M1232.35 32.4082L1209.34 0.37368H1195.79V0.737476L1214.35 27.4767L1218.02 32.772L1215.68 36.1573L1196.43 63.8767V64.4426H1209.7L1232.35 32.4082Z" fill="#F8F8F9"/>
<path d="M1259.8 32.4082L1236.79 0.37368H1223.24V0.737476L1241.81 27.4767L1245.48 32.772L1243.13 36.1573L1223.89 63.8767V64.4426H1237.16L1259.8 32.4082Z" fill="#F8F8F9"/>
<path d="M1287.26 32.4082L1264.25 0.37368H1250.7V0.737476L1269.26 27.4767L1272.93 32.772L1270.59 36.1573L1251.35 63.8767V64.4426H1264.62L1287.26 32.4082Z" fill="#F8F8F9"/>
<path d="M1314.72 32.4082L1291.71 0.37368H1278.16V0.737476L1296.72 27.4767L1300.39 32.772L1298.04 36.1573L1278.8 63.8767V64.4426H1292.07L1314.72 32.4082Z" fill="#F8F8F9"/>
<path d="M1342.17 32.4082L1319.16 0.37368H1305.61V0.737476L1324.18 27.4767L1327.84 32.772L1325.5 36.1573L1306.26 63.8767V64.4426H1319.53L1342.17 32.4082Z" fill="#F8F8F9"/>
<path d="M1369.63 32.4082L1346.62 0.37368H1333.07V0.737476L1351.63 27.4767L1355.3 32.772L1352.96 36.1573L1333.72 63.8767V64.4426H1346.99L1369.63 32.4082Z" fill="#F8F8F9"/>
<path d="M1397.09 32.4082L1374.08 0.37368H1360.52V0.737476L1379.09 27.4767L1382.76 32.772L1380.41 36.1573L1361.17 63.8767V64.4426H1374.44L1397.09 32.4082Z" fill="#F8F8F9"/>
<path d="M1424.54 32.4082L1401.53 0.37368H1387.98V0.737476L1406.55 27.4767L1410.21 32.772L1407.87 36.1573L1388.63 63.8767V64.4426H1401.9L1424.54 32.4082Z" fill="#F8F8F9"/>
<path d="M1452 32.4082L1428.99 0.37368H1415.44V0.737476L1434 27.4767L1437.67 32.772L1435.33 36.1573L1416.09 63.8767V64.4426H1429.35L1452 32.4082Z" fill="#F8F8F9"/>
<path d="M388.79 104.07V111H387.88V105.47L385.67 111H384.86L382.64 105.49V111H381.73V104.07H382.82L385.28 109.89L387.7 104.07H388.79ZM390.086 103.9C390.086 103.733 390.142 103.6 390.256 103.5C390.369 103.393 390.519 103.34 390.706 103.34C390.892 103.34 391.042 103.393 391.156 103.5C391.269 103.6 391.326 103.733 391.326 103.9C391.326 104.067 391.269 104.203 391.156 104.31C391.042 104.41 390.892 104.46 390.706 104.46C390.519 104.46 390.369 104.41 390.256 104.31C390.142 104.203 390.086 104.067 390.086 103.9ZM391.156 105.51V111H390.246V105.51H391.156ZM395.509 105.42C396.149 105.42 396.665 105.627 397.059 106.04C397.452 106.447 397.649 107.037 397.649 107.81V111H396.739V107.89C396.739 107.343 396.599 106.923 396.319 106.63C396.039 106.337 395.659 106.19 395.179 106.19C394.679 106.19 394.279 106.353 393.979 106.68C393.679 107 393.529 107.47 393.529 108.09V111H392.619V105.51H393.529V106.81C393.669 106.363 393.915 106.02 394.269 105.78C394.629 105.54 395.042 105.42 395.509 105.42ZM404.094 107.95C404.094 108.143 404.081 108.31 404.054 108.45H399.664C399.684 109.077 399.861 109.547 400.194 109.86C400.534 110.173 400.948 110.33 401.434 110.33C401.874 110.33 402.241 110.22 402.534 110C402.834 109.773 403.018 109.473 403.084 109.1H404.054C403.988 109.48 403.838 109.82 403.604 110.12C403.378 110.42 403.081 110.653 402.714 110.82C402.348 110.987 401.934 111.07 401.474 111.07C400.948 111.07 400.481 110.957 400.074 110.73C399.668 110.503 399.348 110.18 399.114 109.76C398.888 109.333 398.774 108.833 398.774 108.26C398.774 107.687 398.888 107.187 399.114 106.76C399.348 106.333 399.668 106.007 400.074 105.78C400.481 105.553 400.948 105.44 401.474 105.44C402.008 105.44 402.471 105.553 402.864 105.78C403.264 106.007 403.568 106.31 403.774 106.69C403.988 107.07 404.094 107.49 404.094 107.95ZM403.174 108.01C403.194 107.603 403.128 107.263 402.974 106.99C402.821 106.717 402.611 106.513 402.344 106.38C402.078 106.247 401.788 106.18 401.474 106.18C400.974 106.18 400.554 106.337 400.214 106.65C399.874 106.957 399.691 107.41 399.664 108.01H403.174ZM406.195 106.62C406.375 106.24 406.638 105.947 406.985 105.74C407.331 105.527 407.745 105.42 408.225 105.42V106.41H407.945C407.431 106.41 407.011 106.543 406.685 106.81C406.358 107.07 406.195 107.503 406.195 108.11V111H405.285V105.51H406.195V106.62ZM411.433 107.43C411.433 108.563 411.62 109.447 411.993 110.08C412.367 110.713 413.013 111.03 413.933 111.03C414.853 111.03 415.5 110.713 415.873 110.08C416.253 109.447 416.443 108.563 416.443 107.43C416.443 106.31 416.253 105.433 415.873 104.8C415.5 104.167 414.853 103.85 413.933 103.85C413.013 103.85 412.367 104.167 411.993 104.8C411.62 105.427 411.433 106.303 411.433 107.43ZM415.543 107.43C415.543 108.01 415.5 108.497 415.413 108.89C415.333 109.277 415.177 109.587 414.943 109.82C414.71 110.053 414.373 110.17 413.933 110.17C413.5 110.17 413.167 110.053 412.933 109.82C412.7 109.587 412.54 109.277 412.453 108.89C412.373 108.497 412.333 108.01 412.333 107.43C412.333 106.857 412.373 106.377 412.453 105.99C412.54 105.603 412.7 105.297 412.933 105.07C413.167 104.837 413.5 104.72 413.933 104.72C414.373 104.72 414.71 104.837 414.943 105.07C415.177 105.297 415.333 105.603 415.413 105.99C415.5 106.377 415.543 106.857 415.543 107.43ZM417.136 104.8V103.95H419.156V111H418.196V104.8H417.136Z" fill="#A1A2A8"/>
<circle cx="371" cy="107" r="3" fill="#A1A2A8"/>
<path d="M1036.79 104.07V111H1035.88V105.47L1033.67 111H1032.86L1030.64 105.49V111H1029.73V104.07H1030.82L1033.28 109.89L1035.7 104.07H1036.79ZM1038.09 103.9C1038.09 103.733 1038.14 103.6 1038.26 103.5C1038.37 103.393 1038.52 103.34 1038.71 103.34C1038.89 103.34 1039.04 103.393 1039.16 103.5C1039.27 103.6 1039.33 103.733 1039.33 103.9C1039.33 104.067 1039.27 104.203 1039.16 104.31C1039.04 104.41 1038.89 104.46 1038.71 104.46C1038.52 104.46 1038.37 104.41 1038.26 104.31C1038.14 104.203 1038.09 104.067 1038.09 103.9ZM1039.16 105.51V111H1038.25V105.51H1039.16ZM1043.51 105.42C1044.15 105.42 1044.67 105.627 1045.06 106.04C1045.45 106.447 1045.65 107.037 1045.65 107.81V111H1044.74V107.89C1044.74 107.343 1044.6 106.923 1044.32 106.63C1044.04 106.337 1043.66 106.19 1043.18 106.19C1042.68 106.19 1042.28 106.353 1041.98 106.68C1041.68 107 1041.53 107.47 1041.53 108.09V111H1040.62V105.51H1041.53V106.81C1041.67 106.363 1041.92 106.02 1042.27 105.78C1042.63 105.54 1043.04 105.42 1043.51 105.42ZM1052.09 107.95C1052.09 108.143 1052.08 108.31 1052.05 108.45H1047.66C1047.68 109.077 1047.86 109.547 1048.19 109.86C1048.53 110.173 1048.95 110.33 1049.43 110.33C1049.87 110.33 1050.24 110.22 1050.53 110C1050.83 109.773 1051.02 109.473 1051.08 109.1H1052.05C1051.99 109.48 1051.84 109.82 1051.6 110.12C1051.38 110.42 1051.08 110.653 1050.71 110.82C1050.35 110.987 1049.93 111.07 1049.47 111.07C1048.95 111.07 1048.48 110.957 1048.07 110.73C1047.67 110.503 1047.35 110.18 1047.11 109.76C1046.89 109.333 1046.77 108.833 1046.77 108.26C1046.77 107.687 1046.89 107.187 1047.11 106.76C1047.35 106.333 1047.67 106.007 1048.07 105.78C1048.48 105.553 1048.95 105.44 1049.47 105.44C1050.01 105.44 1050.47 105.553 1050.86 105.78C1051.26 106.007 1051.57 106.31 1051.77 106.69C1051.99 107.07 1052.09 107.49 1052.09 107.95ZM1051.17 108.01C1051.19 107.603 1051.13 107.263 1050.97 106.99C1050.82 106.717 1050.61 106.513 1050.34 106.38C1050.08 106.247 1049.79 106.18 1049.47 106.18C1048.97 106.18 1048.55 106.337 1048.21 106.65C1047.87 106.957 1047.69 107.41 1047.66 108.01H1051.17ZM1054.19 106.62C1054.37 106.24 1054.64 105.947 1054.98 105.74C1055.33 105.527 1055.74 105.42 1056.22 105.42V106.41H1055.94C1055.43 106.41 1055.01 106.543 1054.68 106.81C1054.36 107.07 1054.19 107.503 1054.19 108.11V111H1053.28V105.51H1054.19V106.62ZM1059.43 107.43C1059.43 108.563 1059.62 109.447 1059.99 110.08C1060.37 110.713 1061.01 111.03 1061.93 111.03C1062.85 111.03 1063.5 110.713 1063.87 110.08C1064.25 109.447 1064.44 108.563 1064.44 107.43C1064.44 106.31 1064.25 105.433 1063.87 104.8C1063.5 104.167 1062.85 103.85 1061.93 103.85C1061.01 103.85 1060.37 104.167 1059.99 104.8C1059.62 105.427 1059.43 106.303 1059.43 107.43ZM1063.54 107.43C1063.54 108.01 1063.5 108.497 1063.41 108.89C1063.33 109.277 1063.18 109.587 1062.94 109.82C1062.71 110.053 1062.37 110.17 1061.93 110.17C1061.5 110.17 1061.17 110.053 1060.93 109.82C1060.7 109.587 1060.54 109.277 1060.45 108.89C1060.37 108.497 1060.33 108.01 1060.33 107.43C1060.33 106.857 1060.37 106.377 1060.45 105.99C1060.54 105.603 1060.7 105.297 1060.93 105.07C1061.17 104.837 1061.5 104.72 1061.93 104.72C1062.37 104.72 1062.71 104.837 1062.94 105.07C1063.18 105.297 1063.33 105.603 1063.41 105.99C1063.5 106.377 1063.54 106.857 1063.54 107.43ZM1068 103.76C1068.45 103.76 1068.84 103.84 1069.17 104C1069.49 104.16 1069.74 104.38 1069.91 104.66C1070.07 104.94 1070.16 105.257 1070.16 105.61C1070.16 106.05 1070.03 106.42 1069.77 106.72C1069.51 107.02 1069.14 107.2 1068.65 107.26V107.32C1069.16 107.453 1069.56 107.66 1069.85 107.94C1070.14 108.22 1070.29 108.607 1070.29 109.1C1070.29 109.68 1070.09 110.153 1069.71 110.52C1069.32 110.887 1068.76 111.07 1068.04 111.07C1067.31 111.07 1066.72 110.883 1066.27 110.51C1065.82 110.13 1065.56 109.577 1065.48 108.85H1066.38C1066.44 109.29 1066.6 109.64 1066.88 109.9C1067.16 110.16 1067.53 110.29 1068.01 110.29C1068.45 110.29 1068.8 110.177 1069.04 109.95C1069.28 109.717 1069.4 109.417 1069.4 109.05C1069.4 108.61 1069.22 108.277 1068.88 108.05C1068.54 107.817 1068.05 107.7 1067.42 107.7H1067.18V106.94H1067.42C1068.64 106.94 1069.26 106.53 1069.26 105.71C1069.26 105.35 1069.14 105.063 1068.92 104.85C1068.69 104.637 1068.38 104.53 1067.98 104.53C1067.58 104.53 1067.24 104.647 1066.97 104.88C1066.69 105.107 1066.53 105.443 1066.49 105.89H1065.6C1065.64 105.223 1065.87 104.703 1066.29 104.33C1066.71 103.95 1067.28 103.76 1068 103.76Z" fill="#A1A2A8"/>
<circle cx="1019" cy="107" r="3" fill="#A1A2A8"/>
<path d="M707.79 104.07V111H706.88V105.47L704.67 111H703.86L701.64 105.49V111H700.73V104.07H701.82L704.28 109.89L706.7 104.07H707.79ZM709.086 103.9C709.086 103.733 709.142 103.6 709.256 103.5C709.369 103.393 709.519 103.34 709.706 103.34C709.892 103.34 710.042 103.393 710.156 103.5C710.269 103.6 710.326 103.733 710.326 103.9C710.326 104.067 710.269 104.203 710.156 104.31C710.042 104.41 709.892 104.46 709.706 104.46C709.519 104.46 709.369 104.41 709.256 104.31C709.142 104.203 709.086 104.067 709.086 103.9ZM710.156 105.51V111H709.246V105.51H710.156ZM714.509 105.42C715.149 105.42 715.665 105.627 716.059 106.04C716.452 106.447 716.649 107.037 716.649 107.81V111H715.739V107.89C715.739 107.343 715.599 106.923 715.319 106.63C715.039 106.337 714.659 106.19 714.179 106.19C713.679 106.19 713.279 106.353 712.979 106.68C712.679 107 712.529 107.47 712.529 108.09V111H711.619V105.51H712.529V106.81C712.669 106.363 712.915 106.02 713.269 105.78C713.629 105.54 714.042 105.42 714.509 105.42ZM723.094 107.95C723.094 108.143 723.081 108.31 723.054 108.45H718.664C718.684 109.077 718.861 109.547 719.194 109.86C719.534 110.173 719.948 110.33 720.434 110.33C720.874 110.33 721.241 110.22 721.534 110C721.834 109.773 722.018 109.473 722.084 109.1H723.054C722.988 109.48 722.838 109.82 722.604 110.12C722.378 110.42 722.081 110.653 721.714 110.82C721.348 110.987 720.934 111.07 720.474 111.07C719.948 111.07 719.481 110.957 719.074 110.73C718.668 110.503 718.348 110.18 718.114 109.76C717.888 109.333 717.774 108.833 717.774 108.26C717.774 107.687 717.888 107.187 718.114 106.76C718.348 106.333 718.668 106.007 719.074 105.78C719.481 105.553 719.948 105.44 720.474 105.44C721.008 105.44 721.471 105.553 721.864 105.78C722.264 106.007 722.568 106.31 722.774 106.69C722.988 107.07 723.094 107.49 723.094 107.95ZM722.174 108.01C722.194 107.603 722.128 107.263 721.974 106.99C721.821 106.717 721.611 106.513 721.344 106.38C721.078 106.247 720.788 106.18 720.474 106.18C719.974 106.18 719.554 106.337 719.214 106.65C718.874 106.957 718.691 107.41 718.664 108.01H722.174ZM725.195 106.62C725.375 106.24 725.638 105.947 725.985 105.74C726.331 105.527 726.745 105.42 727.225 105.42V106.41H726.945C726.431 106.41 726.011 106.543 725.685 106.81C725.358 107.07 725.195 107.503 725.195 108.11V111H724.285V105.51H725.195V106.62ZM730.433 107.43C730.433 108.563 730.62 109.447 730.993 110.08C731.367 110.713 732.013 111.03 732.933 111.03C733.853 111.03 734.5 110.713 734.873 110.08C735.253 109.447 735.443 108.563 735.443 107.43C735.443 106.31 735.253 105.433 734.873 104.8C734.5 104.167 733.853 103.85 732.933 103.85C732.013 103.85 731.367 104.167 730.993 104.8C730.62 105.427 730.433 106.303 730.433 107.43ZM734.543 107.43C734.543 108.01 734.5 108.497 734.413 108.89C734.333 109.277 734.177 109.587 733.943 109.82C733.71 110.053 733.373 110.17 732.933 110.17C732.5 110.17 732.167 110.053 731.933 109.82C731.7 109.587 731.54 109.277 731.453 108.89C731.373 108.497 731.333 108.01 731.333 107.43C731.333 106.857 731.373 106.377 731.453 105.99C731.54 105.603 731.7 105.297 731.933 105.07C732.167 104.837 732.5 104.72 732.933 104.72C733.373 104.72 733.71 104.837 733.943 105.07C734.177 105.297 734.333 105.603 734.413 105.99C734.5 106.377 734.543 106.857 734.543 107.43ZM738.996 103.76C739.449 103.76 739.839 103.84 740.166 104C740.493 104.16 740.739 104.38 740.906 104.66C741.073 104.94 741.156 105.257 741.156 105.61C741.156 106.05 741.026 106.42 740.766 106.72C740.513 107.02 740.139 107.2 739.646 107.26V107.32C740.159 107.453 740.559 107.66 740.846 107.94C741.139 108.22 741.286 108.607 741.286 109.1C741.286 109.68 741.093 110.153 740.706 110.52C740.319 110.887 739.763 111.07 739.036 111.07C738.309 111.07 737.719 110.883 737.266 110.51C736.819 110.13 736.556 109.577 736.476 108.85H737.376C737.436 109.29 737.603 109.64 737.876 109.9C738.156 110.16 738.533 110.29 739.006 110.29C739.453 110.29 739.796 110.177 740.036 109.95C740.276 109.717 740.396 109.417 740.396 109.05C740.396 108.61 740.223 108.277 739.876 108.05C739.536 107.817 739.049 107.7 738.416 107.7H738.176V106.94H738.416C739.643 106.94 740.256 106.53 740.256 105.71C740.256 105.35 740.143 105.063 739.916 104.85C739.689 104.637 739.376 104.53 738.976 104.53C738.576 104.53 738.239 104.647 737.966 104.88C737.693 105.107 737.533 105.443 737.486 105.89H736.596C736.643 105.223 736.873 104.703 737.286 104.33C737.706 103.95 738.276 103.76 738.996 103.76Z" fill="#A1A2A8"/>
<circle cx="689" cy="107" r="3" fill="#FC7010"/>
</svg>
