<svg width="1110" height="352" viewBox="0 0 1110 352" fill="none" xmlns="http://www.w3.org/2000/svg">
<rect y="32" width="1109" height="320" rx="5" fill="white"/>
<path d="M16.57 302.43C16.57 303.563 16.7567 304.447 17.13 305.08C17.5033 305.713 18.15 306.03 19.07 306.03C19.99 306.03 20.6367 305.713 21.01 305.08C21.39 304.447 21.58 303.563 21.58 302.43C21.58 301.31 21.39 300.433 21.01 299.8C20.6367 299.167 19.99 298.85 19.07 298.85C18.15 298.85 17.5033 299.167 17.13 299.8C16.7567 300.427 16.57 301.303 16.57 302.43ZM20.68 302.43C20.68 303.01 20.6367 303.497 20.55 303.89C20.47 304.277 20.3133 304.587 20.08 304.82C19.8467 305.053 19.51 305.17 19.07 305.17C18.6367 305.17 18.3033 305.053 18.07 304.82C17.8367 304.587 17.6767 304.277 17.59 303.89C17.51 303.497 17.47 303.01 17.47 302.43C17.47 301.857 17.51 301.377 17.59 300.99C17.6767 300.603 17.8367 300.297 18.07 300.07C18.3033 299.837 18.6367 299.72 19.07 299.72C19.51 299.72 19.8467 299.837 20.08 300.07C20.3133 300.297 20.47 300.603 20.55 300.99C20.6367 301.377 20.68 301.857 20.68 302.43Z" fill="#A1A2A8"/>
<path d="M11.13 268.8V267.95H13.15V275H12.19V268.8H11.13ZM14.4411 271.43C14.4411 272.563 14.6278 273.447 15.0011 274.08C15.3744 274.713 16.0211 275.03 16.9411 275.03C17.8611 275.03 18.5078 274.713 18.8811 274.08C19.2611 273.447 19.4511 272.563 19.4511 271.43C19.4511 270.31 19.2611 269.433 18.8811 268.8C18.5078 268.167 17.8611 267.85 16.9411 267.85C16.0211 267.85 15.3744 268.167 15.0011 268.8C14.6278 269.427 14.4411 270.303 14.4411 271.43ZM18.5511 271.43C18.5511 272.01 18.5078 272.497 18.4211 272.89C18.3411 273.277 18.1844 273.587 17.9511 273.82C17.7178 274.053 17.3811 274.17 16.9411 274.17C16.5078 274.17 16.1744 274.053 15.9411 273.82C15.7078 273.587 15.5478 273.277 15.4611 272.89C15.3811 272.497 15.3411 272.01 15.3411 271.43C15.3411 270.857 15.3811 270.377 15.4611 269.99C15.5478 269.603 15.7078 269.297 15.9411 269.07C16.1744 268.837 16.5078 268.72 16.9411 268.72C17.3811 268.72 17.7178 268.837 17.9511 269.07C18.1844 269.297 18.3411 269.603 18.4211 269.99C18.5078 270.377 18.5511 270.857 18.5511 271.43ZM30.2744 268.07V275H29.3644V269.47L27.1544 275H26.3444L24.1244 269.49V275H23.2144V268.07H24.3044L26.7644 273.89L29.1844 268.07H30.2744ZM37.14 267.95V275H36.22V271.74H32.64V275H31.73V267.95H32.64V271H36.22V267.95H37.14ZM41.5552 265.58L38.8152 276.71H37.9352L40.6652 265.58H41.5552ZM44.0457 269.44C44.6657 269.44 45.1624 269.603 45.5357 269.93C45.9157 270.25 46.1457 270.683 46.2257 271.23H45.3557C45.3157 270.903 45.179 270.637 44.9457 270.43C44.719 270.217 44.4124 270.11 44.0257 270.11C43.699 270.11 43.4424 270.19 43.2557 270.35C43.0757 270.503 42.9857 270.713 42.9857 270.98C42.9857 271.18 43.0457 271.343 43.1657 271.47C43.2924 271.59 43.4457 271.683 43.6257 271.75C43.8124 271.81 44.0657 271.877 44.3857 271.95C44.7924 272.043 45.119 272.14 45.3657 272.24C45.619 272.333 45.8324 272.487 46.0057 272.7C46.1857 272.913 46.2757 273.2 46.2757 273.56C46.2757 274.007 46.1057 274.37 45.7657 274.65C45.4324 274.93 44.9857 275.07 44.4257 275.07C43.7724 275.07 43.239 274.913 42.8257 274.6C42.4124 274.287 42.169 273.85 42.0957 273.29H42.9757C43.009 273.623 43.1524 273.893 43.4057 274.1C43.6657 274.307 44.0057 274.41 44.4257 274.41C44.739 274.41 44.9824 274.33 45.1557 274.17C45.3357 274.01 45.4257 273.8 45.4257 273.54C45.4257 273.327 45.3624 273.157 45.2357 273.03C45.109 272.903 44.9524 272.807 44.7657 272.74C44.579 272.673 44.3224 272.603 43.9957 272.53C43.589 272.437 43.2624 272.343 43.0157 272.25C42.7757 272.157 42.569 272.01 42.3957 271.81C42.229 271.603 42.1457 271.327 42.1457 270.98C42.1457 270.52 42.3157 270.15 42.6557 269.87C42.9957 269.583 43.459 269.44 44.0457 269.44Z" fill="#A1A2A8"/>
<path d="M822.456 324.144C822.456 325.051 822.605 325.757 822.904 326.264C823.203 326.771 823.72 327.024 824.456 327.024C825.192 327.024 825.709 326.771 826.008 326.264C826.312 325.757 826.464 325.051 826.464 324.144C826.464 323.248 826.312 322.547 826.008 322.04C825.709 321.533 825.192 321.28 824.456 321.28C823.72 321.28 823.203 321.533 822.904 322.04C822.605 322.541 822.456 323.243 822.456 324.144ZM825.744 324.144C825.744 324.608 825.709 324.997 825.64 325.312C825.576 325.621 825.451 325.869 825.264 326.056C825.077 326.243 824.808 326.336 824.456 326.336C824.109 326.336 823.843 326.243 823.656 326.056C823.469 325.869 823.341 325.621 823.272 325.312C823.208 324.997 823.176 324.608 823.176 324.144C823.176 323.685 823.208 323.301 823.272 322.992C823.341 322.683 823.469 322.437 823.656 322.256C823.843 322.069 824.109 321.976 824.456 321.976C824.808 321.976 825.077 322.069 825.264 322.256C825.451 322.437 825.576 322.683 825.64 322.992C825.709 323.301 825.744 323.685 825.744 324.144ZM831.354 322.864C831.311 322.528 831.197 322.269 831.01 322.088C830.829 321.901 830.575 321.808 830.25 321.808C829.797 321.808 829.453 321.984 829.218 322.336C828.989 322.688 828.874 323.245 828.874 324.008L828.882 324.304C828.962 323.984 829.146 323.731 829.434 323.544C829.722 323.352 830.061 323.256 830.45 323.256C831.01 323.256 831.447 323.424 831.762 323.76C832.082 324.096 832.242 324.565 832.242 325.168C832.242 325.52 832.173 325.84 832.034 326.128C831.895 326.411 831.682 326.637 831.394 326.808C831.111 326.973 830.759 327.056 830.338 327.056C829.533 327.056 828.978 326.803 828.674 326.296C828.375 325.789 828.226 325.101 828.226 324.232C828.226 323.229 828.386 322.477 828.706 321.976C829.031 321.469 829.559 321.216 830.29 321.216C830.829 321.216 831.242 321.368 831.53 321.672C831.823 321.976 831.997 322.373 832.05 322.864H831.354ZM828.962 325.048C828.962 325.437 829.074 325.765 829.298 326.032C829.527 326.293 829.869 326.424 830.322 326.424C830.695 326.424 830.994 326.315 831.218 326.096C831.442 325.872 831.554 325.56 831.554 325.16C831.554 324.728 831.442 324.4 831.218 324.176C830.994 323.947 830.685 323.832 830.29 323.832C830.066 323.832 829.853 323.877 829.65 323.968C829.447 324.059 829.282 324.197 829.154 324.384C829.026 324.565 828.962 324.787 828.962 325.048ZM834.603 326.144V327H833.723V326.144H834.603ZM835.754 322.04V321.36H837.37V327H836.602V322.04H835.754ZM840.027 325.416C840.075 325.752 840.192 326.011 840.379 326.192C840.566 326.373 840.822 326.464 841.147 326.464C841.595 326.464 841.934 326.291 842.163 325.944C842.392 325.597 842.507 325.048 842.507 324.296C842.507 324.152 842.504 324.043 842.499 323.968C842.424 324.288 842.243 324.544 841.955 324.736C841.667 324.928 841.328 325.024 840.939 325.024C840.379 325.024 839.939 324.856 839.619 324.52C839.299 324.184 839.139 323.715 839.139 323.112C839.139 322.76 839.208 322.44 839.347 322.152C839.486 321.864 839.696 321.637 839.979 321.472C840.267 321.301 840.622 321.216 841.043 321.216C841.854 321.216 842.408 321.467 842.707 321.968C843.011 322.464 843.163 323.147 843.163 324.016C843.163 325.008 843.008 325.765 842.699 326.288C842.39 326.805 841.872 327.064 841.147 327.064C840.608 327.064 840.184 326.912 839.875 326.608C839.571 326.299 839.392 325.901 839.339 325.416H840.027ZM842.427 323.224C842.427 322.84 842.312 322.515 842.083 322.248C841.859 321.981 841.52 321.848 841.067 321.848C840.694 321.848 840.395 321.96 840.171 322.184C839.947 322.408 839.835 322.72 839.835 323.12C839.835 323.547 839.947 323.875 840.171 324.104C840.395 324.333 840.702 324.448 841.091 324.448C841.315 324.448 841.528 324.403 841.731 324.312C841.939 324.221 842.107 324.083 842.235 323.896C842.363 323.709 842.427 323.485 842.427 323.224ZM845.534 326.144V327H844.654V326.144H845.534ZM846.917 326.44C847.824 325.832 848.549 325.229 849.093 324.632C849.637 324.029 849.909 323.469 849.909 322.952C849.909 322.632 849.827 322.376 849.661 322.184C849.501 321.987 849.24 321.888 848.877 321.888C848.504 321.888 848.221 322.008 848.029 322.248C847.837 322.483 847.731 322.808 847.709 323.224H846.989C847.027 322.595 847.221 322.112 847.573 321.776C847.925 321.435 848.379 321.264 848.933 321.264C849.461 321.264 849.88 321.405 850.189 321.688C850.499 321.971 850.653 322.371 850.653 322.888C850.653 323.315 850.515 323.749 850.237 324.192C849.965 324.629 849.621 325.037 849.205 325.416C848.795 325.789 848.371 326.107 847.933 326.368H850.797V326.968H846.917V326.44ZM852.376 324.144C852.376 325.051 852.526 325.757 852.824 326.264C853.123 326.771 853.64 327.024 854.376 327.024C855.112 327.024 855.63 326.771 855.928 326.264C856.232 325.757 856.384 325.051 856.384 324.144C856.384 323.248 856.232 322.547 855.928 322.04C855.63 321.533 855.112 321.28 854.376 321.28C853.64 321.28 853.123 321.533 852.824 322.04C852.526 322.541 852.376 323.243 852.376 324.144ZM855.664 324.144C855.664 324.608 855.63 324.997 855.56 325.312C855.496 325.621 855.371 325.869 855.184 326.056C854.998 326.243 854.728 326.336 854.376 326.336C854.03 326.336 853.763 326.243 853.576 326.056C853.39 325.869 853.262 325.621 853.192 325.312C853.128 324.997 853.096 324.608 853.096 324.144C853.096 323.685 853.128 323.301 853.192 322.992C853.262 322.683 853.39 322.437 853.576 322.256C853.763 322.069 854.03 321.976 854.376 321.976C854.728 321.976 854.998 322.069 855.184 322.256C855.371 322.437 855.496 322.683 855.56 322.992C855.63 323.301 855.664 323.685 855.664 324.144ZM857.97 326.44C858.877 325.832 859.602 325.229 860.146 324.632C860.69 324.029 860.962 323.469 860.962 322.952C860.962 322.632 860.88 322.376 860.714 322.184C860.554 321.987 860.293 321.888 859.93 321.888C859.557 321.888 859.274 322.008 859.082 322.248C858.89 322.483 858.784 322.808 858.762 323.224H858.042C858.08 322.595 858.274 322.112 858.626 321.776C858.978 321.435 859.432 321.264 859.986 321.264C860.514 321.264 860.933 321.405 861.242 321.688C861.552 321.971 861.706 322.371 861.706 322.888C861.706 323.315 861.568 323.749 861.29 324.192C861.018 324.629 860.674 325.037 860.258 325.416C859.848 325.789 859.424 326.107 858.986 326.368H861.85V326.968H857.97V326.44ZM863.309 326.44C864.216 325.832 864.941 325.229 865.485 324.632C866.029 324.029 866.301 323.469 866.301 322.952C866.301 322.632 866.219 322.376 866.053 322.184C865.893 321.987 865.632 321.888 865.269 321.888C864.896 321.888 864.613 322.008 864.421 322.248C864.229 322.483 864.123 322.808 864.101 323.224H863.381C863.419 322.595 863.613 322.112 863.965 321.776C864.317 321.435 864.771 321.264 865.325 321.264C865.853 321.264 866.272 321.405 866.581 321.688C866.891 321.971 867.045 322.371 867.045 322.888C867.045 323.315 866.907 323.749 866.629 324.192C866.357 324.629 866.013 325.037 865.597 325.416C865.187 325.789 864.763 326.107 864.325 326.368H867.189V326.968H863.309V326.44Z" fill="#87868B"/>
<path d="M677.456 324.144C677.456 325.051 677.605 325.757 677.904 326.264C678.203 326.771 678.72 327.024 679.456 327.024C680.192 327.024 680.709 326.771 681.008 326.264C681.312 325.757 681.464 325.051 681.464 324.144C681.464 323.248 681.312 322.547 681.008 322.04C680.709 321.533 680.192 321.28 679.456 321.28C678.72 321.28 678.203 321.533 677.904 322.04C677.605 322.541 677.456 323.243 677.456 324.144ZM680.744 324.144C680.744 324.608 680.709 324.997 680.64 325.312C680.576 325.621 680.451 325.869 680.264 326.056C680.077 326.243 679.808 326.336 679.456 326.336C679.109 326.336 678.843 326.243 678.656 326.056C678.469 325.869 678.341 325.621 678.272 325.312C678.208 324.997 678.176 324.608 678.176 324.144C678.176 323.685 678.208 323.301 678.272 322.992C678.341 322.683 678.469 322.437 678.656 322.256C678.843 322.069 679.109 321.976 679.456 321.976C679.808 321.976 680.077 322.069 680.264 322.256C680.451 322.437 680.576 322.683 680.64 322.992C680.709 323.301 680.744 323.685 680.744 324.144ZM686.354 322.864C686.311 322.528 686.197 322.269 686.01 322.088C685.829 321.901 685.575 321.808 685.25 321.808C684.797 321.808 684.453 321.984 684.218 322.336C683.989 322.688 683.874 323.245 683.874 324.008L683.882 324.304C683.962 323.984 684.146 323.731 684.434 323.544C684.722 323.352 685.061 323.256 685.45 323.256C686.01 323.256 686.447 323.424 686.762 323.76C687.082 324.096 687.242 324.565 687.242 325.168C687.242 325.52 687.173 325.84 687.034 326.128C686.895 326.411 686.682 326.637 686.394 326.808C686.111 326.973 685.759 327.056 685.338 327.056C684.533 327.056 683.978 326.803 683.674 326.296C683.375 325.789 683.226 325.101 683.226 324.232C683.226 323.229 683.386 322.477 683.706 321.976C684.031 321.469 684.559 321.216 685.29 321.216C685.829 321.216 686.242 321.368 686.53 321.672C686.823 321.976 686.997 322.373 687.05 322.864H686.354ZM683.962 325.048C683.962 325.437 684.074 325.765 684.298 326.032C684.527 326.293 684.869 326.424 685.322 326.424C685.695 326.424 685.994 326.315 686.218 326.096C686.442 325.872 686.554 325.56 686.554 325.16C686.554 324.728 686.442 324.4 686.218 324.176C685.994 323.947 685.685 323.832 685.29 323.832C685.066 323.832 684.853 323.877 684.65 323.968C684.447 324.059 684.282 324.197 684.154 324.384C684.026 324.565 683.962 324.787 683.962 325.048ZM689.603 326.144V327H688.723V326.144H689.603ZM690.754 322.04V321.36H692.37V327H691.602V322.04H690.754ZM695.027 325.416C695.075 325.752 695.192 326.011 695.379 326.192C695.566 326.373 695.822 326.464 696.147 326.464C696.595 326.464 696.934 326.291 697.163 325.944C697.392 325.597 697.507 325.048 697.507 324.296C697.507 324.152 697.504 324.043 697.499 323.968C697.424 324.288 697.243 324.544 696.955 324.736C696.667 324.928 696.328 325.024 695.939 325.024C695.379 325.024 694.939 324.856 694.619 324.52C694.299 324.184 694.139 323.715 694.139 323.112C694.139 322.76 694.208 322.44 694.347 322.152C694.486 321.864 694.696 321.637 694.979 321.472C695.267 321.301 695.622 321.216 696.043 321.216C696.854 321.216 697.408 321.467 697.707 321.968C698.011 322.464 698.163 323.147 698.163 324.016C698.163 325.008 698.008 325.765 697.699 326.288C697.39 326.805 696.872 327.064 696.147 327.064C695.608 327.064 695.184 326.912 694.875 326.608C694.571 326.299 694.392 325.901 694.339 325.416H695.027ZM697.427 323.224C697.427 322.84 697.312 322.515 697.083 322.248C696.859 321.981 696.52 321.848 696.067 321.848C695.694 321.848 695.395 321.96 695.171 322.184C694.947 322.408 694.835 322.72 694.835 323.12C694.835 323.547 694.947 323.875 695.171 324.104C695.395 324.333 695.702 324.448 696.091 324.448C696.315 324.448 696.528 324.403 696.731 324.312C696.939 324.221 697.107 324.083 697.235 323.896C697.363 323.709 697.427 323.485 697.427 323.224ZM700.534 326.144V327H699.654V326.144H700.534ZM701.917 326.44C702.824 325.832 703.549 325.229 704.093 324.632C704.637 324.029 704.909 323.469 704.909 322.952C704.909 322.632 704.827 322.376 704.661 322.184C704.501 321.987 704.24 321.888 703.877 321.888C703.504 321.888 703.221 322.008 703.029 322.248C702.837 322.483 702.731 322.808 702.709 323.224H701.989C702.027 322.595 702.221 322.112 702.573 321.776C702.925 321.435 703.379 321.264 703.933 321.264C704.461 321.264 704.88 321.405 705.189 321.688C705.499 321.971 705.653 322.371 705.653 322.888C705.653 323.315 705.515 323.749 705.237 324.192C704.965 324.629 704.621 325.037 704.205 325.416C703.795 325.789 703.371 326.107 702.933 326.368H705.797V326.968H701.917V326.44ZM707.376 324.144C707.376 325.051 707.526 325.757 707.824 326.264C708.123 326.771 708.64 327.024 709.376 327.024C710.112 327.024 710.63 326.771 710.928 326.264C711.232 325.757 711.384 325.051 711.384 324.144C711.384 323.248 711.232 322.547 710.928 322.04C710.63 321.533 710.112 321.28 709.376 321.28C708.64 321.28 708.123 321.533 707.824 322.04C707.526 322.541 707.376 323.243 707.376 324.144ZM710.664 324.144C710.664 324.608 710.63 324.997 710.56 325.312C710.496 325.621 710.371 325.869 710.184 326.056C709.998 326.243 709.728 326.336 709.376 326.336C709.03 326.336 708.763 326.243 708.576 326.056C708.39 325.869 708.262 325.621 708.192 325.312C708.128 324.997 708.096 324.608 708.096 324.144C708.096 323.685 708.128 323.301 708.192 322.992C708.262 322.683 708.39 322.437 708.576 322.256C708.763 322.069 709.03 321.976 709.376 321.976C709.728 321.976 709.998 322.069 710.184 322.256C710.371 322.437 710.496 322.683 710.56 322.992C710.63 323.301 710.664 323.685 710.664 324.144ZM712.97 326.44C713.877 325.832 714.602 325.229 715.146 324.632C715.69 324.029 715.962 323.469 715.962 322.952C715.962 322.632 715.88 322.376 715.714 322.184C715.554 321.987 715.293 321.888 714.93 321.888C714.557 321.888 714.274 322.008 714.082 322.248C713.89 322.483 713.784 322.808 713.762 323.224H713.042C713.08 322.595 713.274 322.112 713.626 321.776C713.978 321.435 714.432 321.264 714.986 321.264C715.514 321.264 715.933 321.405 716.242 321.688C716.552 321.971 716.706 322.371 716.706 322.888C716.706 323.315 716.568 323.749 716.29 324.192C716.018 324.629 715.674 325.037 715.258 325.416C714.848 325.789 714.424 326.107 713.986 326.368H716.85V326.968H712.97V326.44ZM718.309 326.44C719.216 325.832 719.941 325.229 720.485 324.632C721.029 324.029 721.301 323.469 721.301 322.952C721.301 322.632 721.219 322.376 721.053 322.184C720.893 321.987 720.632 321.888 720.269 321.888C719.896 321.888 719.613 322.008 719.421 322.248C719.229 322.483 719.123 322.808 719.101 323.224H718.381C718.419 322.595 718.613 322.112 718.965 321.776C719.317 321.435 719.771 321.264 720.325 321.264C720.853 321.264 721.272 321.405 721.581 321.688C721.891 321.971 722.045 322.371 722.045 322.888C722.045 323.315 721.907 323.749 721.629 324.192C721.357 324.629 721.013 325.037 720.597 325.416C720.187 325.789 719.763 326.107 719.325 326.368H722.189V326.968H718.309V326.44Z" fill="#87868B"/>
<path d="M532.456 324.144C532.456 325.051 532.605 325.757 532.904 326.264C533.203 326.771 533.72 327.024 534.456 327.024C535.192 327.024 535.709 326.771 536.008 326.264C536.312 325.757 536.464 325.051 536.464 324.144C536.464 323.248 536.312 322.547 536.008 322.04C535.709 321.533 535.192 321.28 534.456 321.28C533.72 321.28 533.203 321.533 532.904 322.04C532.605 322.541 532.456 323.243 532.456 324.144ZM535.744 324.144C535.744 324.608 535.709 324.997 535.64 325.312C535.576 325.621 535.451 325.869 535.264 326.056C535.077 326.243 534.808 326.336 534.456 326.336C534.109 326.336 533.843 326.243 533.656 326.056C533.469 325.869 533.341 325.621 533.272 325.312C533.208 324.997 533.176 324.608 533.176 324.144C533.176 323.685 533.208 323.301 533.272 322.992C533.341 322.683 533.469 322.437 533.656 322.256C533.843 322.069 534.109 321.976 534.456 321.976C534.808 321.976 535.077 322.069 535.264 322.256C535.451 322.437 535.576 322.683 535.64 322.992C535.709 323.301 535.744 323.685 535.744 324.144ZM541.354 322.864C541.311 322.528 541.197 322.269 541.01 322.088C540.829 321.901 540.575 321.808 540.25 321.808C539.797 321.808 539.453 321.984 539.218 322.336C538.989 322.688 538.874 323.245 538.874 324.008L538.882 324.304C538.962 323.984 539.146 323.731 539.434 323.544C539.722 323.352 540.061 323.256 540.45 323.256C541.01 323.256 541.447 323.424 541.762 323.76C542.082 324.096 542.242 324.565 542.242 325.168C542.242 325.52 542.173 325.84 542.034 326.128C541.895 326.411 541.682 326.637 541.394 326.808C541.111 326.973 540.759 327.056 540.338 327.056C539.533 327.056 538.978 326.803 538.674 326.296C538.375 325.789 538.226 325.101 538.226 324.232C538.226 323.229 538.386 322.477 538.706 321.976C539.031 321.469 539.559 321.216 540.29 321.216C540.829 321.216 541.242 321.368 541.53 321.672C541.823 321.976 541.997 322.373 542.05 322.864H541.354ZM538.962 325.048C538.962 325.437 539.074 325.765 539.298 326.032C539.527 326.293 539.869 326.424 540.322 326.424C540.695 326.424 540.994 326.315 541.218 326.096C541.442 325.872 541.554 325.56 541.554 325.16C541.554 324.728 541.442 324.4 541.218 324.176C540.994 323.947 540.685 323.832 540.29 323.832C540.066 323.832 539.853 323.877 539.65 323.968C539.447 324.059 539.282 324.197 539.154 324.384C539.026 324.565 538.962 324.787 538.962 325.048ZM544.603 326.144V327H543.723V326.144H544.603ZM545.754 322.04V321.36H547.37V327H546.602V322.04H545.754ZM550.027 325.416C550.075 325.752 550.192 326.011 550.379 326.192C550.566 326.373 550.822 326.464 551.147 326.464C551.595 326.464 551.934 326.291 552.163 325.944C552.392 325.597 552.507 325.048 552.507 324.296C552.507 324.152 552.504 324.043 552.499 323.968C552.424 324.288 552.243 324.544 551.955 324.736C551.667 324.928 551.328 325.024 550.939 325.024C550.379 325.024 549.939 324.856 549.619 324.52C549.299 324.184 549.139 323.715 549.139 323.112C549.139 322.76 549.208 322.44 549.347 322.152C549.486 321.864 549.696 321.637 549.979 321.472C550.267 321.301 550.622 321.216 551.043 321.216C551.854 321.216 552.408 321.467 552.707 321.968C553.011 322.464 553.163 323.147 553.163 324.016C553.163 325.008 553.008 325.765 552.699 326.288C552.39 326.805 551.872 327.064 551.147 327.064C550.608 327.064 550.184 326.912 549.875 326.608C549.571 326.299 549.392 325.901 549.339 325.416H550.027ZM552.427 323.224C552.427 322.84 552.312 322.515 552.083 322.248C551.859 321.981 551.52 321.848 551.067 321.848C550.694 321.848 550.395 321.96 550.171 322.184C549.947 322.408 549.835 322.72 549.835 323.12C549.835 323.547 549.947 323.875 550.171 324.104C550.395 324.333 550.702 324.448 551.091 324.448C551.315 324.448 551.528 324.403 551.731 324.312C551.939 324.221 552.107 324.083 552.235 323.896C552.363 323.709 552.427 323.485 552.427 323.224ZM555.534 326.144V327H554.654V326.144H555.534ZM556.917 326.44C557.824 325.832 558.549 325.229 559.093 324.632C559.637 324.029 559.909 323.469 559.909 322.952C559.909 322.632 559.827 322.376 559.661 322.184C559.501 321.987 559.24 321.888 558.877 321.888C558.504 321.888 558.221 322.008 558.029 322.248C557.837 322.483 557.731 322.808 557.709 323.224H556.989C557.027 322.595 557.221 322.112 557.573 321.776C557.925 321.435 558.379 321.264 558.933 321.264C559.461 321.264 559.88 321.405 560.189 321.688C560.499 321.971 560.653 322.371 560.653 322.888C560.653 323.315 560.515 323.749 560.237 324.192C559.965 324.629 559.621 325.037 559.205 325.416C558.795 325.789 558.371 326.107 557.933 326.368H560.797V326.968H556.917V326.44ZM562.376 324.144C562.376 325.051 562.526 325.757 562.824 326.264C563.123 326.771 563.64 327.024 564.376 327.024C565.112 327.024 565.63 326.771 565.928 326.264C566.232 325.757 566.384 325.051 566.384 324.144C566.384 323.248 566.232 322.547 565.928 322.04C565.63 321.533 565.112 321.28 564.376 321.28C563.64 321.28 563.123 321.533 562.824 322.04C562.526 322.541 562.376 323.243 562.376 324.144ZM565.664 324.144C565.664 324.608 565.63 324.997 565.56 325.312C565.496 325.621 565.371 325.869 565.184 326.056C564.998 326.243 564.728 326.336 564.376 326.336C564.03 326.336 563.763 326.243 563.576 326.056C563.39 325.869 563.262 325.621 563.192 325.312C563.128 324.997 563.096 324.608 563.096 324.144C563.096 323.685 563.128 323.301 563.192 322.992C563.262 322.683 563.39 322.437 563.576 322.256C563.763 322.069 564.03 321.976 564.376 321.976C564.728 321.976 564.998 322.069 565.184 322.256C565.371 322.437 565.496 322.683 565.56 322.992C565.63 323.301 565.664 323.685 565.664 324.144ZM567.97 326.44C568.877 325.832 569.602 325.229 570.146 324.632C570.69 324.029 570.962 323.469 570.962 322.952C570.962 322.632 570.88 322.376 570.714 322.184C570.554 321.987 570.293 321.888 569.93 321.888C569.557 321.888 569.274 322.008 569.082 322.248C568.89 322.483 568.784 322.808 568.762 323.224H568.042C568.08 322.595 568.274 322.112 568.626 321.776C568.978 321.435 569.432 321.264 569.986 321.264C570.514 321.264 570.933 321.405 571.242 321.688C571.552 321.971 571.706 322.371 571.706 322.888C571.706 323.315 571.568 323.749 571.29 324.192C571.018 324.629 570.674 325.037 570.258 325.416C569.848 325.789 569.424 326.107 568.986 326.368H571.85V326.968H567.97V326.44ZM573.309 326.44C574.216 325.832 574.941 325.229 575.485 324.632C576.029 324.029 576.301 323.469 576.301 322.952C576.301 322.632 576.219 322.376 576.053 322.184C575.893 321.987 575.632 321.888 575.269 321.888C574.896 321.888 574.613 322.008 574.421 322.248C574.229 322.483 574.123 322.808 574.101 323.224H573.381C573.419 322.595 573.613 322.112 573.965 321.776C574.317 321.435 574.771 321.264 575.325 321.264C575.853 321.264 576.272 321.405 576.581 321.688C576.891 321.971 577.045 322.371 577.045 322.888C577.045 323.315 576.907 323.749 576.629 324.192C576.357 324.629 576.013 325.037 575.597 325.416C575.187 325.789 574.763 326.107 574.325 326.368H577.189V326.968H573.309V326.44Z" fill="#87868B"/>
<path d="M389.456 324.144C389.456 325.051 389.605 325.757 389.904 326.264C390.203 326.771 390.72 327.024 391.456 327.024C392.192 327.024 392.709 326.771 393.008 326.264C393.312 325.757 393.464 325.051 393.464 324.144C393.464 323.248 393.312 322.547 393.008 322.04C392.709 321.533 392.192 321.28 391.456 321.28C390.72 321.28 390.203 321.533 389.904 322.04C389.605 322.541 389.456 323.243 389.456 324.144ZM392.744 324.144C392.744 324.608 392.709 324.997 392.64 325.312C392.576 325.621 392.451 325.869 392.264 326.056C392.077 326.243 391.808 326.336 391.456 326.336C391.109 326.336 390.843 326.243 390.656 326.056C390.469 325.869 390.341 325.621 390.272 325.312C390.208 324.997 390.176 324.608 390.176 324.144C390.176 323.685 390.208 323.301 390.272 322.992C390.341 322.683 390.469 322.437 390.656 322.256C390.843 322.069 391.109 321.976 391.456 321.976C391.808 321.976 392.077 322.069 392.264 322.256C392.451 322.437 392.576 322.683 392.64 322.992C392.709 323.301 392.744 323.685 392.744 324.144ZM398.354 322.864C398.311 322.528 398.197 322.269 398.01 322.088C397.829 321.901 397.575 321.808 397.25 321.808C396.797 321.808 396.453 321.984 396.218 322.336C395.989 322.688 395.874 323.245 395.874 324.008L395.882 324.304C395.962 323.984 396.146 323.731 396.434 323.544C396.722 323.352 397.061 323.256 397.45 323.256C398.01 323.256 398.447 323.424 398.762 323.76C399.082 324.096 399.242 324.565 399.242 325.168C399.242 325.52 399.173 325.84 399.034 326.128C398.895 326.411 398.682 326.637 398.394 326.808C398.111 326.973 397.759 327.056 397.338 327.056C396.533 327.056 395.978 326.803 395.674 326.296C395.375 325.789 395.226 325.101 395.226 324.232C395.226 323.229 395.386 322.477 395.706 321.976C396.031 321.469 396.559 321.216 397.29 321.216C397.829 321.216 398.242 321.368 398.53 321.672C398.823 321.976 398.997 322.373 399.05 322.864H398.354ZM395.962 325.048C395.962 325.437 396.074 325.765 396.298 326.032C396.527 326.293 396.869 326.424 397.322 326.424C397.695 326.424 397.994 326.315 398.218 326.096C398.442 325.872 398.554 325.56 398.554 325.16C398.554 324.728 398.442 324.4 398.218 324.176C397.994 323.947 397.685 323.832 397.29 323.832C397.066 323.832 396.853 323.877 396.65 323.968C396.447 324.059 396.282 324.197 396.154 324.384C396.026 324.565 395.962 324.787 395.962 325.048ZM401.603 326.144V327H400.723V326.144H401.603ZM402.754 322.04V321.36H404.37V327H403.602V322.04H402.754ZM407.027 325.416C407.075 325.752 407.192 326.011 407.379 326.192C407.566 326.373 407.822 326.464 408.147 326.464C408.595 326.464 408.934 326.291 409.163 325.944C409.392 325.597 409.507 325.048 409.507 324.296C409.507 324.152 409.504 324.043 409.499 323.968C409.424 324.288 409.243 324.544 408.955 324.736C408.667 324.928 408.328 325.024 407.939 325.024C407.379 325.024 406.939 324.856 406.619 324.52C406.299 324.184 406.139 323.715 406.139 323.112C406.139 322.76 406.208 322.44 406.347 322.152C406.486 321.864 406.696 321.637 406.979 321.472C407.267 321.301 407.622 321.216 408.043 321.216C408.854 321.216 409.408 321.467 409.707 321.968C410.011 322.464 410.163 323.147 410.163 324.016C410.163 325.008 410.008 325.765 409.699 326.288C409.39 326.805 408.872 327.064 408.147 327.064C407.608 327.064 407.184 326.912 406.875 326.608C406.571 326.299 406.392 325.901 406.339 325.416H407.027ZM409.427 323.224C409.427 322.84 409.312 322.515 409.083 322.248C408.859 321.981 408.52 321.848 408.067 321.848C407.694 321.848 407.395 321.96 407.171 322.184C406.947 322.408 406.835 322.72 406.835 323.12C406.835 323.547 406.947 323.875 407.171 324.104C407.395 324.333 407.702 324.448 408.091 324.448C408.315 324.448 408.528 324.403 408.731 324.312C408.939 324.221 409.107 324.083 409.235 323.896C409.363 323.709 409.427 323.485 409.427 323.224ZM412.534 326.144V327H411.654V326.144H412.534ZM413.917 326.44C414.824 325.832 415.549 325.229 416.093 324.632C416.637 324.029 416.909 323.469 416.909 322.952C416.909 322.632 416.827 322.376 416.661 322.184C416.501 321.987 416.24 321.888 415.877 321.888C415.504 321.888 415.221 322.008 415.029 322.248C414.837 322.483 414.731 322.808 414.709 323.224H413.989C414.027 322.595 414.221 322.112 414.573 321.776C414.925 321.435 415.379 321.264 415.933 321.264C416.461 321.264 416.88 321.405 417.189 321.688C417.499 321.971 417.653 322.371 417.653 322.888C417.653 323.315 417.515 323.749 417.237 324.192C416.965 324.629 416.621 325.037 416.205 325.416C415.795 325.789 415.371 326.107 414.933 326.368H417.797V326.968H413.917V326.44ZM419.376 324.144C419.376 325.051 419.526 325.757 419.824 326.264C420.123 326.771 420.64 327.024 421.376 327.024C422.112 327.024 422.63 326.771 422.928 326.264C423.232 325.757 423.384 325.051 423.384 324.144C423.384 323.248 423.232 322.547 422.928 322.04C422.63 321.533 422.112 321.28 421.376 321.28C420.64 321.28 420.123 321.533 419.824 322.04C419.526 322.541 419.376 323.243 419.376 324.144ZM422.664 324.144C422.664 324.608 422.63 324.997 422.56 325.312C422.496 325.621 422.371 325.869 422.184 326.056C421.998 326.243 421.728 326.336 421.376 326.336C421.03 326.336 420.763 326.243 420.576 326.056C420.39 325.869 420.262 325.621 420.192 325.312C420.128 324.997 420.096 324.608 420.096 324.144C420.096 323.685 420.128 323.301 420.192 322.992C420.262 322.683 420.39 322.437 420.576 322.256C420.763 322.069 421.03 321.976 421.376 321.976C421.728 321.976 421.998 322.069 422.184 322.256C422.371 322.437 422.496 322.683 422.56 322.992C422.63 323.301 422.664 323.685 422.664 324.144ZM424.97 326.44C425.877 325.832 426.602 325.229 427.146 324.632C427.69 324.029 427.962 323.469 427.962 322.952C427.962 322.632 427.88 322.376 427.714 322.184C427.554 321.987 427.293 321.888 426.93 321.888C426.557 321.888 426.274 322.008 426.082 322.248C425.89 322.483 425.784 322.808 425.762 323.224H425.042C425.08 322.595 425.274 322.112 425.626 321.776C425.978 321.435 426.432 321.264 426.986 321.264C427.514 321.264 427.933 321.405 428.242 321.688C428.552 321.971 428.706 322.371 428.706 322.888C428.706 323.315 428.568 323.749 428.29 324.192C428.018 324.629 427.674 325.037 427.258 325.416C426.848 325.789 426.424 326.107 425.986 326.368H428.85V326.968H424.97V326.44ZM430.309 326.44C431.216 325.832 431.941 325.229 432.485 324.632C433.029 324.029 433.301 323.469 433.301 322.952C433.301 322.632 433.219 322.376 433.053 322.184C432.893 321.987 432.632 321.888 432.269 321.888C431.896 321.888 431.613 322.008 431.421 322.248C431.229 322.483 431.123 322.808 431.101 323.224H430.381C430.419 322.595 430.613 322.112 430.965 321.776C431.317 321.435 431.771 321.264 432.325 321.264C432.853 321.264 433.272 321.405 433.581 321.688C433.891 321.971 434.045 322.371 434.045 322.888C434.045 323.315 433.907 323.749 433.629 324.192C433.357 324.629 433.013 325.037 432.597 325.416C432.187 325.789 431.763 326.107 431.325 326.368H434.189V326.968H430.309V326.44Z" fill="#87868B"/>
<path d="M244.456 324.144C244.456 325.051 244.605 325.757 244.904 326.264C245.203 326.771 245.72 327.024 246.456 327.024C247.192 327.024 247.709 326.771 248.008 326.264C248.312 325.757 248.464 325.051 248.464 324.144C248.464 323.248 248.312 322.547 248.008 322.04C247.709 321.533 247.192 321.28 246.456 321.28C245.72 321.28 245.203 321.533 244.904 322.04C244.605 322.541 244.456 323.243 244.456 324.144ZM247.744 324.144C247.744 324.608 247.709 324.997 247.64 325.312C247.576 325.621 247.451 325.869 247.264 326.056C247.077 326.243 246.808 326.336 246.456 326.336C246.109 326.336 245.843 326.243 245.656 326.056C245.469 325.869 245.341 325.621 245.272 325.312C245.208 324.997 245.176 324.608 245.176 324.144C245.176 323.685 245.208 323.301 245.272 322.992C245.341 322.683 245.469 322.437 245.656 322.256C245.843 322.069 246.109 321.976 246.456 321.976C246.808 321.976 247.077 322.069 247.264 322.256C247.451 322.437 247.576 322.683 247.64 322.992C247.709 323.301 247.744 323.685 247.744 324.144ZM253.354 322.864C253.311 322.528 253.197 322.269 253.01 322.088C252.829 321.901 252.575 321.808 252.25 321.808C251.797 321.808 251.453 321.984 251.218 322.336C250.989 322.688 250.874 323.245 250.874 324.008L250.882 324.304C250.962 323.984 251.146 323.731 251.434 323.544C251.722 323.352 252.061 323.256 252.45 323.256C253.01 323.256 253.447 323.424 253.762 323.76C254.082 324.096 254.242 324.565 254.242 325.168C254.242 325.52 254.173 325.84 254.034 326.128C253.895 326.411 253.682 326.637 253.394 326.808C253.111 326.973 252.759 327.056 252.338 327.056C251.533 327.056 250.978 326.803 250.674 326.296C250.375 325.789 250.226 325.101 250.226 324.232C250.226 323.229 250.386 322.477 250.706 321.976C251.031 321.469 251.559 321.216 252.29 321.216C252.829 321.216 253.242 321.368 253.53 321.672C253.823 321.976 253.997 322.373 254.05 322.864H253.354ZM250.962 325.048C250.962 325.437 251.074 325.765 251.298 326.032C251.527 326.293 251.869 326.424 252.322 326.424C252.695 326.424 252.994 326.315 253.218 326.096C253.442 325.872 253.554 325.56 253.554 325.16C253.554 324.728 253.442 324.4 253.218 324.176C252.994 323.947 252.685 323.832 252.29 323.832C252.066 323.832 251.853 323.877 251.65 323.968C251.447 324.059 251.282 324.197 251.154 324.384C251.026 324.565 250.962 324.787 250.962 325.048ZM256.603 326.144V327H255.723V326.144H256.603ZM257.754 322.04V321.36H259.37V327H258.602V322.04H257.754ZM262.027 325.416C262.075 325.752 262.192 326.011 262.379 326.192C262.566 326.373 262.822 326.464 263.147 326.464C263.595 326.464 263.934 326.291 264.163 325.944C264.392 325.597 264.507 325.048 264.507 324.296C264.507 324.152 264.504 324.043 264.499 323.968C264.424 324.288 264.243 324.544 263.955 324.736C263.667 324.928 263.328 325.024 262.939 325.024C262.379 325.024 261.939 324.856 261.619 324.52C261.299 324.184 261.139 323.715 261.139 323.112C261.139 322.76 261.208 322.44 261.347 322.152C261.486 321.864 261.696 321.637 261.979 321.472C262.267 321.301 262.622 321.216 263.043 321.216C263.854 321.216 264.408 321.467 264.707 321.968C265.011 322.464 265.163 323.147 265.163 324.016C265.163 325.008 265.008 325.765 264.699 326.288C264.39 326.805 263.872 327.064 263.147 327.064C262.608 327.064 262.184 326.912 261.875 326.608C261.571 326.299 261.392 325.901 261.339 325.416H262.027ZM264.427 323.224C264.427 322.84 264.312 322.515 264.083 322.248C263.859 321.981 263.52 321.848 263.067 321.848C262.694 321.848 262.395 321.96 262.171 322.184C261.947 322.408 261.835 322.72 261.835 323.12C261.835 323.547 261.947 323.875 262.171 324.104C262.395 324.333 262.702 324.448 263.091 324.448C263.315 324.448 263.528 324.403 263.731 324.312C263.939 324.221 264.107 324.083 264.235 323.896C264.363 323.709 264.427 323.485 264.427 323.224ZM267.534 326.144V327H266.654V326.144H267.534ZM268.917 326.44C269.824 325.832 270.549 325.229 271.093 324.632C271.637 324.029 271.909 323.469 271.909 322.952C271.909 322.632 271.827 322.376 271.661 322.184C271.501 321.987 271.24 321.888 270.877 321.888C270.504 321.888 270.221 322.008 270.029 322.248C269.837 322.483 269.731 322.808 269.709 323.224H268.989C269.027 322.595 269.221 322.112 269.573 321.776C269.925 321.435 270.379 321.264 270.933 321.264C271.461 321.264 271.88 321.405 272.189 321.688C272.499 321.971 272.653 322.371 272.653 322.888C272.653 323.315 272.515 323.749 272.237 324.192C271.965 324.629 271.621 325.037 271.205 325.416C270.795 325.789 270.371 326.107 269.933 326.368H272.797V326.968H268.917V326.44ZM274.376 324.144C274.376 325.051 274.526 325.757 274.824 326.264C275.123 326.771 275.64 327.024 276.376 327.024C277.112 327.024 277.63 326.771 277.928 326.264C278.232 325.757 278.384 325.051 278.384 324.144C278.384 323.248 278.232 322.547 277.928 322.04C277.63 321.533 277.112 321.28 276.376 321.28C275.64 321.28 275.123 321.533 274.824 322.04C274.526 322.541 274.376 323.243 274.376 324.144ZM277.664 324.144C277.664 324.608 277.63 324.997 277.56 325.312C277.496 325.621 277.371 325.869 277.184 326.056C276.998 326.243 276.728 326.336 276.376 326.336C276.03 326.336 275.763 326.243 275.576 326.056C275.39 325.869 275.262 325.621 275.192 325.312C275.128 324.997 275.096 324.608 275.096 324.144C275.096 323.685 275.128 323.301 275.192 322.992C275.262 322.683 275.39 322.437 275.576 322.256C275.763 322.069 276.03 321.976 276.376 321.976C276.728 321.976 276.998 322.069 277.184 322.256C277.371 322.437 277.496 322.683 277.56 322.992C277.63 323.301 277.664 323.685 277.664 324.144ZM279.97 326.44C280.877 325.832 281.602 325.229 282.146 324.632C282.69 324.029 282.962 323.469 282.962 322.952C282.962 322.632 282.88 322.376 282.714 322.184C282.554 321.987 282.293 321.888 281.93 321.888C281.557 321.888 281.274 322.008 281.082 322.248C280.89 322.483 280.784 322.808 280.762 323.224H280.042C280.08 322.595 280.274 322.112 280.626 321.776C280.978 321.435 281.432 321.264 281.986 321.264C282.514 321.264 282.933 321.405 283.242 321.688C283.552 321.971 283.706 322.371 283.706 322.888C283.706 323.315 283.568 323.749 283.29 324.192C283.018 324.629 282.674 325.037 282.258 325.416C281.848 325.789 281.424 326.107 280.986 326.368H283.85V326.968H279.97V326.44ZM285.309 326.44C286.216 325.832 286.941 325.229 287.485 324.632C288.029 324.029 288.301 323.469 288.301 322.952C288.301 322.632 288.219 322.376 288.053 322.184C287.893 321.987 287.632 321.888 287.269 321.888C286.896 321.888 286.613 322.008 286.421 322.248C286.229 322.483 286.123 322.808 286.101 323.224H285.381C285.419 322.595 285.613 322.112 285.965 321.776C286.317 321.435 286.771 321.264 287.325 321.264C287.853 321.264 288.272 321.405 288.581 321.688C288.891 321.971 289.045 322.371 289.045 322.888C289.045 323.315 288.907 323.749 288.629 324.192C288.357 324.629 288.013 325.037 287.597 325.416C287.187 325.789 286.763 326.107 286.325 326.368H289.189V326.968H285.309V326.44Z" fill="#87868B"/>
<path d="M99.456 324.144C99.456 325.051 99.6053 325.757 99.904 326.264C100.203 326.771 100.72 327.024 101.456 327.024C102.192 327.024 102.709 326.771 103.008 326.264C103.312 325.757 103.464 325.051 103.464 324.144C103.464 323.248 103.312 322.547 103.008 322.04C102.709 321.533 102.192 321.28 101.456 321.28C100.72 321.28 100.203 321.533 99.904 322.04C99.6053 322.541 99.456 323.243 99.456 324.144ZM102.744 324.144C102.744 324.608 102.709 324.997 102.64 325.312C102.576 325.621 102.451 325.869 102.264 326.056C102.077 326.243 101.808 326.336 101.456 326.336C101.109 326.336 100.843 326.243 100.656 326.056C100.469 325.869 100.341 325.621 100.272 325.312C100.208 324.997 100.176 324.608 100.176 324.144C100.176 323.685 100.208 323.301 100.272 322.992C100.341 322.683 100.469 322.437 100.656 322.256C100.843 322.069 101.109 321.976 101.456 321.976C101.808 321.976 102.077 322.069 102.264 322.256C102.451 322.437 102.576 322.683 102.64 322.992C102.709 323.301 102.744 323.685 102.744 324.144ZM108.354 322.864C108.311 322.528 108.197 322.269 108.01 322.088C107.829 321.901 107.575 321.808 107.25 321.808C106.797 321.808 106.453 321.984 106.218 322.336C105.989 322.688 105.874 323.245 105.874 324.008L105.882 324.304C105.962 323.984 106.146 323.731 106.434 323.544C106.722 323.352 107.061 323.256 107.45 323.256C108.01 323.256 108.447 323.424 108.762 323.76C109.082 324.096 109.242 324.565 109.242 325.168C109.242 325.52 109.173 325.84 109.034 326.128C108.895 326.411 108.682 326.637 108.394 326.808C108.111 326.973 107.759 327.056 107.338 327.056C106.533 327.056 105.978 326.803 105.674 326.296C105.375 325.789 105.226 325.101 105.226 324.232C105.226 323.229 105.386 322.477 105.706 321.976C106.031 321.469 106.559 321.216 107.29 321.216C107.829 321.216 108.242 321.368 108.53 321.672C108.823 321.976 108.997 322.373 109.05 322.864H108.354ZM105.962 325.048C105.962 325.437 106.074 325.765 106.298 326.032C106.527 326.293 106.869 326.424 107.322 326.424C107.695 326.424 107.994 326.315 108.218 326.096C108.442 325.872 108.554 325.56 108.554 325.16C108.554 324.728 108.442 324.4 108.218 324.176C107.994 323.947 107.685 323.832 107.29 323.832C107.066 323.832 106.853 323.877 106.65 323.968C106.447 324.059 106.282 324.197 106.154 324.384C106.026 324.565 105.962 324.787 105.962 325.048ZM111.603 326.144V327H110.723V326.144H111.603ZM112.754 322.04V321.36H114.37V327H113.602V322.04H112.754ZM117.027 325.416C117.075 325.752 117.192 326.011 117.379 326.192C117.566 326.373 117.822 326.464 118.147 326.464C118.595 326.464 118.934 326.291 119.163 325.944C119.392 325.597 119.507 325.048 119.507 324.296C119.507 324.152 119.504 324.043 119.499 323.968C119.424 324.288 119.243 324.544 118.955 324.736C118.667 324.928 118.328 325.024 117.939 325.024C117.379 325.024 116.939 324.856 116.619 324.52C116.299 324.184 116.139 323.715 116.139 323.112C116.139 322.76 116.208 322.44 116.347 322.152C116.486 321.864 116.696 321.637 116.979 321.472C117.267 321.301 117.622 321.216 118.043 321.216C118.854 321.216 119.408 321.467 119.707 321.968C120.011 322.464 120.163 323.147 120.163 324.016C120.163 325.008 120.008 325.765 119.699 326.288C119.39 326.805 118.872 327.064 118.147 327.064C117.608 327.064 117.184 326.912 116.875 326.608C116.571 326.299 116.392 325.901 116.339 325.416H117.027ZM119.427 323.224C119.427 322.84 119.312 322.515 119.083 322.248C118.859 321.981 118.52 321.848 118.067 321.848C117.694 321.848 117.395 321.96 117.171 322.184C116.947 322.408 116.835 322.72 116.835 323.12C116.835 323.547 116.947 323.875 117.171 324.104C117.395 324.333 117.702 324.448 118.091 324.448C118.315 324.448 118.528 324.403 118.731 324.312C118.939 324.221 119.107 324.083 119.235 323.896C119.363 323.709 119.427 323.485 119.427 323.224ZM122.534 326.144V327H121.654V326.144H122.534ZM123.917 326.44C124.824 325.832 125.549 325.229 126.093 324.632C126.637 324.029 126.909 323.469 126.909 322.952C126.909 322.632 126.827 322.376 126.661 322.184C126.501 321.987 126.24 321.888 125.877 321.888C125.504 321.888 125.221 322.008 125.029 322.248C124.837 322.483 124.731 322.808 124.709 323.224H123.989C124.027 322.595 124.221 322.112 124.573 321.776C124.925 321.435 125.379 321.264 125.933 321.264C126.461 321.264 126.88 321.405 127.189 321.688C127.499 321.971 127.653 322.371 127.653 322.888C127.653 323.315 127.515 323.749 127.237 324.192C126.965 324.629 126.621 325.037 126.205 325.416C125.795 325.789 125.371 326.107 124.933 326.368H127.797V326.968H123.917V326.44ZM129.376 324.144C129.376 325.051 129.526 325.757 129.824 326.264C130.123 326.771 130.64 327.024 131.376 327.024C132.112 327.024 132.63 326.771 132.928 326.264C133.232 325.757 133.384 325.051 133.384 324.144C133.384 323.248 133.232 322.547 132.928 322.04C132.63 321.533 132.112 321.28 131.376 321.28C130.64 321.28 130.123 321.533 129.824 322.04C129.526 322.541 129.376 323.243 129.376 324.144ZM132.664 324.144C132.664 324.608 132.63 324.997 132.56 325.312C132.496 325.621 132.371 325.869 132.184 326.056C131.998 326.243 131.728 326.336 131.376 326.336C131.03 326.336 130.763 326.243 130.576 326.056C130.39 325.869 130.262 325.621 130.192 325.312C130.128 324.997 130.096 324.608 130.096 324.144C130.096 323.685 130.128 323.301 130.192 322.992C130.262 322.683 130.39 322.437 130.576 322.256C130.763 322.069 131.03 321.976 131.376 321.976C131.728 321.976 131.998 322.069 132.184 322.256C132.371 322.437 132.496 322.683 132.56 322.992C132.63 323.301 132.664 323.685 132.664 324.144ZM134.97 326.44C135.877 325.832 136.602 325.229 137.146 324.632C137.69 324.029 137.962 323.469 137.962 322.952C137.962 322.632 137.88 322.376 137.714 322.184C137.554 321.987 137.293 321.888 136.93 321.888C136.557 321.888 136.274 322.008 136.082 322.248C135.89 322.483 135.784 322.808 135.762 323.224H135.042C135.08 322.595 135.274 322.112 135.626 321.776C135.978 321.435 136.432 321.264 136.986 321.264C137.514 321.264 137.933 321.405 138.242 321.688C138.552 321.971 138.706 322.371 138.706 322.888C138.706 323.315 138.568 323.749 138.29 324.192C138.018 324.629 137.674 325.037 137.258 325.416C136.848 325.789 136.424 326.107 135.986 326.368H138.85V326.968H134.97V326.44ZM140.309 326.44C141.216 325.832 141.941 325.229 142.485 324.632C143.029 324.029 143.301 323.469 143.301 322.952C143.301 322.632 143.219 322.376 143.053 322.184C142.893 321.987 142.632 321.888 142.269 321.888C141.896 321.888 141.613 322.008 141.421 322.248C141.229 322.483 141.123 322.808 141.101 323.224H140.381C140.419 322.595 140.613 322.112 140.965 321.776C141.317 321.435 141.771 321.264 142.325 321.264C142.853 321.264 143.272 321.405 143.581 321.688C143.891 321.971 144.045 322.371 144.045 322.888C144.045 323.315 143.907 323.749 143.629 324.192C143.357 324.629 143.013 325.037 142.597 325.416C142.187 325.789 141.763 326.107 141.325 326.368H144.189V326.968H140.309V326.44Z" fill="#87868B"/>
<path d="M969.456 324.144C969.456 325.051 969.605 325.757 969.904 326.264C970.203 326.771 970.72 327.024 971.456 327.024C972.192 327.024 972.709 326.771 973.008 326.264C973.312 325.757 973.464 325.051 973.464 324.144C973.464 323.248 973.312 322.547 973.008 322.04C972.709 321.533 972.192 321.28 971.456 321.28C970.72 321.28 970.203 321.533 969.904 322.04C969.605 322.541 969.456 323.243 969.456 324.144ZM972.744 324.144C972.744 324.608 972.709 324.997 972.64 325.312C972.576 325.621 972.451 325.869 972.264 326.056C972.077 326.243 971.808 326.336 971.456 326.336C971.109 326.336 970.843 326.243 970.656 326.056C970.469 325.869 970.341 325.621 970.272 325.312C970.208 324.997 970.176 324.608 970.176 324.144C970.176 323.685 970.208 323.301 970.272 322.992C970.341 322.683 970.469 322.437 970.656 322.256C970.843 322.069 971.109 321.976 971.456 321.976C971.808 321.976 972.077 322.069 972.264 322.256C972.451 322.437 972.576 322.683 972.64 322.992C972.709 323.301 972.744 323.685 972.744 324.144ZM978.354 322.864C978.311 322.528 978.197 322.269 978.01 322.088C977.829 321.901 977.575 321.808 977.25 321.808C976.797 321.808 976.453 321.984 976.218 322.336C975.989 322.688 975.874 323.245 975.874 324.008L975.882 324.304C975.962 323.984 976.146 323.731 976.434 323.544C976.722 323.352 977.061 323.256 977.45 323.256C978.01 323.256 978.447 323.424 978.762 323.76C979.082 324.096 979.242 324.565 979.242 325.168C979.242 325.52 979.173 325.84 979.034 326.128C978.895 326.411 978.682 326.637 978.394 326.808C978.111 326.973 977.759 327.056 977.338 327.056C976.533 327.056 975.978 326.803 975.674 326.296C975.375 325.789 975.226 325.101 975.226 324.232C975.226 323.229 975.386 322.477 975.706 321.976C976.031 321.469 976.559 321.216 977.29 321.216C977.829 321.216 978.242 321.368 978.53 321.672C978.823 321.976 978.997 322.373 979.05 322.864H978.354ZM975.962 325.048C975.962 325.437 976.074 325.765 976.298 326.032C976.527 326.293 976.869 326.424 977.322 326.424C977.695 326.424 977.994 326.315 978.218 326.096C978.442 325.872 978.554 325.56 978.554 325.16C978.554 324.728 978.442 324.4 978.218 324.176C977.994 323.947 977.685 323.832 977.29 323.832C977.066 323.832 976.853 323.877 976.65 323.968C976.447 324.059 976.282 324.197 976.154 324.384C976.026 324.565 975.962 324.787 975.962 325.048ZM981.603 326.144V327H980.723V326.144H981.603ZM982.986 326.44C983.893 325.832 984.618 325.229 985.162 324.632C985.706 324.029 985.978 323.469 985.978 322.952C985.978 322.632 985.895 322.376 985.73 322.184C985.57 321.987 985.309 321.888 984.946 321.888C984.573 321.888 984.29 322.008 984.098 322.248C983.906 322.483 983.799 322.808 983.778 323.224H983.058C983.095 322.595 983.29 322.112 983.642 321.776C983.994 321.435 984.447 321.264 985.002 321.264C985.53 321.264 985.949 321.405 986.258 321.688C986.567 321.971 986.722 322.371 986.722 322.888C986.722 323.315 986.583 323.749 986.306 324.192C986.034 324.629 985.69 325.037 985.274 325.416C984.863 325.789 984.439 326.107 984.002 326.368H986.866V326.968H982.986V326.44ZM988.445 324.144C988.445 325.051 988.594 325.757 988.893 326.264C989.192 326.771 989.709 327.024 990.445 327.024C991.181 327.024 991.698 326.771 991.997 326.264C992.301 325.757 992.453 325.051 992.453 324.144C992.453 323.248 992.301 322.547 991.997 322.04C991.698 321.533 991.181 321.28 990.445 321.28C989.709 321.28 989.192 321.533 988.893 322.04C988.594 322.541 988.445 323.243 988.445 324.144ZM991.733 324.144C991.733 324.608 991.698 324.997 991.629 325.312C991.565 325.621 991.44 325.869 991.253 326.056C991.066 326.243 990.797 326.336 990.445 326.336C990.098 326.336 989.832 326.243 989.645 326.056C989.458 325.869 989.33 325.621 989.261 325.312C989.197 324.997 989.165 324.608 989.165 324.144C989.165 323.685 989.197 323.301 989.261 322.992C989.33 322.683 989.458 322.437 989.645 322.256C989.832 322.069 990.098 321.976 990.445 321.976C990.797 321.976 991.066 322.069 991.253 322.256C991.44 322.437 991.565 322.683 991.629 322.992C991.698 323.301 991.733 323.685 991.733 324.144ZM994.823 326.144V327H993.943V326.144H994.823ZM996.206 326.44C997.113 325.832 997.838 325.229 998.382 324.632C998.926 324.029 999.198 323.469 999.198 322.952C999.198 322.632 999.116 322.376 998.95 322.184C998.79 321.987 998.529 321.888 998.166 321.888C997.793 321.888 997.51 322.008 997.318 322.248C997.126 322.483 997.02 322.808 996.998 323.224H996.278C996.316 322.595 996.51 322.112 996.862 321.776C997.214 321.435 997.668 321.264 998.222 321.264C998.75 321.264 999.169 321.405 999.478 321.688C999.788 321.971 999.942 322.371 999.942 322.888C999.942 323.315 999.804 323.749 999.526 324.192C999.254 324.629 998.91 325.037 998.494 325.416C998.084 325.789 997.66 326.107 997.222 326.368H1000.09V326.968H996.206V326.44ZM1001.67 324.144C1001.67 325.051 1001.81 325.757 1002.11 326.264C1002.41 326.771 1002.93 327.024 1003.67 327.024C1004.4 327.024 1004.92 326.771 1005.22 326.264C1005.52 325.757 1005.67 325.051 1005.67 324.144C1005.67 323.248 1005.52 322.547 1005.22 322.04C1004.92 321.533 1004.4 321.28 1003.67 321.28C1002.93 321.28 1002.41 321.533 1002.11 322.04C1001.81 322.541 1001.67 323.243 1001.67 324.144ZM1004.95 324.144C1004.95 324.608 1004.92 324.997 1004.85 325.312C1004.79 325.621 1004.66 325.869 1004.47 326.056C1004.29 326.243 1004.02 326.336 1003.67 326.336C1003.32 326.336 1003.05 326.243 1002.87 326.056C1002.68 325.869 1002.55 325.621 1002.48 325.312C1002.42 324.997 1002.39 324.608 1002.39 324.144C1002.39 323.685 1002.42 323.301 1002.48 322.992C1002.55 322.683 1002.68 322.437 1002.87 322.256C1003.05 322.069 1003.32 321.976 1003.67 321.976C1004.02 321.976 1004.29 322.069 1004.47 322.256C1004.66 322.437 1004.79 322.683 1004.85 322.992C1004.92 323.301 1004.95 323.685 1004.95 324.144ZM1007.26 326.44C1008.17 325.832 1008.89 325.229 1009.44 324.632C1009.98 324.029 1010.25 323.469 1010.25 322.952C1010.25 322.632 1010.17 322.376 1010 322.184C1009.84 321.987 1009.58 321.888 1009.22 321.888C1008.85 321.888 1008.56 322.008 1008.37 322.248C1008.18 322.483 1008.07 322.808 1008.05 323.224H1007.33C1007.37 322.595 1007.56 322.112 1007.92 321.776C1008.27 321.435 1008.72 321.264 1009.28 321.264C1009.8 321.264 1010.22 321.405 1010.53 321.688C1010.84 321.971 1011 322.371 1011 322.888C1011 323.315 1010.86 323.749 1010.58 324.192C1010.31 324.629 1009.96 325.037 1009.55 325.416C1009.14 325.789 1008.71 326.107 1008.28 326.368H1011.14V326.968H1007.26V326.44ZM1012.6 326.44C1013.51 325.832 1014.23 325.229 1014.77 324.632C1015.32 324.029 1015.59 323.469 1015.59 322.952C1015.59 322.632 1015.51 322.376 1015.34 322.184C1015.18 321.987 1014.92 321.888 1014.56 321.888C1014.19 321.888 1013.9 322.008 1013.71 322.248C1013.52 322.483 1013.41 322.808 1013.39 323.224H1012.67C1012.71 322.595 1012.9 322.112 1013.25 321.776C1013.61 321.435 1014.06 321.264 1014.61 321.264C1015.14 321.264 1015.56 321.405 1015.87 321.688C1016.18 321.971 1016.33 322.371 1016.33 322.888C1016.33 323.315 1016.2 323.749 1015.92 324.192C1015.65 324.629 1015.3 325.037 1014.89 325.416C1014.48 325.789 1014.05 326.107 1013.61 326.368H1016.48V326.968H1012.6V326.44Z" fill="#87868B"/>
<path d="M11.42 237.3C12.5533 236.54 13.46 235.787 14.14 235.04C14.82 234.287 15.16 233.587 15.16 232.94C15.16 232.54 15.0567 232.22 14.85 231.98C14.65 231.733 14.3233 231.61 13.87 231.61C13.4033 231.61 13.05 231.76 12.81 232.06C12.57 232.353 12.4367 232.76 12.41 233.28H11.51C11.5567 232.493 11.8 231.89 12.24 231.47C12.68 231.043 13.2467 230.83 13.94 230.83C14.6 230.83 15.1233 231.007 15.51 231.36C15.8967 231.713 16.09 232.213 16.09 232.86C16.09 233.393 15.9167 233.937 15.57 234.49C15.23 235.037 14.8 235.547 14.28 236.02C13.7667 236.487 13.2367 236.883 12.69 237.21H16.27V237.96H11.42V237.3ZM17.2438 234.43C17.2438 235.563 17.4305 236.447 17.8038 237.08C18.1772 237.713 18.8238 238.03 19.7438 238.03C20.6638 238.03 21.3105 237.713 21.6838 237.08C22.0638 236.447 22.2538 235.563 22.2538 234.43C22.2538 233.31 22.0638 232.433 21.6838 231.8C21.3105 231.167 20.6638 230.85 19.7438 230.85C18.8238 230.85 18.1772 231.167 17.8038 231.8C17.4305 232.427 17.2438 233.303 17.2438 234.43ZM21.3538 234.43C21.3538 235.01 21.3105 235.497 21.2238 235.89C21.1438 236.277 20.9872 236.587 20.7538 236.82C20.5205 237.053 20.1838 237.17 19.7438 237.17C19.3105 237.17 18.9772 237.053 18.7438 236.82C18.5105 236.587 18.3505 236.277 18.2638 235.89C18.1838 235.497 18.1438 235.01 18.1438 234.43C18.1438 233.857 18.1838 233.377 18.2638 232.99C18.3505 232.603 18.5105 232.297 18.7438 232.07C18.9772 231.837 19.3105 231.72 19.7438 231.72C20.1838 231.72 20.5205 231.837 20.7538 232.07C20.9872 232.297 21.1438 232.603 21.2238 232.99C21.3105 233.377 21.3538 233.857 21.3538 234.43ZM33.0771 231.07V238H32.1671V232.47L29.9571 238H29.1471L26.9271 232.49V238H26.0171V231.07H27.1071L29.5671 236.89L31.9871 231.07H33.0771ZM39.9427 230.95V238H39.0227V234.74H35.4427V238H34.5327V230.95H35.4427V234H39.0227V230.95H39.9427ZM44.358 228.58L41.618 239.71H40.738L43.468 228.58H44.358ZM46.8484 232.44C47.4684 232.44 47.9651 232.603 48.3384 232.93C48.7184 233.25 48.9484 233.683 49.0284 234.23H48.1584C48.1184 233.903 47.9818 233.637 47.7484 233.43C47.5218 233.217 47.2151 233.11 46.8284 233.11C46.5018 233.11 46.2451 233.19 46.0584 233.35C45.8784 233.503 45.7884 233.713 45.7884 233.98C45.7884 234.18 45.8484 234.343 45.9684 234.47C46.0951 234.59 46.2484 234.683 46.4284 234.75C46.6151 234.81 46.8684 234.877 47.1884 234.95C47.5951 235.043 47.9218 235.14 48.1684 235.24C48.4218 235.333 48.6351 235.487 48.8084 235.7C48.9884 235.913 49.0784 236.2 49.0784 236.56C49.0784 237.007 48.9084 237.37 48.5684 237.65C48.2351 237.93 47.7884 238.07 47.2284 238.07C46.5751 238.07 46.0418 237.913 45.6284 237.6C45.2151 237.287 44.9718 236.85 44.8984 236.29H45.7784C45.8118 236.623 45.9551 236.893 46.2084 237.1C46.4684 237.307 46.8084 237.41 47.2284 237.41C47.5418 237.41 47.7851 237.33 47.9584 237.17C48.1384 237.01 48.2284 236.8 48.2284 236.54C48.2284 236.327 48.1651 236.157 48.0384 236.03C47.9118 235.903 47.7551 235.807 47.5684 235.74C47.3818 235.673 47.1251 235.603 46.7984 235.53C46.3918 235.437 46.0651 235.343 45.8184 235.25C45.5784 235.157 45.3718 235.01 45.1984 234.81C45.0318 234.603 44.9484 234.327 44.9484 233.98C44.9484 233.52 45.1184 233.15 45.4584 232.87C45.7984 232.583 46.2618 232.44 46.8484 232.44Z" fill="#A1A2A8"/>
<path d="M13.99 193.76C14.4433 193.76 14.8333 193.84 15.16 194C15.4867 194.16 15.7333 194.38 15.9 194.66C16.0667 194.94 16.15 195.257 16.15 195.61C16.15 196.05 16.02 196.42 15.76 196.72C15.5067 197.02 15.1333 197.2 14.64 197.26V197.32C15.1533 197.453 15.5533 197.66 15.84 197.94C16.1333 198.22 16.28 198.607 16.28 199.1C16.28 199.68 16.0867 200.153 15.7 200.52C15.3133 200.887 14.7567 201.07 14.03 201.07C13.3033 201.07 12.7133 200.883 12.26 200.51C11.8133 200.13 11.55 199.577 11.47 198.85H12.37C12.43 199.29 12.5967 199.64 12.87 199.9C13.15 200.16 13.5267 200.29 14 200.29C14.4467 200.29 14.79 200.177 15.03 199.95C15.27 199.717 15.39 199.417 15.39 199.05C15.39 198.61 15.2167 198.277 14.87 198.05C14.53 197.817 14.0433 197.7 13.41 197.7H13.17V196.94H13.41C14.6367 196.94 15.25 196.53 15.25 195.71C15.25 195.35 15.1367 195.063 14.91 194.85C14.6833 194.637 14.37 194.53 13.97 194.53C13.57 194.53 13.2333 194.647 12.96 194.88C12.6867 195.107 12.5267 195.443 12.48 195.89H11.59C11.6367 195.223 11.8667 194.703 12.28 194.33C12.7 193.95 13.27 193.76 13.99 193.76ZM17.4587 197.43C17.4587 198.563 17.6453 199.447 18.0187 200.08C18.392 200.713 19.0387 201.03 19.9587 201.03C20.8787 201.03 21.5253 200.713 21.8987 200.08C22.2787 199.447 22.4687 198.563 22.4687 197.43C22.4687 196.31 22.2787 195.433 21.8987 194.8C21.5253 194.167 20.8787 193.85 19.9587 193.85C19.0387 193.85 18.392 194.167 18.0187 194.8C17.6453 195.427 17.4587 196.303 17.4587 197.43ZM21.5687 197.43C21.5687 198.01 21.5253 198.497 21.4387 198.89C21.3587 199.277 21.202 199.587 20.9687 199.82C20.7353 200.053 20.3987 200.17 19.9587 200.17C19.5253 200.17 19.192 200.053 18.9587 199.82C18.7253 199.587 18.5653 199.277 18.4787 198.89C18.3987 198.497 18.3587 198.01 18.3587 197.43C18.3587 196.857 18.3987 196.377 18.4787 195.99C18.5653 195.603 18.7253 195.297 18.9587 195.07C19.192 194.837 19.5253 194.72 19.9587 194.72C20.3987 194.72 20.7353 194.837 20.9687 195.07C21.202 195.297 21.3587 195.603 21.4387 195.99C21.5253 196.377 21.5687 196.857 21.5687 197.43ZM33.292 194.07V201H32.382V195.47L30.172 201H29.362L27.142 195.49V201H26.232V194.07H27.322L29.782 199.89L32.202 194.07H33.292ZM40.1576 193.95V201H39.2376V197.74H35.6576V201H34.7476V193.95H35.6576V197H39.2376V193.95H40.1576ZM44.5728 191.58L41.8328 202.71H40.9528L43.6828 191.58H44.5728ZM47.0633 195.44C47.6833 195.44 48.1799 195.603 48.5533 195.93C48.9333 196.25 49.1633 196.683 49.2433 197.23H48.3733C48.3333 196.903 48.1966 196.637 47.9633 196.43C47.7366 196.217 47.4299 196.11 47.0433 196.11C46.7166 196.11 46.4599 196.19 46.2733 196.35C46.0933 196.503 46.0033 196.713 46.0033 196.98C46.0033 197.18 46.0633 197.343 46.1833 197.47C46.3099 197.59 46.4633 197.683 46.6433 197.75C46.8299 197.81 47.0833 197.877 47.4033 197.95C47.8099 198.043 48.1366 198.14 48.3833 198.24C48.6366 198.333 48.8499 198.487 49.0233 198.7C49.2033 198.913 49.2933 199.2 49.2933 199.56C49.2933 200.007 49.1233 200.37 48.7833 200.65C48.4499 200.93 48.0033 201.07 47.4433 201.07C46.7899 201.07 46.2566 200.913 45.8433 200.6C45.4299 200.287 45.1866 199.85 45.1133 199.29H45.9933C46.0266 199.623 46.1699 199.893 46.4233 200.1C46.6833 200.307 47.0233 200.41 47.4433 200.41C47.7566 200.41 47.9999 200.33 48.1733 200.17C48.3533 200.01 48.4433 199.8 48.4433 199.54C48.4433 199.327 48.3799 199.157 48.2533 199.03C48.1266 198.903 47.9699 198.807 47.7833 198.74C47.5966 198.673 47.3399 198.603 47.0133 198.53C46.6066 198.437 46.2799 198.343 46.0333 198.25C45.7933 198.157 45.5866 198.01 45.4133 197.81C45.2466 197.603 45.1633 197.327 45.1633 196.98C45.1633 196.52 45.3333 196.15 45.6733 195.87C46.0133 195.583 46.4766 195.44 47.0633 195.44Z" fill="#A1A2A8"/>
<path d="M11.31 162.38V161.62L14.93 156.9H15.91V161.59H16.95V162.38H15.91V164H14.99V162.38H11.31ZM15.05 158.01L12.27 161.59H15.05V158.01ZM17.7712 160.43C17.7712 161.563 17.9578 162.447 18.3312 163.08C18.7045 163.713 19.3512 164.03 20.2712 164.03C21.1912 164.03 21.8378 163.713 22.2112 163.08C22.5912 162.447 22.7812 161.563 22.7812 160.43C22.7812 159.31 22.5912 158.433 22.2112 157.8C21.8378 157.167 21.1912 156.85 20.2712 156.85C19.3512 156.85 18.7045 157.167 18.3312 157.8C17.9578 158.427 17.7712 159.303 17.7712 160.43ZM21.8812 160.43C21.8812 161.01 21.8378 161.497 21.7512 161.89C21.6712 162.277 21.5145 162.587 21.2812 162.82C21.0478 163.053 20.7112 163.17 20.2712 163.17C19.8378 163.17 19.5045 163.053 19.2712 162.82C19.0378 162.587 18.8778 162.277 18.7912 161.89C18.7112 161.497 18.6712 161.01 18.6712 160.43C18.6712 159.857 18.7112 159.377 18.7912 158.99C18.8778 158.603 19.0378 158.297 19.2712 158.07C19.5045 157.837 19.8378 157.72 20.2712 157.72C20.7112 157.72 21.0478 157.837 21.2812 158.07C21.5145 158.297 21.6712 158.603 21.7512 158.99C21.8378 159.377 21.8812 159.857 21.8812 160.43ZM33.6045 157.07V164H32.6945V158.47L30.4845 164H29.6745L27.4545 158.49V164H26.5445V157.07H27.6345L30.0945 162.89L32.5145 157.07H33.6045ZM40.4701 156.95V164H39.5501V160.74H35.9701V164H35.0601V156.95H35.9701V160H39.5501V156.95H40.4701ZM44.8853 154.58L42.1453 165.71H41.2653L43.9953 154.58H44.8853ZM47.3758 158.44C47.9958 158.44 48.4924 158.603 48.8658 158.93C49.2458 159.25 49.4758 159.683 49.5558 160.23H48.6858C48.6458 159.903 48.5091 159.637 48.2758 159.43C48.0491 159.217 47.7424 159.11 47.3558 159.11C47.0291 159.11 46.7724 159.19 46.5858 159.35C46.4058 159.503 46.3158 159.713 46.3158 159.98C46.3158 160.18 46.3758 160.343 46.4958 160.47C46.6224 160.59 46.7758 160.683 46.9558 160.75C47.1424 160.81 47.3958 160.877 47.7158 160.95C48.1224 161.043 48.4491 161.14 48.6958 161.24C48.9491 161.333 49.1624 161.487 49.3358 161.7C49.5158 161.913 49.6058 162.2 49.6058 162.56C49.6058 163.007 49.4358 163.37 49.0958 163.65C48.7624 163.93 48.3158 164.07 47.7558 164.07C47.1024 164.07 46.5691 163.913 46.1558 163.6C45.7424 163.287 45.4991 162.85 45.4258 162.29H46.3058C46.3391 162.623 46.4824 162.893 46.7358 163.1C46.9958 163.307 47.3358 163.41 47.7558 163.41C48.0691 163.41 48.3124 163.33 48.4858 163.17C48.6658 163.01 48.7558 162.8 48.7558 162.54C48.7558 162.327 48.6924 162.157 48.5658 162.03C48.4391 161.903 48.2824 161.807 48.0958 161.74C47.9091 161.673 47.6524 161.603 47.3258 161.53C46.9191 161.437 46.5924 161.343 46.3458 161.25C46.1058 161.157 45.8991 161.01 45.7258 160.81C45.5591 160.603 45.4758 160.327 45.4758 159.98C45.4758 159.52 45.6458 159.15 45.9858 158.87C46.3258 158.583 46.7891 158.44 47.3758 158.44Z" fill="#A1A2A8"/>
<path d="M16.32 120.67H12.7V123.03C12.8667 122.803 13.1067 122.623 13.42 122.49C13.7333 122.357 14.0767 122.29 14.45 122.29C14.95 122.29 15.3633 122.397 15.69 122.61C16.0233 122.817 16.2667 123.093 16.42 123.44C16.58 123.78 16.66 124.16 16.66 124.58C16.66 125.307 16.4567 125.9 16.05 126.36C15.6433 126.82 15.0467 127.05 14.26 127.05C13.5533 127.05 12.9767 126.86 12.53 126.48C12.0833 126.093 11.8333 125.577 11.78 124.93H12.68C12.7533 125.343 12.9233 125.667 13.19 125.9C13.4633 126.127 13.8067 126.24 14.22 126.24C14.7333 126.24 15.12 126.087 15.38 125.78C15.64 125.473 15.77 125.07 15.77 124.57C15.77 124.083 15.6367 123.703 15.37 123.43C15.1033 123.157 14.7267 123.02 14.24 123.02C13.8933 123.02 13.59 123.097 13.33 123.25C13.07 123.397 12.8733 123.597 12.74 123.85H11.86V119.86H16.32V120.67ZM17.7321 123.43C17.7321 124.563 17.9188 125.447 18.2921 126.08C18.6654 126.713 19.3121 127.03 20.2321 127.03C21.1521 127.03 21.7988 126.713 22.1721 126.08C22.5521 125.447 22.7421 124.563 22.7421 123.43C22.7421 122.31 22.5521 121.433 22.1721 120.8C21.7988 120.167 21.1521 119.85 20.2321 119.85C19.3121 119.85 18.6654 120.167 18.2921 120.8C17.9188 121.427 17.7321 122.303 17.7321 123.43ZM21.8421 123.43C21.8421 124.01 21.7988 124.497 21.7121 124.89C21.6321 125.277 21.4754 125.587 21.2421 125.82C21.0088 126.053 20.6721 126.17 20.2321 126.17C19.7988 126.17 19.4654 126.053 19.2321 125.82C18.9988 125.587 18.8388 125.277 18.7521 124.89C18.6721 124.497 18.6321 124.01 18.6321 123.43C18.6321 122.857 18.6721 122.377 18.7521 121.99C18.8388 121.603 18.9988 121.297 19.2321 121.07C19.4654 120.837 19.7988 120.72 20.2321 120.72C20.6721 120.72 21.0088 120.837 21.2421 121.07C21.4754 121.297 21.6321 121.603 21.7121 121.99C21.7988 122.377 21.8421 122.857 21.8421 123.43ZM33.5654 120.07V127H32.6554V121.47L30.4454 127H29.6354L27.4154 121.49V127H26.5054V120.07H27.5954L30.0554 125.89L32.4754 120.07H33.5654ZM40.431 119.95V127H39.511V123.74H35.931V127H35.021V119.95H35.931V123H39.511V119.95H40.431ZM44.8463 117.58L42.1063 128.71H41.2263L43.9563 117.58H44.8463ZM47.3367 121.44C47.9567 121.44 48.4534 121.603 48.8267 121.93C49.2067 122.25 49.4367 122.683 49.5167 123.23H48.6467C48.6067 122.903 48.4701 122.637 48.2367 122.43C48.0101 122.217 47.7034 122.11 47.3167 122.11C46.9901 122.11 46.7334 122.19 46.5467 122.35C46.3667 122.503 46.2767 122.713 46.2767 122.98C46.2767 123.18 46.3367 123.343 46.4567 123.47C46.5834 123.59 46.7367 123.683 46.9167 123.75C47.1034 123.81 47.3567 123.877 47.6767 123.95C48.0834 124.043 48.4101 124.14 48.6567 124.24C48.9101 124.333 49.1234 124.487 49.2967 124.7C49.4767 124.913 49.5667 125.2 49.5667 125.56C49.5667 126.007 49.3967 126.37 49.0567 126.65C48.7234 126.93 48.2767 127.07 47.7167 127.07C47.0634 127.07 46.5301 126.913 46.1167 126.6C45.7034 126.287 45.4601 125.85 45.3867 125.29H46.2667C46.3001 125.623 46.4434 125.893 46.6967 126.1C46.9567 126.307 47.2967 126.41 47.7167 126.41C48.0301 126.41 48.2734 126.33 48.4467 126.17C48.6267 126.01 48.7167 125.8 48.7167 125.54C48.7167 125.327 48.6534 125.157 48.5267 125.03C48.4001 124.903 48.2434 124.807 48.0567 124.74C47.8701 124.673 47.6134 124.603 47.2867 124.53C46.8801 124.437 46.5534 124.343 46.3067 124.25C46.0667 124.157 45.8601 124.01 45.6867 123.81C45.5201 123.603 45.4367 123.327 45.4367 122.98C45.4367 122.52 45.6067 122.15 45.9467 121.87C46.2867 121.583 46.7501 121.44 47.3367 121.44Z" fill="#A1A2A8"/>
<path d="M15.55 84.83C15.4967 84.41 15.3533 84.0867 15.12 83.86C14.8933 83.6267 14.5767 83.51 14.17 83.51C13.6033 83.51 13.1733 83.73 12.88 84.17C12.5933 84.61 12.45 85.3067 12.45 86.26L12.46 86.63C12.56 86.23 12.79 85.9133 13.15 85.68C13.51 85.44 13.9333 85.32 14.42 85.32C15.12 85.32 15.6667 85.53 16.06 85.95C16.46 86.37 16.66 86.9567 16.66 87.71C16.66 88.15 16.5733 88.55 16.4 88.91C16.2267 89.2633 15.96 89.5467 15.6 89.76C15.2467 89.9667 14.8067 90.07 14.28 90.07C13.2733 90.07 12.58 89.7533 12.2 89.12C11.8267 88.4867 11.64 87.6267 11.64 86.54C11.64 85.2867 11.84 84.3467 12.24 83.72C12.6467 83.0867 13.3067 82.77 14.22 82.77C14.8933 82.77 15.41 82.96 15.77 83.34C16.1367 83.72 16.3533 84.2167 16.42 84.83H15.55ZM12.56 87.56C12.56 88.0467 12.7 88.4567 12.98 88.79C13.2667 89.1167 13.6933 89.28 14.26 89.28C14.7267 89.28 15.1 89.1433 15.38 88.87C15.66 88.59 15.8 88.2 15.8 87.7C15.8 87.16 15.66 86.75 15.38 86.47C15.1 86.1833 14.7133 86.04 14.22 86.04C13.94 86.04 13.6733 86.0967 13.42 86.21C13.1667 86.3233 12.96 86.4967 12.8 86.73C12.64 86.9567 12.56 87.2333 12.56 87.56ZM17.7809 86.43C17.7809 87.5633 17.9676 88.4467 18.3409 89.08C18.7143 89.7133 19.3609 90.03 20.2809 90.03C21.2009 90.03 21.8476 89.7133 22.2209 89.08C22.6009 88.4467 22.7909 87.5633 22.7909 86.43C22.7909 85.31 22.6009 84.4333 22.2209 83.8C21.8476 83.1667 21.2009 82.85 20.2809 82.85C19.3609 82.85 18.7143 83.1667 18.3409 83.8C17.9676 84.4267 17.7809 85.3033 17.7809 86.43ZM21.8909 86.43C21.8909 87.01 21.8476 87.4967 21.7609 87.89C21.6809 88.2767 21.5243 88.5867 21.2909 88.82C21.0576 89.0533 20.7209 89.17 20.2809 89.17C19.8476 89.17 19.5143 89.0533 19.2809 88.82C19.0476 88.5867 18.8876 88.2767 18.8009 87.89C18.7209 87.4967 18.6809 87.01 18.6809 86.43C18.6809 85.8567 18.7209 85.3767 18.8009 84.99C18.8876 84.6033 19.0476 84.2967 19.2809 84.07C19.5143 83.8367 19.8476 83.72 20.2809 83.72C20.7209 83.72 21.0576 83.8367 21.2909 84.07C21.5243 84.2967 21.6809 84.6033 21.7609 84.99C21.8476 85.3767 21.8909 85.8567 21.8909 86.43ZM33.6142 83.07V90H32.7042V84.47L30.4942 90H29.6842L27.4642 84.49V90H26.5542V83.07H27.6442L30.1042 88.89L32.5242 83.07H33.6142ZM40.4798 82.95V90H39.5598V86.74H35.9798V90H35.0698V82.95H35.9798V86H39.5598V82.95H40.4798ZM44.8951 80.58L42.1551 91.71H41.2751L44.0051 80.58H44.8951ZM47.3855 84.44C48.0055 84.44 48.5022 84.6033 48.8755 84.93C49.2555 85.25 49.4855 85.6833 49.5655 86.23H48.6955C48.6555 85.9033 48.5189 85.6367 48.2855 85.43C48.0589 85.2167 47.7522 85.11 47.3655 85.11C47.0389 85.11 46.7822 85.19 46.5955 85.35C46.4155 85.5033 46.3255 85.7133 46.3255 85.98C46.3255 86.18 46.3855 86.3433 46.5055 86.47C46.6322 86.59 46.7855 86.6833 46.9655 86.75C47.1522 86.81 47.4055 86.8767 47.7255 86.95C48.1322 87.0433 48.4589 87.14 48.7055 87.24C48.9589 87.3333 49.1722 87.4867 49.3455 87.7C49.5255 87.9133 49.6155 88.2 49.6155 88.56C49.6155 89.0067 49.4455 89.37 49.1055 89.65C48.7722 89.93 48.3255 90.07 47.7655 90.07C47.1122 90.07 46.5789 89.9133 46.1655 89.6C45.7522 89.2867 45.5089 88.85 45.4355 88.29H46.3155C46.3489 88.6233 46.4922 88.8933 46.7455 89.1C47.0055 89.3067 47.3455 89.41 47.7655 89.41C48.0789 89.41 48.3222 89.33 48.4955 89.17C48.6755 89.01 48.7655 88.8 48.7655 88.54C48.7655 88.3267 48.7022 88.1567 48.5755 88.03C48.4489 87.9033 48.2922 87.8067 48.1055 87.74C47.9189 87.6733 47.6622 87.6033 47.3355 87.53C46.9289 87.4367 46.6022 87.3433 46.3555 87.25C46.1155 87.1567 45.9089 87.01 45.7355 86.81C45.5689 86.6033 45.4855 86.3267 45.4855 85.98C45.4855 85.52 45.6555 85.15 45.9955 84.87C46.3355 84.5833 46.7989 84.44 47.3855 84.44Z" fill="#A1A2A8"/>
<line x1="64" y1="85.5" x2="1044" y2="85.5" stroke="#D5DFE9" stroke-dasharray="4 4"/>
<line x1="64" y1="121.5" x2="1044" y2="121.5" stroke="#D5DFE9" stroke-dasharray="4 4"/>
<line x1="64" y1="157.5" x2="1044" y2="157.5" stroke="#D5DFE9" stroke-dasharray="4 4"/>
<line x1="64" y1="193.5" x2="1044" y2="193.5" stroke="#D5DFE9" stroke-dasharray="4 4"/>
<line x1="64" y1="229.5" x2="1044" y2="229.5" stroke="#D5DFE9" stroke-dasharray="4 4"/>
<line x1="64" y1="265.5" x2="1044" y2="265.5" stroke="#D5DFE9" stroke-dasharray="4 4"/>
<line x1="64" y1="301.5" x2="1044" y2="301.5" stroke="#D5DFE9"/>
<path d="M129 194C99 182.5 70.5 193 65.5 194V300.5H1045.5V148C1016.5 141.5 980 167 943 163.5C906 160 867.5 208 831.5 194C795.5 180 762.5 179.5 676 197C589.5 214.5 540.5 185.5 496.5 197C452.5 208.5 465.5 186.5 396 194C326.5 201.5 340 302.5 334 291.5C328 280.5 336 216.5 302.5 199.5C269 182.5 254 201.5 195 197C136 192.5 159 205.5 129 194Z" fill="url(#paint0_linear_342_146)" fill-opacity="0.2"/>
<path d="M1004 5C1004 2.23858 1006.24 0 1009 0H1105C1107.76 0 1110 2.23858 1110 5V39H1004V5Z" fill="white"/>
<path d="M1053.4 13.95L1051.61 21H1050.5L1048.87 15.24L1047.24 21H1046.13L1044.33 13.95H1045.34L1046.69 19.94L1048.36 13.95H1049.37L1051.04 19.92L1052.4 13.95H1053.4ZM1059.52 17.95C1059.52 18.1433 1059.5 18.31 1059.48 18.45H1055.09C1055.11 19.0767 1055.28 19.5467 1055.62 19.86C1055.96 20.1733 1056.37 20.33 1056.86 20.33C1057.3 20.33 1057.66 20.22 1057.96 20C1058.26 19.7733 1058.44 19.4733 1058.51 19.1H1059.48C1059.41 19.48 1059.26 19.82 1059.03 20.12C1058.8 20.42 1058.5 20.6533 1058.14 20.82C1057.77 20.9867 1057.36 21.07 1056.9 21.07C1056.37 21.07 1055.9 20.9567 1055.5 20.73C1055.09 20.5033 1054.77 20.18 1054.54 19.76C1054.31 19.3333 1054.2 18.8333 1054.2 18.26C1054.2 17.6867 1054.31 17.1867 1054.54 16.76C1054.77 16.3333 1055.09 16.0067 1055.5 15.78C1055.9 15.5533 1056.37 15.44 1056.9 15.44C1057.43 15.44 1057.89 15.5533 1058.29 15.78C1058.69 16.0067 1058.99 16.31 1059.2 16.69C1059.41 17.07 1059.52 17.49 1059.52 17.95ZM1058.6 18.01C1058.62 17.6033 1058.55 17.2633 1058.4 16.99C1058.24 16.7167 1058.03 16.5133 1057.77 16.38C1057.5 16.2467 1057.21 16.18 1056.9 16.18C1056.4 16.18 1055.98 16.3367 1055.64 16.65C1055.3 16.9567 1055.11 17.41 1055.09 18.01H1058.6ZM1065.76 17.95C1065.76 18.1433 1065.74 18.31 1065.72 18.45H1061.33C1061.35 19.0767 1061.52 19.5467 1061.86 19.86C1062.2 20.1733 1062.61 20.33 1063.1 20.33C1063.54 20.33 1063.9 20.22 1064.2 20C1064.5 19.7733 1064.68 19.4733 1064.75 19.1H1065.72C1065.65 19.48 1065.5 19.82 1065.27 20.12C1065.04 20.42 1064.74 20.6533 1064.38 20.82C1064.01 20.9867 1063.6 21.07 1063.14 21.07C1062.61 21.07 1062.14 20.9567 1061.74 20.73C1061.33 20.5033 1061.01 20.18 1060.78 19.76C1060.55 19.3333 1060.44 18.8333 1060.44 18.26C1060.44 17.6867 1060.55 17.1867 1060.78 16.76C1061.01 16.3333 1061.33 16.0067 1061.74 15.78C1062.14 15.5533 1062.61 15.44 1063.14 15.44C1063.67 15.44 1064.13 15.5533 1064.53 15.78C1064.93 16.0067 1065.23 16.31 1065.44 16.69C1065.65 17.07 1065.76 17.49 1065.76 17.95ZM1064.84 18.01C1064.86 17.6033 1064.79 17.2633 1064.64 16.99C1064.48 16.7167 1064.27 16.5133 1064.01 16.38C1063.74 16.2467 1063.45 16.18 1063.14 16.18C1062.64 16.18 1062.22 16.3367 1061.88 16.65C1061.54 16.9567 1061.35 17.41 1061.33 18.01H1064.84ZM1069.96 21L1067.86 18.53V21H1066.95V13.6H1067.86V17.9L1069.93 15.51H1071.04L1068.58 18.24L1071.1 21H1069.96ZM1072.81 13.6V21H1071.9V13.6H1072.81ZM1074.65 15.51L1076.43 19.83L1078.08 15.51H1079.09L1075.83 23.6H1074.8L1075.94 20.91L1073.63 15.51H1074.65Z" fill="#A1A2A8"/>
<rect x="1015.92" y="14.7648" width="5.21337" height="1.30334" rx="0.651671" transform="rotate(45 1015.92 14.7648)" fill="#A1A2A8"/>
<rect x="1022.37" y="15.6863" width="5.21337" height="1.30334" rx="0.651671" transform="rotate(135 1022.37 15.6863)" fill="#A1A2A8"/>
<line x1="1031.5" y1="9" x2="1031.5" y2="25" stroke="#D5DFE9"/>
<g filter="url(#filter0_d_342_146)">
<rect x="463" y="107" width="88" height="68" rx="3" fill="white"/>
</g>
<rect x="497" y="171" width="14.1423" height="14.1423" transform="rotate(-45 497 171)" fill="white"/>
<path d="M478.811 121.144C478.811 122.051 478.961 122.757 479.259 123.264C479.558 123.771 480.075 124.024 480.811 124.024C481.547 124.024 482.065 123.771 482.363 123.264C482.667 122.757 482.819 122.051 482.819 121.144C482.819 120.248 482.667 119.547 482.363 119.04C482.065 118.533 481.547 118.28 480.811 118.28C480.075 118.28 479.558 118.533 479.259 119.04C478.961 119.541 478.811 120.243 478.811 121.144ZM482.099 121.144C482.099 121.608 482.065 121.997 481.995 122.312C481.931 122.621 481.806 122.869 481.619 123.056C481.433 123.243 481.163 123.336 480.811 123.336C480.465 123.336 480.198 123.243 480.011 123.056C479.825 122.869 479.697 122.621 479.627 122.312C479.563 121.997 479.531 121.608 479.531 121.144C479.531 120.685 479.563 120.301 479.627 119.992C479.697 119.683 479.825 119.437 480.011 119.256C480.198 119.069 480.465 118.976 480.811 118.976C481.163 118.976 481.433 119.069 481.619 119.256C481.806 119.437 481.931 119.683 481.995 119.992C482.065 120.301 482.099 120.685 482.099 121.144ZM488.51 119.864C488.467 119.528 488.352 119.269 488.166 119.088C487.984 118.901 487.731 118.808 487.406 118.808C486.952 118.808 486.608 118.984 486.374 119.336C486.144 119.688 486.03 120.245 486.03 121.008L486.038 121.304C486.118 120.984 486.302 120.731 486.59 120.544C486.878 120.352 487.216 120.256 487.606 120.256C488.166 120.256 488.603 120.424 488.918 120.76C489.238 121.096 489.398 121.565 489.398 122.168C489.398 122.52 489.328 122.84 489.19 123.128C489.051 123.411 488.838 123.637 488.55 123.808C488.267 123.973 487.915 124.056 487.494 124.056C486.688 124.056 486.134 123.803 485.83 123.296C485.531 122.789 485.382 122.101 485.382 121.232C485.382 120.229 485.542 119.477 485.862 118.976C486.187 118.469 486.715 118.216 487.446 118.216C487.984 118.216 488.398 118.368 488.686 118.672C488.979 118.976 489.152 119.373 489.206 119.864H488.51ZM486.118 122.048C486.118 122.437 486.23 122.765 486.454 123.032C486.683 123.293 487.024 123.424 487.478 123.424C487.851 123.424 488.15 123.315 488.374 123.096C488.598 122.872 488.71 122.56 488.71 122.16C488.71 121.728 488.598 121.4 488.374 121.176C488.15 120.947 487.84 120.832 487.446 120.832C487.222 120.832 487.008 120.877 486.806 120.968C486.603 121.059 486.438 121.197 486.31 121.384C486.182 121.565 486.118 121.787 486.118 122.048ZM492.558 123.144V124H491.678V123.144H492.558ZM494.509 119.04V118.36H496.125V124H495.357V119.04H494.509ZM499.582 122.416C499.63 122.752 499.748 123.011 499.934 123.192C500.121 123.373 500.377 123.464 500.702 123.464C501.15 123.464 501.489 123.291 501.718 122.944C501.948 122.597 502.062 122.048 502.062 121.296C502.062 121.152 502.06 121.043 502.054 120.968C501.98 121.288 501.798 121.544 501.51 121.736C501.222 121.928 500.884 122.024 500.494 122.024C499.934 122.024 499.494 121.856 499.174 121.52C498.854 121.184 498.694 120.715 498.694 120.112C498.694 119.76 498.764 119.44 498.902 119.152C499.041 118.864 499.252 118.637 499.534 118.472C499.822 118.301 500.177 118.216 500.598 118.216C501.409 118.216 501.964 118.467 502.262 118.968C502.566 119.464 502.718 120.147 502.718 121.016C502.718 122.008 502.564 122.765 502.254 123.288C501.945 123.805 501.428 124.064 500.702 124.064C500.164 124.064 499.74 123.912 499.43 123.608C499.126 123.299 498.948 122.901 498.894 122.416H499.582ZM501.982 120.224C501.982 119.84 501.868 119.515 501.638 119.248C501.414 118.981 501.076 118.848 500.622 118.848C500.249 118.848 499.95 118.96 499.726 119.184C499.502 119.408 499.39 119.72 499.39 120.12C499.39 120.547 499.502 120.875 499.726 121.104C499.95 121.333 500.257 121.448 500.646 121.448C500.87 121.448 501.084 121.403 501.286 121.312C501.494 121.221 501.662 121.083 501.79 120.896C501.918 120.709 501.982 120.485 501.982 120.224ZM505.89 123.144V124H505.01V123.144H505.89ZM508.073 123.44C508.979 122.832 509.705 122.229 510.249 121.632C510.793 121.029 511.065 120.469 511.065 119.952C511.065 119.632 510.982 119.376 510.817 119.184C510.657 118.987 510.395 118.888 510.033 118.888C509.659 118.888 509.377 119.008 509.185 119.248C508.993 119.483 508.886 119.808 508.865 120.224H508.145C508.182 119.595 508.377 119.112 508.729 118.776C509.081 118.435 509.534 118.264 510.089 118.264C510.617 118.264 511.035 118.405 511.345 118.688C511.654 118.971 511.809 119.371 511.809 119.888C511.809 120.315 511.67 120.749 511.393 121.192C511.121 121.629 510.777 122.037 510.361 122.416C509.95 122.789 509.526 123.107 509.089 123.368H511.953V123.968H508.073V123.44ZM514.332 121.144C514.332 122.051 514.481 122.757 514.78 123.264C515.078 123.771 515.596 124.024 516.332 124.024C517.068 124.024 517.585 123.771 517.884 123.264C518.188 122.757 518.34 122.051 518.34 121.144C518.34 120.248 518.188 119.547 517.884 119.04C517.585 118.533 517.068 118.28 516.332 118.28C515.596 118.28 515.078 118.533 514.78 119.04C514.481 119.541 514.332 120.243 514.332 121.144ZM517.62 121.144C517.62 121.608 517.585 121.997 517.516 122.312C517.452 122.621 517.326 122.869 517.14 123.056C516.953 123.243 516.684 123.336 516.332 123.336C515.985 123.336 515.718 123.243 515.532 123.056C515.345 122.869 515.217 122.621 515.148 122.312C515.084 121.997 515.052 121.608 515.052 121.144C515.052 120.685 515.084 120.301 515.148 119.992C515.217 119.683 515.345 119.437 515.532 119.256C515.718 119.069 515.985 118.976 516.332 118.976C516.684 118.976 516.953 119.069 517.14 119.256C517.326 119.437 517.452 119.683 517.516 119.992C517.585 120.301 517.62 120.685 517.62 121.144ZM520.726 123.44C521.633 122.832 522.358 122.229 522.902 121.632C523.446 121.029 523.718 120.469 523.718 119.952C523.718 119.632 523.635 119.376 523.47 119.184C523.31 118.987 523.049 118.888 522.686 118.888C522.313 118.888 522.03 119.008 521.838 119.248C521.646 119.483 521.539 119.808 521.518 120.224H520.798C520.835 119.595 521.03 119.112 521.382 118.776C521.734 118.435 522.187 118.264 522.742 118.264C523.27 118.264 523.689 118.405 523.998 118.688C524.307 118.971 524.462 119.371 524.462 119.888C524.462 120.315 524.323 120.749 524.046 121.192C523.774 121.629 523.43 122.037 523.014 122.416C522.603 122.789 522.179 123.107 521.742 123.368H524.606V123.968H520.726V123.44ZM526.865 123.44C527.772 122.832 528.497 122.229 529.041 121.632C529.585 121.029 529.857 120.469 529.857 119.952C529.857 119.632 529.774 119.376 529.609 119.184C529.449 118.987 529.188 118.888 528.825 118.888C528.452 118.888 528.169 119.008 527.977 119.248C527.785 119.483 527.678 119.808 527.657 120.224H526.937C526.974 119.595 527.169 119.112 527.521 118.776C527.873 118.435 528.326 118.264 528.881 118.264C529.409 118.264 529.828 118.405 530.137 118.688C530.446 118.971 530.601 119.371 530.601 119.888C530.601 120.315 530.462 120.749 530.185 121.192C529.913 121.629 529.569 122.037 529.153 122.416C528.742 122.789 528.318 123.107 527.881 123.368H530.745V123.968H526.865V123.44ZM488.281 131.04V130.36H489.897V136H489.129V131.04H488.281ZM492.409 135.44C493.316 134.832 494.041 134.229 494.585 133.632C495.129 133.029 495.401 132.469 495.401 131.952C495.401 131.632 495.319 131.376 495.153 131.184C494.993 130.987 494.732 130.888 494.369 130.888C493.996 130.888 493.713 131.008 493.521 131.248C493.329 131.483 493.223 131.808 493.201 132.224H492.481C492.519 131.595 492.713 131.112 493.065 130.776C493.417 130.435 493.871 130.264 494.425 130.264C494.953 130.264 495.372 130.405 495.681 130.688C495.991 130.971 496.145 131.371 496.145 131.888C496.145 132.315 496.007 132.749 495.729 133.192C495.457 133.629 495.113 134.037 494.697 134.416C494.287 134.789 493.863 135.107 493.425 135.368H496.289V135.968H492.409V135.44ZM499.429 131.688V132.544H498.549V131.688H499.429ZM499.429 135.144V136H498.549V135.144H499.429ZM501.448 131.04V130.36H503.064V136H502.296V131.04H501.448ZM505.809 131.688C505.809 131.411 505.883 131.157 506.033 130.928C506.182 130.699 506.403 130.517 506.697 130.384C506.99 130.251 507.339 130.184 507.745 130.184C508.15 130.184 508.497 130.251 508.785 130.384C509.078 130.517 509.299 130.699 509.449 130.928C509.598 131.157 509.673 131.411 509.673 131.688C509.673 132.003 509.587 132.275 509.417 132.504C509.246 132.733 508.987 132.896 508.641 132.992C509.014 133.093 509.305 133.269 509.513 133.52C509.721 133.771 509.825 134.08 509.825 134.448C509.825 134.981 509.635 135.4 509.257 135.704C508.878 136.008 508.374 136.16 507.745 136.16C507.115 136.16 506.611 136.008 506.233 135.704C505.854 135.4 505.665 134.981 505.665 134.448C505.665 134.08 505.766 133.771 505.969 133.52C506.177 133.269 506.467 133.093 506.841 132.992C506.494 132.896 506.235 132.733 506.065 132.504C505.894 132.275 505.809 132.003 505.809 131.688ZM506.529 131.792C506.529 132.112 506.638 132.36 506.857 132.536C507.075 132.707 507.371 132.792 507.745 132.792C508.118 132.792 508.411 132.707 508.625 132.536C508.843 132.36 508.953 132.112 508.953 131.792C508.953 131.472 508.843 131.227 508.625 131.056C508.406 130.88 508.113 130.792 507.745 130.792C507.377 130.792 507.081 130.88 506.857 131.056C506.638 131.227 506.529 131.472 506.529 131.792ZM506.377 134.408C506.377 134.771 506.499 135.053 506.745 135.256C506.99 135.453 507.323 135.552 507.745 135.552C508.161 135.552 508.491 135.451 508.737 135.248C508.982 135.045 509.105 134.765 509.105 134.408C509.105 134.045 508.977 133.771 508.721 133.584C508.465 133.397 508.139 133.304 507.745 133.304C507.345 133.304 507.017 133.397 506.761 133.584C506.505 133.771 506.377 134.045 506.377 134.408ZM513.153 133.728V136H512.425V130.36H514.217C514.862 130.36 515.345 130.512 515.665 130.816C515.985 131.115 516.145 131.525 516.145 132.048C516.145 132.576 515.979 132.989 515.649 133.288C515.318 133.581 514.841 133.728 514.217 133.728H513.153ZM514.153 133.12C514.595 133.12 514.913 133.027 515.105 132.84C515.302 132.653 515.401 132.389 515.401 132.048C515.401 131.696 515.302 131.429 515.105 131.248C514.913 131.061 514.595 130.968 514.153 130.968H513.153V133.12H514.153ZM524.243 130.456V136H523.515V131.576L521.747 136H521.099L519.323 131.592V136H518.595V130.456H519.467L521.435 135.112L523.371 130.456H524.243Z" fill="#87868B"/>
<path d="M483.217 147.79C483.856 147.79 484.406 147.903 484.867 148.128C485.327 148.354 485.675 148.664 485.91 149.059C486.145 149.454 486.263 149.9 486.263 150.399C486.263 151.019 486.079 151.541 485.713 151.964C485.356 152.387 484.829 152.641 484.133 152.726V152.81C484.857 152.998 485.421 153.29 485.826 153.685C486.239 154.079 486.446 154.625 486.446 155.321C486.446 156.138 486.174 156.806 485.628 157.323C485.083 157.84 484.298 158.099 483.273 158.099C482.248 158.099 481.416 157.835 480.777 157.309C480.147 156.773 479.776 155.993 479.663 154.968H480.932C481.017 155.588 481.252 156.082 481.637 156.449C482.032 156.815 482.563 156.999 483.231 156.999C483.861 156.999 484.345 156.839 484.683 156.519C485.022 156.19 485.191 155.767 485.191 155.25C485.191 154.629 484.947 154.159 484.458 153.84C483.978 153.511 483.292 153.346 482.399 153.346H482.06V152.274H482.399C484.129 152.274 484.994 151.696 484.994 150.54C484.994 150.032 484.834 149.628 484.514 149.327C484.194 149.026 483.753 148.876 483.188 148.876C482.624 148.876 482.15 149.04 481.764 149.369C481.379 149.689 481.153 150.164 481.087 150.794H479.832C479.898 149.853 480.222 149.12 480.805 148.594C481.397 148.058 482.201 147.79 483.217 147.79ZM488.108 152.965C488.108 154.564 488.372 155.809 488.898 156.703C489.425 157.596 490.337 158.042 491.634 158.042C492.931 158.042 493.843 157.596 494.37 156.703C494.906 155.809 495.174 154.564 495.174 152.965C495.174 151.386 494.906 150.15 494.37 149.256C493.843 148.363 492.931 147.917 491.634 147.917C490.337 147.917 489.425 148.363 488.898 149.256C488.372 150.14 488.108 151.376 488.108 152.965ZM493.905 152.965C493.905 153.783 493.843 154.47 493.721 155.024C493.608 155.57 493.387 156.007 493.058 156.336C492.729 156.665 492.255 156.829 491.634 156.829C491.023 156.829 490.553 156.665 490.224 156.336C489.895 156.007 489.669 155.57 489.547 155.024C489.434 154.47 489.378 153.783 489.378 152.965C489.378 152.157 489.434 151.48 489.547 150.935C489.669 150.389 489.895 149.957 490.224 149.637C490.553 149.308 491.023 149.144 491.634 149.144C492.255 149.144 492.729 149.308 493.058 149.637C493.387 149.957 493.608 150.389 493.721 150.935C493.843 151.48 493.905 152.157 493.905 152.965ZM510.437 148.227V158H509.154V150.201L506.037 158H504.895L501.764 150.229V158H500.481V148.227H502.018L505.487 156.435L508.9 148.227H510.437ZM520.12 148.058V158H518.822V153.403H513.774V158H512.49V148.058H513.774V152.359H518.822V148.058H520.12ZM526.346 144.715L522.482 160.412H521.241L525.091 144.715H526.346ZM529.858 150.159C530.733 150.159 531.433 150.389 531.96 150.85C532.496 151.301 532.82 151.912 532.933 152.683H531.706C531.649 152.223 531.457 151.847 531.128 151.555C530.808 151.254 530.376 151.104 529.83 151.104C529.37 151.104 529.008 151.217 528.744 151.442C528.491 151.659 528.364 151.955 528.364 152.331C528.364 152.613 528.448 152.843 528.617 153.022C528.796 153.191 529.012 153.323 529.266 153.417C529.529 153.501 529.887 153.595 530.338 153.699C530.911 153.83 531.372 153.967 531.72 154.108C532.077 154.239 532.378 154.456 532.623 154.756C532.876 155.057 533.003 155.462 533.003 155.969C533.003 156.599 532.764 157.112 532.284 157.506C531.814 157.901 531.184 158.099 530.394 158.099C529.473 158.099 528.721 157.878 528.138 157.436C527.555 156.994 527.212 156.378 527.108 155.588H528.349C528.397 156.059 528.599 156.439 528.956 156.731C529.323 157.022 529.802 157.168 530.394 157.168C530.836 157.168 531.179 157.055 531.424 156.829C531.678 156.604 531.805 156.308 531.805 155.941C531.805 155.64 531.715 155.4 531.537 155.222C531.358 155.043 531.137 154.907 530.874 154.813C530.611 154.719 530.249 154.62 529.788 154.517C529.214 154.385 528.754 154.253 528.406 154.122C528.067 153.99 527.776 153.783 527.532 153.501C527.297 153.21 527.179 152.82 527.179 152.331C527.179 151.682 527.419 151.16 527.898 150.765C528.378 150.361 529.031 150.159 529.858 150.159Z" fill="#151419"/>
<circle cx="507" cy="196" r="9" fill="#85FFB6" fill-opacity="0.2"/>
<circle cx="507" cy="196" r="5.25" fill="#85FFB6"/>
<path d="M64 194.066C69 193.066 97.5 182.566 127.5 194.066C157.5 205.566 134.5 192.566 193.5 197.066C252.5 201.566 267.5 182.566 301 199.566C334.5 216.566 326.5 280.566 332.5 291.566C338.5 302.566 325 201.566 394.5 194.066C464 186.566 451 208.566 495 197.066C539 185.566 588 214.566 674.5 197.066C761 179.566 794 180.066 830 194.066C866 208.066 904.5 160.066 941.5 163.566C978.5 167.066 1015 141.566 1044 148.066" stroke="#85FFB6" stroke-width="2"/>
<defs>
<filter id="filter0_d_342_146" x="453" y="107" width="108" height="88" filterUnits="userSpaceOnUse" color-interpolation-filters="sRGB">
<feFlood flood-opacity="0" result="BackgroundImageFix"/>
<feColorMatrix in="SourceAlpha" type="matrix" values="0 0 0 0 0 0 0 0 0 0 0 0 0 0 0 0 0 0 127 0" result="hardAlpha"/>
<feOffset dy="10"/>
<feGaussianBlur stdDeviation="5"/>
<feComposite in2="hardAlpha" operator="out"/>
<feColorMatrix type="matrix" values="0 0 0 0 0.75 0 0 0 0 0.75 0 0 0 0 0.75 0 0 0 0.4 0"/>
<feBlend mode="normal" in2="BackgroundImageFix" result="effect1_dropShadow_342_146"/>
<feBlend mode="normal" in="SourceGraphic" in2="effect1_dropShadow_342_146" result="shape"/>
</filter>
<linearGradient id="paint0_linear_342_146" x1="555.5" y1="146.934" x2="555.5" y2="327.5" gradientUnits="userSpaceOnUse">
<stop stop-color="#85FFB6"/>
<stop offset="1" stop-color="#85FFB6" stop-opacity="0"/>
</linearGradient>
</defs>
</svg>
