<svg width="212" height="29" viewBox="0 0 212 29" fill="none" xmlns="http://www.w3.org/2000/svg">
<path d="M35.4925 5.60041V5.59158H24.4376V28.4789H20.1534L5.27795 9.84044V28.4789H0V0.477051H4.27977L19.1596 19.3187V0.477051H24.4376V0.481467H49.5818L52.8369 5.60041H35.4925Z" fill="black"/>
<path d="M59.5635 14.3189L57.7305 16.96H36.3802V16.9424H28.6201V12.0045H33.8583V12.0399H57.9823L59.5635 14.3189Z" fill="black"/>
<path d="M37.7052 23.2804H28.6245V28.4788H49.1489L52.4614 23.2804H37.7052Z" fill="black"/>
<path d="M70.5785 16.2358L67.5752 20.4096L73.0784 28.4877H78.9923V28.3287L70.5785 16.2358ZM72.9194 0.477051L67.5752 8.45801L70.477 12.5611L78.7273 0.724385V0.477051H72.9194Z" fill="black"/>
<path d="M68.8165 14.478L58.7597 28.4789H52.8369V28.3199L60.9504 16.6333L62.5536 14.319L61.529 12.8394L53.1196 0.724385V0.477051H58.9187L68.8165 14.478Z" fill="black"/>
<path d="M79.9995 0.477051V5.28241H88.8771V28.4877H94.1771V5.28241H103.055V0.477051H79.9995Z" fill="black"/>
<path d="M120.134 0.477051H107.6V28.4877H110.417V19.1597H120.134C132.633 19.1243 132.633 0.477051 120.134 0.477051ZM120.134 16.5185H110.417V3.12265H120.134C128.875 3.12265 128.875 16.5185 120.134 16.5185Z" fill="black"/>
<path d="M145.83 0C136.754 0 131.635 6.62504 131.635 14.5221C131.635 21.8803 136.317 29 145.83 29C155.344 29 159.964 21.8803 159.99 14.5574C160.035 7.08437 155.313 0.0441669 145.83 0ZM145.83 26.3588C138.198 26.3588 134.515 20.6789 134.435 14.5574C134.356 7.96329 138.313 2.63235 145.83 2.63235C153.476 2.67652 157.19 8.27246 157.19 14.5574C157.155 20.5597 153.476 26.3588 145.83 26.3588Z" fill="black"/>
<path d="M176.588 0C167.508 0 162.389 6.62504 162.389 14.5221C162.389 21.8803 167.07 29 176.588 29C186.106 29 190.722 21.8803 190.748 14.5574C190.801 7.08437 186.067 0.0441669 176.588 0ZM176.588 26.3588C168.952 26.3588 165.273 20.6789 165.193 14.5574C165.114 7.96329 169.067 2.63235 176.588 2.63235C184.229 2.67652 187.944 8.27246 187.944 14.5574C187.908 20.5597 184.229 26.3588 176.588 26.3588Z" fill="black"/>
<path d="M196.414 25.8377V0.477051H193.619V28.4877H211.974V25.8377H196.414Z" fill="black"/>
</svg>
