<svg width="542" height="353" viewBox="0 0 542 353" fill="none" xmlns="http://www.w3.org/2000/svg">
<rect y="33" width="542" height="320" rx="5" fill="white"/>
<path d="M49.456 313.144C49.456 314.051 49.6053 314.757 49.904 315.264C50.2027 315.771 50.72 316.024 51.456 316.024C52.192 316.024 52.7093 315.771 53.008 315.264C53.312 314.757 53.464 314.051 53.464 313.144C53.464 312.248 53.312 311.547 53.008 311.04C52.7093 310.533 52.192 310.28 51.456 310.28C50.72 310.28 50.2027 310.533 49.904 311.04C49.6053 311.541 49.456 312.243 49.456 313.144ZM52.744 313.144C52.744 313.608 52.7093 313.997 52.64 314.312C52.576 314.621 52.4507 314.869 52.264 315.056C52.0773 315.243 51.808 315.336 51.456 315.336C51.1093 315.336 50.8427 315.243 50.656 315.056C50.4693 314.869 50.3413 314.621 50.272 314.312C50.208 313.997 50.176 313.608 50.176 313.144C50.176 312.685 50.208 312.301 50.272 311.992C50.3413 311.683 50.4693 311.437 50.656 311.256C50.8427 311.069 51.1093 310.976 51.456 310.976C51.808 310.976 52.0773 311.069 52.264 311.256C52.4507 311.437 52.576 311.683 52.64 311.992C52.7093 312.301 52.744 312.685 52.744 313.144ZM57.9541 311.864C57.9114 311.528 57.7967 311.269 57.6101 311.088C57.4287 310.901 57.1754 310.808 56.8501 310.808C56.3967 310.808 56.0527 310.984 55.8181 311.336C55.5887 311.688 55.4741 312.245 55.4741 313.008L55.4821 313.304C55.5621 312.984 55.7461 312.731 56.0341 312.544C56.3221 312.352 56.6607 312.256 57.0501 312.256C57.6101 312.256 58.0474 312.424 58.3621 312.76C58.6821 313.096 58.8421 313.565 58.8421 314.168C58.8421 314.52 58.7727 314.84 58.6341 315.128C58.4954 315.411 58.2821 315.637 57.9941 315.808C57.7114 315.973 57.3594 316.056 56.9381 316.056C56.1327 316.056 55.5781 315.803 55.2741 315.296C54.9754 314.789 54.8261 314.101 54.8261 313.232C54.8261 312.229 54.9861 311.477 55.3061 310.976C55.6314 310.469 56.1594 310.216 56.8901 310.216C57.4287 310.216 57.8421 310.368 58.1301 310.672C58.4234 310.976 58.5967 311.373 58.6501 311.864H57.9541ZM55.5621 314.048C55.5621 314.437 55.6741 314.765 55.8981 315.032C56.1274 315.293 56.4687 315.424 56.9221 315.424C57.2954 315.424 57.5941 315.315 57.8181 315.096C58.0421 314.872 58.1541 314.56 58.1541 314.16C58.1541 313.728 58.0421 313.4 57.8181 313.176C57.5941 312.947 57.2847 312.832 56.8901 312.832C56.6661 312.832 56.4527 312.877 56.2501 312.968C56.0474 313.059 55.8821 313.197 55.7541 313.384C55.6261 313.565 55.5621 313.787 55.5621 314.048ZM60.8028 315.144V316H59.9228V315.144H60.8028ZM61.554 311.04V310.36H63.17V316H62.402V311.04H61.554ZM64.3949 314.704V314.096L67.2909 310.32H68.0749V314.072H68.9069V314.704H68.0749V316H67.3389V314.704H64.3949ZM67.3869 311.208L65.1629 314.072H67.3869V311.208ZM70.6278 315.144V316H69.7478V315.144H70.6278ZM71.611 315.44C72.5177 314.832 73.243 314.229 73.787 313.632C74.331 313.029 74.603 312.469 74.603 311.952C74.603 311.632 74.5203 311.376 74.355 311.184C74.195 310.987 73.9337 310.888 73.571 310.888C73.1977 310.888 72.915 311.008 72.723 311.248C72.531 311.483 72.4243 311.808 72.403 312.224H71.683C71.7203 311.595 71.915 311.112 72.267 310.776C72.619 310.435 73.0723 310.264 73.627 310.264C74.155 310.264 74.5737 310.405 74.883 310.688C75.1923 310.971 75.347 311.371 75.347 311.888C75.347 312.315 75.2083 312.749 74.931 313.192C74.659 313.629 74.315 314.037 73.899 314.416C73.4883 314.789 73.0643 315.107 72.627 315.368H75.491V315.968H71.611V315.44ZM76.6701 313.144C76.6701 314.051 76.8194 314.757 77.1181 315.264C77.4167 315.771 77.9341 316.024 78.6701 316.024C79.4061 316.024 79.9234 315.771 80.2221 315.264C80.5261 314.757 80.6781 314.051 80.6781 313.144C80.6781 312.248 80.5261 311.547 80.2221 311.04C79.9234 310.533 79.4061 310.28 78.6701 310.28C77.9341 310.28 77.4167 310.533 77.1181 311.04C76.8194 311.541 76.6701 312.243 76.6701 313.144ZM79.9581 313.144C79.9581 313.608 79.9234 313.997 79.8541 314.312C79.7901 314.621 79.6647 314.869 79.4781 315.056C79.2914 315.243 79.0221 315.336 78.6701 315.336C78.3234 315.336 78.0567 315.243 77.8701 315.056C77.6834 314.869 77.5554 314.621 77.4861 314.312C77.4221 313.997 77.3901 313.608 77.3901 313.144C77.3901 312.685 77.4221 312.301 77.4861 311.992C77.5554 311.683 77.6834 311.437 77.8701 311.256C78.0567 311.069 78.3234 310.976 78.6701 310.976C79.0221 310.976 79.2914 311.069 79.4781 311.256C79.6647 311.437 79.7901 311.683 79.8541 311.992C79.9234 312.301 79.9581 312.685 79.9581 313.144ZM81.8641 315.44C82.7708 314.832 83.4961 314.229 84.0401 313.632C84.5841 313.029 84.8561 312.469 84.8561 311.952C84.8561 311.632 84.7735 311.376 84.6081 311.184C84.4481 310.987 84.1868 310.888 83.8241 310.888C83.4508 310.888 83.1681 311.008 82.9761 311.248C82.7841 311.483 82.6775 311.808 82.6561 312.224H81.9361C81.9735 311.595 82.1681 311.112 82.5201 310.776C82.8721 310.435 83.3255 310.264 83.8801 310.264C84.4081 310.264 84.8268 310.405 85.1361 310.688C85.4455 310.971 85.6001 311.371 85.6001 311.888C85.6001 312.315 85.4615 312.749 85.1841 313.192C84.9121 313.629 84.5681 314.037 84.1521 314.416C83.7415 314.789 83.3175 315.107 82.8801 315.368H85.7441V315.968H81.8641V315.44ZM86.8032 315.44C87.7099 314.832 88.4352 314.229 88.9792 313.632C89.5232 313.029 89.7952 312.469 89.7952 311.952C89.7952 311.632 89.7125 311.376 89.5472 311.184C89.3872 310.987 89.1259 310.888 88.7632 310.888C88.3899 310.888 88.1072 311.008 87.9152 311.248C87.7232 311.483 87.6165 311.808 87.5952 312.224H86.8752C86.9125 311.595 87.1072 311.112 87.4592 310.776C87.8112 310.435 88.2645 310.264 88.8192 310.264C89.3472 310.264 89.7659 310.405 90.0752 310.688C90.3845 310.971 90.5392 311.371 90.5392 311.888C90.5392 312.315 90.4005 312.749 90.1232 313.192C89.8512 313.629 89.5072 314.037 89.0912 314.416C88.6805 314.789 88.2565 315.107 87.8192 315.368H90.6832V315.968H86.8032V315.44Z" fill="#87868B"/>
<path d="M148.456 313.144C148.456 314.051 148.605 314.757 148.904 315.264C149.203 315.771 149.72 316.024 150.456 316.024C151.192 316.024 151.709 315.771 152.008 315.264C152.312 314.757 152.464 314.051 152.464 313.144C152.464 312.248 152.312 311.547 152.008 311.04C151.709 310.533 151.192 310.28 150.456 310.28C149.72 310.28 149.203 310.533 148.904 311.04C148.605 311.541 148.456 312.243 148.456 313.144ZM151.744 313.144C151.744 313.608 151.709 313.997 151.64 314.312C151.576 314.621 151.451 314.869 151.264 315.056C151.077 315.243 150.808 315.336 150.456 315.336C150.109 315.336 149.843 315.243 149.656 315.056C149.469 314.869 149.341 314.621 149.272 314.312C149.208 313.997 149.176 313.608 149.176 313.144C149.176 312.685 149.208 312.301 149.272 311.992C149.341 311.683 149.469 311.437 149.656 311.256C149.843 311.069 150.109 310.976 150.456 310.976C150.808 310.976 151.077 311.069 151.264 311.256C151.451 311.437 151.576 311.683 151.64 311.992C151.709 312.301 151.744 312.685 151.744 313.144ZM156.954 311.864C156.911 311.528 156.797 311.269 156.61 311.088C156.429 310.901 156.175 310.808 155.85 310.808C155.397 310.808 155.053 310.984 154.818 311.336C154.589 311.688 154.474 312.245 154.474 313.008L154.482 313.304C154.562 312.984 154.746 312.731 155.034 312.544C155.322 312.352 155.661 312.256 156.05 312.256C156.61 312.256 157.047 312.424 157.362 312.76C157.682 313.096 157.842 313.565 157.842 314.168C157.842 314.52 157.773 314.84 157.634 315.128C157.495 315.411 157.282 315.637 156.994 315.808C156.711 315.973 156.359 316.056 155.938 316.056C155.133 316.056 154.578 315.803 154.274 315.296C153.975 314.789 153.826 314.101 153.826 313.232C153.826 312.229 153.986 311.477 154.306 310.976C154.631 310.469 155.159 310.216 155.89 310.216C156.429 310.216 156.842 310.368 157.13 310.672C157.423 310.976 157.597 311.373 157.65 311.864H156.954ZM154.562 314.048C154.562 314.437 154.674 314.765 154.898 315.032C155.127 315.293 155.469 315.424 155.922 315.424C156.295 315.424 156.594 315.315 156.818 315.096C157.042 314.872 157.154 314.56 157.154 314.16C157.154 313.728 157.042 313.4 156.818 313.176C156.594 312.947 156.285 312.832 155.89 312.832C155.666 312.832 155.453 312.877 155.25 312.968C155.047 313.059 154.882 313.197 154.754 313.384C154.626 313.565 154.562 313.787 154.562 314.048ZM159.803 315.144V316H158.923V315.144H159.803ZM160.554 311.04V310.36H162.17V316H161.402V311.04H160.554ZM167.403 310.936H164.507V312.824C164.64 312.643 164.832 312.499 165.083 312.392C165.334 312.285 165.608 312.232 165.907 312.232C166.307 312.232 166.638 312.317 166.899 312.488C167.166 312.653 167.36 312.875 167.483 313.152C167.611 313.424 167.675 313.728 167.675 314.064C167.675 314.645 167.512 315.12 167.187 315.488C166.862 315.856 166.384 316.04 165.755 316.04C165.19 316.04 164.728 315.888 164.371 315.584C164.014 315.275 163.814 314.861 163.771 314.344H164.491C164.55 314.675 164.686 314.933 164.899 315.12C165.118 315.301 165.392 315.392 165.723 315.392C166.134 315.392 166.443 315.269 166.651 315.024C166.859 314.779 166.963 314.456 166.963 314.056C166.963 313.667 166.856 313.363 166.643 313.144C166.43 312.925 166.128 312.816 165.739 312.816C165.462 312.816 165.219 312.877 165.011 313C164.803 313.117 164.646 313.277 164.539 313.48H163.835V310.288H167.403V310.936ZM169.597 315.144V316H168.717V315.144H169.597ZM170.58 315.44C171.486 314.832 172.212 314.229 172.756 313.632C173.3 313.029 173.572 312.469 173.572 311.952C173.572 311.632 173.489 311.376 173.324 311.184C173.164 310.987 172.902 310.888 172.54 310.888C172.166 310.888 171.884 311.008 171.692 311.248C171.5 311.483 171.393 311.808 171.372 312.224H170.652C170.689 311.595 170.884 311.112 171.236 310.776C171.588 310.435 172.041 310.264 172.596 310.264C173.124 310.264 173.542 310.405 173.852 310.688C174.161 310.971 174.316 311.371 174.316 311.888C174.316 312.315 174.177 312.749 173.9 313.192C173.628 313.629 173.284 314.037 172.868 314.416C172.457 314.789 172.033 315.107 171.596 315.368H174.46V315.968H170.58V315.44ZM175.639 313.144C175.639 314.051 175.788 314.757 176.087 315.264C176.385 315.771 176.903 316.024 177.639 316.024C178.375 316.024 178.892 315.771 179.191 315.264C179.495 314.757 179.647 314.051 179.647 313.144C179.647 312.248 179.495 311.547 179.191 311.04C178.892 310.533 178.375 310.28 177.639 310.28C176.903 310.28 176.385 310.533 176.087 311.04C175.788 311.541 175.639 312.243 175.639 313.144ZM178.927 313.144C178.927 313.608 178.892 313.997 178.823 314.312C178.759 314.621 178.633 314.869 178.447 315.056C178.26 315.243 177.991 315.336 177.639 315.336C177.292 315.336 177.025 315.243 176.839 315.056C176.652 314.869 176.524 314.621 176.455 314.312C176.391 313.997 176.359 313.608 176.359 313.144C176.359 312.685 176.391 312.301 176.455 311.992C176.524 311.683 176.652 311.437 176.839 311.256C177.025 311.069 177.292 310.976 177.639 310.976C177.991 310.976 178.26 311.069 178.447 311.256C178.633 311.437 178.759 311.683 178.823 311.992C178.892 312.301 178.927 312.685 178.927 313.144ZM180.833 315.44C181.74 314.832 182.465 314.229 183.009 313.632C183.553 313.029 183.825 312.469 183.825 311.952C183.825 311.632 183.742 311.376 183.577 311.184C183.417 310.987 183.156 310.888 182.793 310.888C182.42 310.888 182.137 311.008 181.945 311.248C181.753 311.483 181.646 311.808 181.625 312.224H180.905C180.942 311.595 181.137 311.112 181.489 310.776C181.841 310.435 182.294 310.264 182.849 310.264C183.377 310.264 183.796 310.405 184.105 310.688C184.414 310.971 184.569 311.371 184.569 311.888C184.569 312.315 184.43 312.749 184.153 313.192C183.881 313.629 183.537 314.037 183.121 314.416C182.71 314.789 182.286 315.107 181.849 315.368H184.713V315.968H180.833V315.44ZM185.772 315.44C186.679 314.832 187.404 314.229 187.948 313.632C188.492 313.029 188.764 312.469 188.764 311.952C188.764 311.632 188.681 311.376 188.516 311.184C188.356 310.987 188.095 310.888 187.732 310.888C187.359 310.888 187.076 311.008 186.884 311.248C186.692 311.483 186.585 311.808 186.564 312.224H185.844C185.881 311.595 186.076 311.112 186.428 310.776C186.78 310.435 187.233 310.264 187.788 310.264C188.316 310.264 188.735 310.405 189.044 310.688C189.353 310.971 189.508 311.371 189.508 311.888C189.508 312.315 189.369 312.749 189.092 313.192C188.82 313.629 188.476 314.037 188.06 314.416C187.649 314.789 187.225 315.107 186.788 315.368H189.652V315.968H185.772V315.44Z" fill="#87868B"/>
<path d="M245.456 313.144C245.456 314.051 245.605 314.757 245.904 315.264C246.203 315.771 246.72 316.024 247.456 316.024C248.192 316.024 248.709 315.771 249.008 315.264C249.312 314.757 249.464 314.051 249.464 313.144C249.464 312.248 249.312 311.547 249.008 311.04C248.709 310.533 248.192 310.28 247.456 310.28C246.72 310.28 246.203 310.533 245.904 311.04C245.605 311.541 245.456 312.243 245.456 313.144ZM248.744 313.144C248.744 313.608 248.709 313.997 248.64 314.312C248.576 314.621 248.451 314.869 248.264 315.056C248.077 315.243 247.808 315.336 247.456 315.336C247.109 315.336 246.843 315.243 246.656 315.056C246.469 314.869 246.341 314.621 246.272 314.312C246.208 313.997 246.176 313.608 246.176 313.144C246.176 312.685 246.208 312.301 246.272 311.992C246.341 311.683 246.469 311.437 246.656 311.256C246.843 311.069 247.109 310.976 247.456 310.976C247.808 310.976 248.077 311.069 248.264 311.256C248.451 311.437 248.576 311.683 248.64 311.992C248.709 312.301 248.744 312.685 248.744 313.144ZM253.954 311.864C253.911 311.528 253.797 311.269 253.61 311.088C253.429 310.901 253.175 310.808 252.85 310.808C252.397 310.808 252.053 310.984 251.818 311.336C251.589 311.688 251.474 312.245 251.474 313.008L251.482 313.304C251.562 312.984 251.746 312.731 252.034 312.544C252.322 312.352 252.661 312.256 253.05 312.256C253.61 312.256 254.047 312.424 254.362 312.76C254.682 313.096 254.842 313.565 254.842 314.168C254.842 314.52 254.773 314.84 254.634 315.128C254.495 315.411 254.282 315.637 253.994 315.808C253.711 315.973 253.359 316.056 252.938 316.056C252.133 316.056 251.578 315.803 251.274 315.296C250.975 314.789 250.826 314.101 250.826 313.232C250.826 312.229 250.986 311.477 251.306 310.976C251.631 310.469 252.159 310.216 252.89 310.216C253.429 310.216 253.842 310.368 254.13 310.672C254.423 310.976 254.597 311.373 254.65 311.864H253.954ZM251.562 314.048C251.562 314.437 251.674 314.765 251.898 315.032C252.127 315.293 252.469 315.424 252.922 315.424C253.295 315.424 253.594 315.315 253.818 315.096C254.042 314.872 254.154 314.56 254.154 314.16C254.154 313.728 254.042 313.4 253.818 313.176C253.594 312.947 253.285 312.832 252.89 312.832C252.666 312.832 252.453 312.877 252.25 312.968C252.047 313.059 251.882 313.197 251.754 313.384C251.626 313.565 251.562 313.787 251.562 314.048ZM256.803 315.144V316H255.923V315.144H256.803ZM257.554 311.04V310.36H259.17V316H258.402V311.04H257.554ZM263.787 311.864C263.744 311.528 263.63 311.269 263.443 311.088C263.262 310.901 263.008 310.808 262.683 310.808C262.23 310.808 261.886 310.984 261.651 311.336C261.422 311.688 261.307 312.245 261.307 313.008L261.315 313.304C261.395 312.984 261.579 312.731 261.867 312.544C262.155 312.352 262.494 312.256 262.883 312.256C263.443 312.256 263.88 312.424 264.195 312.76C264.515 313.096 264.675 313.565 264.675 314.168C264.675 314.52 264.606 314.84 264.467 315.128C264.328 315.411 264.115 315.637 263.827 315.808C263.544 315.973 263.192 316.056 262.771 316.056C261.966 316.056 261.411 315.803 261.107 315.296C260.808 314.789 260.659 314.101 260.659 313.232C260.659 312.229 260.819 311.477 261.139 310.976C261.464 310.469 261.992 310.216 262.723 310.216C263.262 310.216 263.675 310.368 263.963 310.672C264.256 310.976 264.43 311.373 264.483 311.864H263.787ZM261.395 314.048C261.395 314.437 261.507 314.765 261.731 315.032C261.96 315.293 262.302 315.424 262.755 315.424C263.128 315.424 263.427 315.315 263.651 315.096C263.875 314.872 263.987 314.56 263.987 314.16C263.987 313.728 263.875 313.4 263.651 313.176C263.427 312.947 263.118 312.832 262.723 312.832C262.499 312.832 262.286 312.877 262.083 312.968C261.88 313.059 261.715 313.197 261.587 313.384C261.459 313.565 261.395 313.787 261.395 314.048ZM266.636 315.144V316H265.756V315.144H266.636ZM267.619 315.44C268.525 314.832 269.251 314.229 269.795 313.632C270.339 313.029 270.611 312.469 270.611 311.952C270.611 311.632 270.528 311.376 270.363 311.184C270.203 310.987 269.941 310.888 269.579 310.888C269.205 310.888 268.923 311.008 268.731 311.248C268.539 311.483 268.432 311.808 268.411 312.224H267.691C267.728 311.595 267.923 311.112 268.275 310.776C268.627 310.435 269.08 310.264 269.635 310.264C270.163 310.264 270.581 310.405 270.891 310.688C271.2 310.971 271.355 311.371 271.355 311.888C271.355 312.315 271.216 312.749 270.939 313.192C270.667 313.629 270.323 314.037 269.907 314.416C269.496 314.789 269.072 315.107 268.635 315.368H271.499V315.968H267.619V315.44ZM272.678 313.144C272.678 314.051 272.827 314.757 273.126 315.264C273.425 315.771 273.942 316.024 274.678 316.024C275.414 316.024 275.931 315.771 276.23 315.264C276.534 314.757 276.686 314.051 276.686 313.144C276.686 312.248 276.534 311.547 276.23 311.04C275.931 310.533 275.414 310.28 274.678 310.28C273.942 310.28 273.425 310.533 273.126 311.04C272.827 311.541 272.678 312.243 272.678 313.144ZM275.966 313.144C275.966 313.608 275.931 313.997 275.862 314.312C275.798 314.621 275.673 314.869 275.486 315.056C275.299 315.243 275.03 315.336 274.678 315.336C274.331 315.336 274.065 315.243 273.878 315.056C273.691 314.869 273.563 314.621 273.494 314.312C273.43 313.997 273.398 313.608 273.398 313.144C273.398 312.685 273.43 312.301 273.494 311.992C273.563 311.683 273.691 311.437 273.878 311.256C274.065 311.069 274.331 310.976 274.678 310.976C275.03 310.976 275.299 311.069 275.486 311.256C275.673 311.437 275.798 311.683 275.862 311.992C275.931 312.301 275.966 312.685 275.966 313.144ZM277.872 315.44C278.779 314.832 279.504 314.229 280.048 313.632C280.592 313.029 280.864 312.469 280.864 311.952C280.864 311.632 280.781 311.376 280.616 311.184C280.456 310.987 280.195 310.888 279.832 310.888C279.459 310.888 279.176 311.008 278.984 311.248C278.792 311.483 278.685 311.808 278.664 312.224H277.944C277.981 311.595 278.176 311.112 278.528 310.776C278.88 310.435 279.333 310.264 279.888 310.264C280.416 310.264 280.835 310.405 281.144 310.688C281.453 310.971 281.608 311.371 281.608 311.888C281.608 312.315 281.469 312.749 281.192 313.192C280.92 313.629 280.576 314.037 280.16 314.416C279.749 314.789 279.325 315.107 278.888 315.368H281.752V315.968H277.872V315.44ZM282.811 315.44C283.718 314.832 284.443 314.229 284.987 313.632C285.531 313.029 285.803 312.469 285.803 311.952C285.803 311.632 285.72 311.376 285.555 311.184C285.395 310.987 285.134 310.888 284.771 310.888C284.398 310.888 284.115 311.008 283.923 311.248C283.731 311.483 283.624 311.808 283.603 312.224H282.883C282.92 311.595 283.115 311.112 283.467 310.776C283.819 310.435 284.272 310.264 284.827 310.264C285.355 310.264 285.774 310.405 286.083 310.688C286.392 310.971 286.547 311.371 286.547 311.888C286.547 312.315 286.408 312.749 286.131 313.192C285.859 313.629 285.515 314.037 285.099 314.416C284.688 314.789 284.264 315.107 283.827 315.368H286.691V315.968H282.811V315.44Z" fill="#87868B"/>
<path d="M341.456 313.144C341.456 314.051 341.605 314.757 341.904 315.264C342.203 315.771 342.72 316.024 343.456 316.024C344.192 316.024 344.709 315.771 345.008 315.264C345.312 314.757 345.464 314.051 345.464 313.144C345.464 312.248 345.312 311.547 345.008 311.04C344.709 310.533 344.192 310.28 343.456 310.28C342.72 310.28 342.203 310.533 341.904 311.04C341.605 311.541 341.456 312.243 341.456 313.144ZM344.744 313.144C344.744 313.608 344.709 313.997 344.64 314.312C344.576 314.621 344.451 314.869 344.264 315.056C344.077 315.243 343.808 315.336 343.456 315.336C343.109 315.336 342.843 315.243 342.656 315.056C342.469 314.869 342.341 314.621 342.272 314.312C342.208 313.997 342.176 313.608 342.176 313.144C342.176 312.685 342.208 312.301 342.272 311.992C342.341 311.683 342.469 311.437 342.656 311.256C342.843 311.069 343.109 310.976 343.456 310.976C343.808 310.976 344.077 311.069 344.264 311.256C344.451 311.437 344.576 311.683 344.64 311.992C344.709 312.301 344.744 312.685 344.744 313.144ZM349.954 311.864C349.911 311.528 349.797 311.269 349.61 311.088C349.429 310.901 349.175 310.808 348.85 310.808C348.397 310.808 348.053 310.984 347.818 311.336C347.589 311.688 347.474 312.245 347.474 313.008L347.482 313.304C347.562 312.984 347.746 312.731 348.034 312.544C348.322 312.352 348.661 312.256 349.05 312.256C349.61 312.256 350.047 312.424 350.362 312.76C350.682 313.096 350.842 313.565 350.842 314.168C350.842 314.52 350.773 314.84 350.634 315.128C350.495 315.411 350.282 315.637 349.994 315.808C349.711 315.973 349.359 316.056 348.938 316.056C348.133 316.056 347.578 315.803 347.274 315.296C346.975 314.789 346.826 314.101 346.826 313.232C346.826 312.229 346.986 311.477 347.306 310.976C347.631 310.469 348.159 310.216 348.89 310.216C349.429 310.216 349.842 310.368 350.13 310.672C350.423 310.976 350.597 311.373 350.65 311.864H349.954ZM347.562 314.048C347.562 314.437 347.674 314.765 347.898 315.032C348.127 315.293 348.469 315.424 348.922 315.424C349.295 315.424 349.594 315.315 349.818 315.096C350.042 314.872 350.154 314.56 350.154 314.16C350.154 313.728 350.042 313.4 349.818 313.176C349.594 312.947 349.285 312.832 348.89 312.832C348.666 312.832 348.453 312.877 348.25 312.968C348.047 313.059 347.882 313.197 347.754 313.384C347.626 313.565 347.562 313.787 347.562 314.048ZM352.803 315.144V316H351.923V315.144H352.803ZM353.554 311.04V310.36H355.17V316H354.402V311.04H353.554ZM359.955 310.888L357.819 316H357.051L359.219 310.96H356.259V310.328H359.955V310.888ZM361.714 315.144V316H360.834V315.144H361.714ZM362.697 315.44C363.604 314.832 364.329 314.229 364.873 313.632C365.417 313.029 365.689 312.469 365.689 311.952C365.689 311.632 365.606 311.376 365.441 311.184C365.281 310.987 365.02 310.888 364.657 310.888C364.284 310.888 364.001 311.008 363.809 311.248C363.617 311.483 363.51 311.808 363.489 312.224H362.769C362.806 311.595 363.001 311.112 363.353 310.776C363.705 310.435 364.158 310.264 364.713 310.264C365.241 310.264 365.66 310.405 365.969 310.688C366.278 310.971 366.433 311.371 366.433 311.888C366.433 312.315 366.294 312.749 366.017 313.192C365.745 313.629 365.401 314.037 364.985 314.416C364.574 314.789 364.15 315.107 363.713 315.368H366.577V315.968H362.697V315.44ZM367.756 313.144C367.756 314.051 367.905 314.757 368.204 315.264C368.503 315.771 369.02 316.024 369.756 316.024C370.492 316.024 371.009 315.771 371.308 315.264C371.612 314.757 371.764 314.051 371.764 313.144C371.764 312.248 371.612 311.547 371.308 311.04C371.009 310.533 370.492 310.28 369.756 310.28C369.02 310.28 368.503 310.533 368.204 311.04C367.905 311.541 367.756 312.243 367.756 313.144ZM371.044 313.144C371.044 313.608 371.009 313.997 370.94 314.312C370.876 314.621 370.751 314.869 370.564 315.056C370.377 315.243 370.108 315.336 369.756 315.336C369.409 315.336 369.143 315.243 368.956 315.056C368.769 314.869 368.641 314.621 368.572 314.312C368.508 313.997 368.476 313.608 368.476 313.144C368.476 312.685 368.508 312.301 368.572 311.992C368.641 311.683 368.769 311.437 368.956 311.256C369.143 311.069 369.409 310.976 369.756 310.976C370.108 310.976 370.377 311.069 370.564 311.256C370.751 311.437 370.876 311.683 370.94 311.992C371.009 312.301 371.044 312.685 371.044 313.144ZM372.95 315.44C373.857 314.832 374.582 314.229 375.126 313.632C375.67 313.029 375.942 312.469 375.942 311.952C375.942 311.632 375.859 311.376 375.694 311.184C375.534 310.987 375.273 310.888 374.91 310.888C374.537 310.888 374.254 311.008 374.062 311.248C373.87 311.483 373.763 311.808 373.742 312.224H373.022C373.059 311.595 373.254 311.112 373.606 310.776C373.958 310.435 374.411 310.264 374.966 310.264C375.494 310.264 375.913 310.405 376.222 310.688C376.531 310.971 376.686 311.371 376.686 311.888C376.686 312.315 376.547 312.749 376.27 313.192C375.998 313.629 375.654 314.037 375.238 314.416C374.827 314.789 374.403 315.107 373.966 315.368H376.83V315.968H372.95V315.44ZM377.889 315.44C378.796 314.832 379.521 314.229 380.065 313.632C380.609 313.029 380.881 312.469 380.881 311.952C380.881 311.632 380.798 311.376 380.633 311.184C380.473 310.987 380.212 310.888 379.849 310.888C379.476 310.888 379.193 311.008 379.001 311.248C378.809 311.483 378.702 311.808 378.681 312.224H377.961C377.998 311.595 378.193 311.112 378.545 310.776C378.897 310.435 379.35 310.264 379.905 310.264C380.433 310.264 380.852 310.405 381.161 310.688C381.47 310.971 381.625 311.371 381.625 311.888C381.625 312.315 381.486 312.749 381.209 313.192C380.937 313.629 380.593 314.037 380.177 314.416C379.766 314.789 379.342 315.107 378.905 315.368H381.769V315.968H377.889V315.44Z" fill="#87868B"/>
<path d="M438.456 313.144C438.456 314.051 438.605 314.757 438.904 315.264C439.203 315.771 439.72 316.024 440.456 316.024C441.192 316.024 441.709 315.771 442.008 315.264C442.312 314.757 442.464 314.051 442.464 313.144C442.464 312.248 442.312 311.547 442.008 311.04C441.709 310.533 441.192 310.28 440.456 310.28C439.72 310.28 439.203 310.533 438.904 311.04C438.605 311.541 438.456 312.243 438.456 313.144ZM441.744 313.144C441.744 313.608 441.709 313.997 441.64 314.312C441.576 314.621 441.451 314.869 441.264 315.056C441.077 315.243 440.808 315.336 440.456 315.336C440.109 315.336 439.843 315.243 439.656 315.056C439.469 314.869 439.341 314.621 439.272 314.312C439.208 313.997 439.176 313.608 439.176 313.144C439.176 312.685 439.208 312.301 439.272 311.992C439.341 311.683 439.469 311.437 439.656 311.256C439.843 311.069 440.109 310.976 440.456 310.976C440.808 310.976 441.077 311.069 441.264 311.256C441.451 311.437 441.576 311.683 441.64 311.992C441.709 312.301 441.744 312.685 441.744 313.144ZM446.954 311.864C446.911 311.528 446.797 311.269 446.61 311.088C446.429 310.901 446.175 310.808 445.85 310.808C445.397 310.808 445.053 310.984 444.818 311.336C444.589 311.688 444.474 312.245 444.474 313.008L444.482 313.304C444.562 312.984 444.746 312.731 445.034 312.544C445.322 312.352 445.661 312.256 446.05 312.256C446.61 312.256 447.047 312.424 447.362 312.76C447.682 313.096 447.842 313.565 447.842 314.168C447.842 314.52 447.773 314.84 447.634 315.128C447.495 315.411 447.282 315.637 446.994 315.808C446.711 315.973 446.359 316.056 445.938 316.056C445.133 316.056 444.578 315.803 444.274 315.296C443.975 314.789 443.826 314.101 443.826 313.232C443.826 312.229 443.986 311.477 444.306 310.976C444.631 310.469 445.159 310.216 445.89 310.216C446.429 310.216 446.842 310.368 447.13 310.672C447.423 310.976 447.597 311.373 447.65 311.864H446.954ZM444.562 314.048C444.562 314.437 444.674 314.765 444.898 315.032C445.127 315.293 445.469 315.424 445.922 315.424C446.295 315.424 446.594 315.315 446.818 315.096C447.042 314.872 447.154 314.56 447.154 314.16C447.154 313.728 447.042 313.4 446.818 313.176C446.594 312.947 446.285 312.832 445.89 312.832C445.666 312.832 445.453 312.877 445.25 312.968C445.047 313.059 444.882 313.197 444.754 313.384C444.626 313.565 444.562 313.787 444.562 314.048ZM449.803 315.144V316H448.923V315.144H449.803ZM450.554 311.04V310.36H452.17V316H451.402V311.04H450.554ZM453.715 311.688C453.715 311.411 453.79 311.157 453.939 310.928C454.088 310.699 454.31 310.517 454.603 310.384C454.896 310.251 455.246 310.184 455.651 310.184C456.056 310.184 456.403 310.251 456.691 310.384C456.984 310.517 457.206 310.699 457.355 310.928C457.504 311.157 457.579 311.411 457.579 311.688C457.579 312.003 457.494 312.275 457.323 312.504C457.152 312.733 456.894 312.896 456.547 312.992C456.92 313.093 457.211 313.269 457.419 313.52C457.627 313.771 457.731 314.08 457.731 314.448C457.731 314.981 457.542 315.4 457.163 315.704C456.784 316.008 456.28 316.16 455.651 316.16C455.022 316.16 454.518 316.008 454.139 315.704C453.76 315.4 453.571 314.981 453.571 314.448C453.571 314.08 453.672 313.771 453.875 313.52C454.083 313.269 454.374 313.093 454.747 312.992C454.4 312.896 454.142 312.733 453.971 312.504C453.8 312.275 453.715 312.003 453.715 311.688ZM454.435 311.792C454.435 312.112 454.544 312.36 454.763 312.536C454.982 312.707 455.278 312.792 455.651 312.792C456.024 312.792 456.318 312.707 456.531 312.536C456.75 312.36 456.859 312.112 456.859 311.792C456.859 311.472 456.75 311.227 456.531 311.056C456.312 310.88 456.019 310.792 455.651 310.792C455.283 310.792 454.987 310.88 454.763 311.056C454.544 311.227 454.435 311.472 454.435 311.792ZM454.283 314.408C454.283 314.771 454.406 315.053 454.651 315.256C454.896 315.453 455.23 315.552 455.651 315.552C456.067 315.552 456.398 315.451 456.643 315.248C456.888 315.045 457.011 314.765 457.011 314.408C457.011 314.045 456.883 313.771 456.627 313.584C456.371 313.397 456.046 313.304 455.651 313.304C455.251 313.304 454.923 313.397 454.667 313.584C454.411 313.771 454.283 314.045 454.283 314.408ZM459.667 315.144V316H458.787V315.144H459.667ZM460.65 315.44C461.557 314.832 462.282 314.229 462.826 313.632C463.37 313.029 463.642 312.469 463.642 311.952C463.642 311.632 463.559 311.376 463.394 311.184C463.234 310.987 462.973 310.888 462.61 310.888C462.237 310.888 461.954 311.008 461.762 311.248C461.57 311.483 461.463 311.808 461.442 312.224H460.722C460.759 311.595 460.954 311.112 461.306 310.776C461.658 310.435 462.111 310.264 462.666 310.264C463.194 310.264 463.613 310.405 463.922 310.688C464.231 310.971 464.386 311.371 464.386 311.888C464.386 312.315 464.247 312.749 463.97 313.192C463.698 313.629 463.354 314.037 462.938 314.416C462.527 314.789 462.103 315.107 461.666 315.368H464.53V315.968H460.65V315.44ZM465.709 313.144C465.709 314.051 465.858 314.757 466.157 315.264C466.456 315.771 466.973 316.024 467.709 316.024C468.445 316.024 468.962 315.771 469.261 315.264C469.565 314.757 469.717 314.051 469.717 313.144C469.717 312.248 469.565 311.547 469.261 311.04C468.962 310.533 468.445 310.28 467.709 310.28C466.973 310.28 466.456 310.533 466.157 311.04C465.858 311.541 465.709 312.243 465.709 313.144ZM468.997 313.144C468.997 313.608 468.962 313.997 468.893 314.312C468.829 314.621 468.704 314.869 468.517 315.056C468.33 315.243 468.061 315.336 467.709 315.336C467.362 315.336 467.096 315.243 466.909 315.056C466.722 314.869 466.594 314.621 466.525 314.312C466.461 313.997 466.429 313.608 466.429 313.144C466.429 312.685 466.461 312.301 466.525 311.992C466.594 311.683 466.722 311.437 466.909 311.256C467.096 311.069 467.362 310.976 467.709 310.976C468.061 310.976 468.33 311.069 468.517 311.256C468.704 311.437 468.829 311.683 468.893 311.992C468.962 312.301 468.997 312.685 468.997 313.144ZM470.903 315.44C471.81 314.832 472.535 314.229 473.079 313.632C473.623 313.029 473.895 312.469 473.895 311.952C473.895 311.632 473.813 311.376 473.647 311.184C473.487 310.987 473.226 310.888 472.863 310.888C472.49 310.888 472.207 311.008 472.015 311.248C471.823 311.483 471.717 311.808 471.695 312.224H470.975C471.013 311.595 471.207 311.112 471.559 310.776C471.911 310.435 472.365 310.264 472.919 310.264C473.447 310.264 473.866 310.405 474.175 310.688C474.485 310.971 474.639 311.371 474.639 311.888C474.639 312.315 474.501 312.749 474.223 313.192C473.951 313.629 473.607 314.037 473.191 314.416C472.781 314.789 472.357 315.107 471.919 315.368H474.783V315.968H470.903V315.44ZM475.842 315.44C476.749 314.832 477.474 314.229 478.018 313.632C478.562 313.029 478.834 312.469 478.834 311.952C478.834 311.632 478.752 311.376 478.586 311.184C478.426 310.987 478.165 310.888 477.802 310.888C477.429 310.888 477.146 311.008 476.954 311.248C476.762 311.483 476.656 311.808 476.634 312.224H475.914C475.952 311.595 476.146 311.112 476.498 310.776C476.85 310.435 477.304 310.264 477.858 310.264C478.386 310.264 478.805 310.405 479.114 310.688C479.424 310.971 479.578 311.371 479.578 311.888C479.578 312.315 479.44 312.749 479.162 313.192C478.89 313.629 478.546 314.037 478.13 314.416C477.72 314.789 477.296 315.107 476.858 315.368H479.722V315.968H475.842V315.44Z" fill="#87868B"/>
<path d="M16.4274 286.43C16.4274 287.563 16.6141 288.447 16.9874 289.08C17.3608 289.713 18.0074 290.03 18.9274 290.03C19.8474 290.03 20.4941 289.713 20.8674 289.08C21.2474 288.447 21.4374 287.563 21.4374 286.43C21.4374 285.31 21.2474 284.433 20.8674 283.8C20.4941 283.167 19.8474 282.85 18.9274 282.85C18.0074 282.85 17.3608 283.167 16.9874 283.8C16.6141 284.427 16.4274 285.303 16.4274 286.43ZM20.5374 286.43C20.5374 287.01 20.4941 287.497 20.4074 287.89C20.3274 288.277 20.1708 288.587 19.9374 288.82C19.7041 289.053 19.3674 289.17 18.9274 289.17C18.4941 289.17 18.1608 289.053 17.9274 288.82C17.6941 288.587 17.5341 288.277 17.4474 287.89C17.3674 287.497 17.3274 287.01 17.3274 286.43C17.3274 285.857 17.3674 285.377 17.4474 284.99C17.5341 284.603 17.6941 284.297 17.9274 284.07C18.1608 283.837 18.4941 283.72 18.9274 283.72C19.3674 283.72 19.7041 283.837 19.9374 284.07C20.1708 284.297 20.3274 284.603 20.4074 284.99C20.4941 285.377 20.5374 285.857 20.5374 286.43Z" fill="#A1A2A8"/>
<path d="M16.7462 253.3C17.8795 252.54 18.7862 251.787 19.4662 251.04C20.1462 250.287 20.4862 249.587 20.4862 248.94C20.4862 248.54 20.3828 248.22 20.1762 247.98C19.9762 247.733 19.6495 247.61 19.1962 247.61C18.7295 247.61 18.3762 247.76 18.1362 248.06C17.8962 248.353 17.7628 248.76 17.7362 249.28H16.8362C16.8828 248.493 17.1262 247.89 17.5662 247.47C18.0062 247.043 18.5728 246.83 19.2662 246.83C19.9262 246.83 20.4495 247.007 20.8362 247.36C21.2228 247.713 21.4162 248.213 21.4162 248.86C21.4162 249.393 21.2428 249.937 20.8962 250.49C20.5562 251.037 20.1262 251.547 19.6062 252.02C19.0928 252.487 18.5628 252.883 18.0162 253.21H21.5962V253.96H16.7462V253.3Z" fill="#A1A2A8"/>
<path d="M16.1088 216.38V215.62L19.7288 210.9H20.7088V215.59H21.7488V216.38H20.7088V218H19.7888V216.38H16.1088ZM19.8488 212.01L17.0688 215.59H19.8488V212.01Z" fill="#A1A2A8"/>
<path d="M20.3391 176.83C20.2857 176.41 20.1424 176.087 19.9091 175.86C19.6824 175.627 19.3657 175.51 18.9591 175.51C18.3924 175.51 17.9624 175.73 17.6691 176.17C17.3824 176.61 17.2391 177.307 17.2391 178.26L17.2491 178.63C17.3491 178.23 17.5791 177.913 17.9391 177.68C18.2991 177.44 18.7224 177.32 19.2091 177.32C19.9091 177.32 20.4557 177.53 20.8491 177.95C21.2491 178.37 21.4491 178.957 21.4491 179.71C21.4491 180.15 21.3624 180.55 21.1891 180.91C21.0157 181.263 20.7491 181.547 20.3891 181.76C20.0357 181.967 19.5957 182.07 19.0691 182.07C18.0624 182.07 17.3691 181.753 16.9891 181.12C16.6157 180.487 16.4291 179.627 16.4291 178.54C16.4291 177.287 16.6291 176.347 17.0291 175.72C17.4357 175.087 18.0957 174.77 19.0091 174.77C19.6824 174.77 20.1991 174.96 20.5591 175.34C20.9257 175.72 21.1424 176.217 21.2091 176.83H20.3391ZM17.3491 179.56C17.3491 180.047 17.4891 180.457 17.7691 180.79C18.0557 181.117 18.4824 181.28 19.0491 181.28C19.5157 181.28 19.8891 181.143 20.1691 180.87C20.4491 180.59 20.5891 180.2 20.5891 179.7C20.5891 179.16 20.4491 178.75 20.1691 178.47C19.8891 178.183 19.5024 178.04 19.0091 178.04C18.7291 178.04 18.4624 178.097 18.2091 178.21C17.9557 178.323 17.7491 178.497 17.5891 178.73C17.4291 178.957 17.3491 179.233 17.3491 179.56Z" fill="#A1A2A8"/>
<path d="M16.46 140.61C16.46 140.263 16.5533 139.947 16.74 139.66C16.9267 139.373 17.2033 139.147 17.57 138.98C17.9367 138.813 18.3733 138.73 18.88 138.73C19.3867 138.73 19.82 138.813 20.18 138.98C20.5467 139.147 20.8233 139.373 21.01 139.66C21.1967 139.947 21.29 140.263 21.29 140.61C21.29 141.003 21.1833 141.343 20.97 141.63C20.7567 141.917 20.4333 142.12 20 142.24C20.4667 142.367 20.83 142.587 21.09 142.9C21.35 143.213 21.48 143.6 21.48 144.06C21.48 144.727 21.2433 145.25 20.77 145.63C20.2967 146.01 19.6667 146.2 18.88 146.2C18.0933 146.2 17.4633 146.01 16.99 145.63C16.5167 145.25 16.28 144.727 16.28 144.06C16.28 143.6 16.4067 143.213 16.66 142.9C16.92 142.587 17.2833 142.367 17.75 142.24C17.3167 142.12 16.9933 141.917 16.78 141.63C16.5667 141.343 16.46 141.003 16.46 140.61ZM17.36 140.74C17.36 141.14 17.4967 141.45 17.77 141.67C18.0433 141.883 18.4133 141.99 18.88 141.99C19.3467 141.99 19.7133 141.883 19.98 141.67C20.2533 141.45 20.39 141.14 20.39 140.74C20.39 140.34 20.2533 140.033 19.98 139.82C19.7067 139.6 19.34 139.49 18.88 139.49C18.42 139.49 18.05 139.6 17.77 139.82C17.4967 140.033 17.36 140.34 17.36 140.74ZM17.17 144.01C17.17 144.463 17.3233 144.817 17.63 145.07C17.9367 145.317 18.3533 145.44 18.88 145.44C19.4 145.44 19.8133 145.313 20.12 145.06C20.4267 144.807 20.58 144.457 20.58 144.01C20.58 143.557 20.42 143.213 20.1 142.98C19.78 142.747 19.3733 142.63 18.88 142.63C18.38 142.63 17.97 142.747 17.65 142.98C17.33 143.213 17.17 143.557 17.17 144.01Z" fill="#A1A2A8"/>
<path d="M13.1163 103.8V102.95H15.1363V110H14.1763V103.8H13.1163ZM16.4274 106.43C16.4274 107.563 16.6141 108.447 16.9874 109.08C17.3608 109.713 18.0074 110.03 18.9274 110.03C19.8474 110.03 20.4941 109.713 20.8674 109.08C21.2474 108.447 21.4374 107.563 21.4374 106.43C21.4374 105.31 21.2474 104.433 20.8674 103.8C20.4941 103.167 19.8474 102.85 18.9274 102.85C18.0074 102.85 17.3608 103.167 16.9874 103.8C16.6141 104.427 16.4274 105.303 16.4274 106.43ZM20.5374 106.43C20.5374 107.01 20.4941 107.497 20.4074 107.89C20.3274 108.277 20.1708 108.587 19.9374 108.82C19.7041 109.053 19.3674 109.17 18.9274 109.17C18.4941 109.17 18.1608 109.053 17.9274 108.82C17.6941 108.587 17.5341 108.277 17.4474 107.89C17.3674 107.497 17.3274 107.01 17.3274 106.43C17.3274 105.857 17.3674 105.377 17.4474 104.99C17.5341 104.603 17.6941 104.297 17.9274 104.07C18.1608 103.837 18.4941 103.72 18.9274 103.72C19.3674 103.72 19.7041 103.837 19.9374 104.07C20.1708 104.297 20.3274 104.603 20.4074 104.99C20.4941 105.377 20.5374 105.857 20.5374 106.43Z" fill="#A1A2A8"/>
<path d="M13.5851 66.8V65.95H15.6051V73H14.6451V66.8H13.5851ZM16.7462 72.3C17.8795 71.54 18.7862 70.7867 19.4662 70.04C20.1462 69.2867 20.4862 68.5867 20.4862 67.94C20.4862 67.54 20.3828 67.22 20.1762 66.98C19.9762 66.7333 19.6495 66.61 19.1962 66.61C18.7295 66.61 18.3762 66.76 18.1362 67.06C17.8962 67.3533 17.7628 67.76 17.7362 68.28H16.8362C16.8828 67.4933 17.1262 66.89 17.5662 66.47C18.0062 66.0433 18.5728 65.83 19.2662 65.83C19.9262 65.83 20.4495 66.0067 20.8362 66.36C21.2228 66.7133 21.4162 67.2133 21.4162 67.86C21.4162 68.3933 21.2428 68.9367 20.8962 69.49C20.5562 70.0367 20.1262 70.5467 19.6062 71.02C19.0928 71.4867 18.5628 71.8833 18.0162 72.21H21.5962V72.96H16.7462V72.3Z" fill="#A1A2A8"/>
<line x1="51" y1="69.5" x2="505" y2="69.5" stroke="#D5DFE9" stroke-dasharray="4 4"/>
<line x1="51" y1="105.5" x2="505" y2="105.5" stroke="#D5DFE9" stroke-dasharray="4 4"/>
<line x1="51" y1="141.5" x2="505" y2="141.5" stroke="#D5DFE9" stroke-dasharray="4 4"/>
<line x1="51" y1="177.5" x2="505" y2="177.5" stroke="#D5DFE9" stroke-dasharray="4 4"/>
<line x1="51" y1="213.5" x2="505" y2="213.5" stroke="#D5DFE9" stroke-dasharray="4 4"/>
<line x1="51" y1="249.5" x2="505" y2="249.5" stroke="#D5DFE9" stroke-dasharray="4 4"/>
<line x1="51" y1="285.5" x2="505" y2="285.5" stroke="#D5DFE9"/>
<path d="M436 5C436 2.23858 438.239 0 441 0H537C539.761 0 542 2.23858 542 5V39H436V5Z" fill="white"/>
<path d="M485.4 13.95L483.61 21H482.5L480.87 15.24L479.24 21H478.13L476.33 13.95H477.34L478.69 19.94L480.36 13.95H481.37L483.04 19.92L484.4 13.95H485.4ZM491.516 17.95C491.516 18.1433 491.503 18.31 491.476 18.45H487.086C487.106 19.0767 487.283 19.5467 487.616 19.86C487.956 20.1733 488.37 20.33 488.856 20.33C489.296 20.33 489.663 20.22 489.956 20C490.256 19.7733 490.44 19.4733 490.506 19.1H491.476C491.41 19.48 491.26 19.82 491.026 20.12C490.8 20.42 490.503 20.6533 490.136 20.82C489.77 20.9867 489.356 21.07 488.896 21.07C488.37 21.07 487.903 20.9567 487.496 20.73C487.09 20.5033 486.77 20.18 486.536 19.76C486.31 19.3333 486.196 18.8333 486.196 18.26C486.196 17.6867 486.31 17.1867 486.536 16.76C486.77 16.3333 487.09 16.0067 487.496 15.78C487.903 15.5533 488.37 15.44 488.896 15.44C489.43 15.44 489.893 15.5533 490.286 15.78C490.686 16.0067 490.99 16.31 491.196 16.69C491.41 17.07 491.516 17.49 491.516 17.95ZM490.596 18.01C490.616 17.6033 490.55 17.2633 490.396 16.99C490.243 16.7167 490.033 16.5133 489.766 16.38C489.5 16.2467 489.21 16.18 488.896 16.18C488.396 16.18 487.976 16.3367 487.636 16.65C487.296 16.9567 487.113 17.41 487.086 18.01H490.596ZM497.757 17.95C497.757 18.1433 497.743 18.31 497.717 18.45H493.327C493.347 19.0767 493.523 19.5467 493.857 19.86C494.197 20.1733 494.61 20.33 495.097 20.33C495.537 20.33 495.903 20.22 496.197 20C496.497 19.7733 496.68 19.4733 496.747 19.1H497.717C497.65 19.48 497.5 19.82 497.267 20.12C497.04 20.42 496.743 20.6533 496.377 20.82C496.01 20.9867 495.597 21.07 495.137 21.07C494.61 21.07 494.143 20.9567 493.737 20.73C493.33 20.5033 493.01 20.18 492.777 19.76C492.55 19.3333 492.437 18.8333 492.437 18.26C492.437 17.6867 492.55 17.1867 492.777 16.76C493.01 16.3333 493.33 16.0067 493.737 15.78C494.143 15.5533 494.61 15.44 495.137 15.44C495.67 15.44 496.133 15.5533 496.527 15.78C496.927 16.0067 497.23 16.31 497.437 16.69C497.65 17.07 497.757 17.49 497.757 17.95ZM496.837 18.01C496.857 17.6033 496.79 17.2633 496.637 16.99C496.483 16.7167 496.273 16.5133 496.007 16.38C495.74 16.2467 495.45 16.18 495.137 16.18C494.637 16.18 494.217 16.3367 493.877 16.65C493.537 16.9567 493.353 17.41 493.327 18.01H496.837ZM501.957 21L499.857 18.53V21H498.947V13.6H499.857V17.9L501.927 15.51H503.037L500.577 18.24L503.097 21H501.957ZM504.808 13.6V21H503.898V13.6H504.808ZM506.651 15.51L508.431 19.83L510.081 15.51H511.091L507.831 23.6H506.801L507.941 20.91L505.631 15.51H506.651Z" fill="#A1A2A8"/>
<rect x="447.922" y="14.7648" width="5.21337" height="1.30334" rx="0.651671" transform="rotate(45 447.922 14.7648)" fill="#A1A2A8"/>
<rect x="454.373" y="15.6863" width="5.21337" height="1.30334" rx="0.651671" transform="rotate(135 454.373 15.6863)" fill="#A1A2A8"/>
<line x1="463.5" y1="9" x2="463.5" y2="25" stroke="#D5DFE9"/>
<path d="M51 142.057C76.5536 153.838 144.964 180.725 195.361 176.405C317.322 165.951 410.907 4.66504 503 210.255" stroke="#FC7010" stroke-width="2"/>
<path d="M195.361 176.405C144.964 180.725 76.5536 153.838 51 142.057V285.105H503V210.255C410.908 4.66504 317.322 165.951 195.361 176.405Z" fill="url(#paint0_linear_342_149)" fill-opacity="0.5"/>
<defs>
<linearGradient id="paint0_linear_342_149" x1="277" y1="12.3117" x2="277" y2="250.757" gradientUnits="userSpaceOnUse">
<stop stop-color="#FC7010"/>
<stop offset="1" stop-color="#FC7010" stop-opacity="0"/>
</linearGradient>
</defs>
</svg>
