<svg width="124" height="123" viewBox="0 0 124 123" fill="none" xmlns="http://www.w3.org/2000/svg">
<g filter="url(#filter0_f_318_147)">
<rect x="44.667" y="44.5555" width="34.6667" height="33.7778" rx="7.11111" fill="url(#paint0_linear_318_147)"/>
</g>
<rect x="42" y="33" width="40" height="39.1111" rx="7.11111" fill="url(#paint1_linear_318_147)"/>
<path d="M67.4879 52.8223C67.0699 52.2819 66.4392 51.9106 65.5958 51.7089C66.6698 51.161 67.1418 50.2312 67.0122 48.9192C66.9689 48.4434 66.8374 48.0311 66.6175 47.6816C66.3974 47.332 66.1004 47.051 65.7253 46.8384C65.3506 46.6255 64.943 46.4635 64.5035 46.3518C64.0639 46.2401 63.5592 46.1589 62.9898 46.1085V43.3839H61.3249V46.0328C61.0366 46.0328 60.5969 46.04 60.006 46.0545V43.3839H58.3408V46.1085C58.1029 46.1158 57.7534 46.1194 57.2921 46.1194L55 46.1085V47.8817H56.2C56.7479 47.8817 57.0686 48.1269 57.1623 48.6169V51.72C57.2345 51.72 57.2921 51.7237 57.3354 51.7309H57.1623V56.0772C57.1047 56.4447 56.8957 56.6286 56.5353 56.6286H55.3353L55.0001 58.6073H57.1625C57.2995 58.6073 57.4976 58.6091 57.7572 58.6123C58.0166 58.616 58.2111 58.6178 58.3409 58.6178V61.3748H60.0063V58.6502C60.3089 58.6576 60.7486 58.6611 61.3252 58.6611V61.3748H62.9902V58.6178C63.5814 58.589 64.1057 58.5352 64.5632 58.4557C65.0209 58.3761 65.4589 58.252 65.8769 58.0825C66.2948 57.9132 66.6443 57.7022 66.9254 57.4499C67.2066 57.1979 67.4389 56.877 67.623 56.4877C67.8065 56.0984 67.9238 55.6479 67.9741 55.136C68.0682 54.1343 67.9059 53.363 67.4879 52.8223ZM60.0383 48.0003C60.0888 48.0003 60.2312 47.9985 60.4654 47.9949C60.6998 47.9912 60.8943 47.9876 61.0493 47.984C61.2043 47.9804 61.4133 47.9894 61.6765 48.0111C61.9396 48.0327 62.1612 48.0616 62.3414 48.0976C62.5215 48.1335 62.7199 48.193 62.9359 48.2759C63.1524 48.3587 63.3252 48.4597 63.4548 48.5786C63.5847 48.6975 63.6946 48.849 63.7845 49.0328C63.8747 49.2166 63.9198 49.4274 63.9198 49.6652C63.9198 49.867 63.8874 50.0509 63.8226 50.2168C63.7579 50.3825 63.6604 50.5213 63.5308 50.633C63.4012 50.7448 63.2676 50.8422 63.1306 50.925C62.9938 51.0078 62.8188 51.0745 62.6063 51.1249C62.3937 51.1754 62.2081 51.2151 62.0497 51.2439C61.8911 51.2727 61.6929 51.2926 61.455 51.3033C61.2171 51.3141 61.0368 51.3214 60.9143 51.325C60.7917 51.3286 60.6242 51.3286 60.4115 51.325C60.1987 51.3214 60.0746 51.3196 60.0384 51.3196V48.0003H60.0383V48.0003ZM64.5849 55.3632C64.5163 55.529 64.4281 55.6733 64.3201 55.7959C64.2118 55.9182 64.0694 56.0265 63.8929 56.12C63.7164 56.2139 63.5451 56.2894 63.3794 56.3471C63.2136 56.405 63.0135 56.4552 62.7794 56.4986C62.5449 56.5419 62.3396 56.5723 62.1628 56.5904C61.9863 56.6085 61.7756 56.6229 61.5304 56.6338C61.2854 56.6444 61.0943 56.6499 60.9574 56.6499C60.8204 56.6499 60.6474 56.6479 60.4383 56.6444C60.2292 56.641 60.096 56.6392 60.0383 56.6392V52.9846C60.0959 52.9846 60.2671 52.9811 60.5518 52.9737C60.8367 52.9665 61.069 52.9631 61.2492 52.9631C61.4294 52.9631 61.6782 52.9737 61.9954 52.9955C62.3124 53.017 62.5791 53.0493 62.7955 53.0925C63.0117 53.1358 63.2476 53.2024 63.5036 53.2926C63.7595 53.3827 63.9668 53.4926 64.1254 53.6223C64.284 53.7523 64.4173 53.9178 64.5254 54.1197C64.6337 54.3215 64.6877 54.5522 64.6877 54.8117C64.6877 55.0138 64.6535 55.1973 64.5849 55.3632Z" fill="white"/>
<defs>
<filter id="filter0_f_318_147" x="0.222546" y="0.111095" width="123.555" height="122.667" filterUnits="userSpaceOnUse" color-interpolation-filters="sRGB">
<feFlood flood-opacity="0" result="BackgroundImageFix"/>
<feBlend mode="normal" in="SourceGraphic" in2="BackgroundImageFix" result="shape"/>
<feGaussianBlur stdDeviation="22.2222" result="effect1_foregroundBlur_318_147"/>
</filter>
<linearGradient id="paint0_linear_318_147" x1="62.0003" y1="44.5555" x2="62.0003" y2="78.3333" gradientUnits="userSpaceOnUse">
<stop stop-color="#F5DE34"/>
<stop offset="1" stop-color="#F5BF34"/>
</linearGradient>
<linearGradient id="paint1_linear_318_147" x1="62" y1="33" x2="62" y2="72.1111" gradientUnits="userSpaceOnUse">
<stop stop-color="#F5DE34"/>
<stop offset="1" stop-color="#F5BF34"/>
</linearGradient>
</defs>
</svg>
