<svg width="124" height="123" viewBox="0 0 124 123" fill="none" xmlns="http://www.w3.org/2000/svg">
<g filter="url(#filter0_f_318_148)">
<rect x="44.667" y="44.5555" width="34.6667" height="33.7778" rx="7.11111" fill="url(#paint0_linear_318_148)"/>
</g>
<rect x="42" y="33" width="40" height="39.1111" rx="7.11111" fill="url(#paint1_linear_318_148)"/>
<path d="M69.711 48.2257L68.3071 46.8218C68.1146 46.6292 67.8805 46.5328 67.6053 46.5328C67.3299 46.5328 67.0958 46.6292 66.9033 46.8218L60.1316 53.6038L57.0968 50.5586C56.904 50.3659 56.6701 50.2696 56.3949 50.2696C56.1195 50.2696 55.8856 50.3659 55.6929 50.5586L54.289 51.9625C54.0963 52.1551 54 52.3892 54 52.6645C54 52.9396 54.0963 53.1738 54.289 53.3665L58.0257 57.1031L59.4297 58.507C59.6223 58.6997 59.8563 58.796 60.1316 58.796C60.4068 58.796 60.6408 58.6995 60.8335 58.507L62.2375 57.1031L69.711 49.6296C69.9035 49.4369 70 49.2029 70 48.9276C70.0001 48.6524 69.9035 48.4184 69.711 48.2257Z" fill="white"/>
<defs>
<filter id="filter0_f_318_148" x="0.222546" y="0.111095" width="123.555" height="122.667" filterUnits="userSpaceOnUse" color-interpolation-filters="sRGB">
<feFlood flood-opacity="0" result="BackgroundImageFix"/>
<feBlend mode="normal" in="SourceGraphic" in2="BackgroundImageFix" result="shape"/>
<feGaussianBlur stdDeviation="22.2222" result="effect1_foregroundBlur_318_148"/>
</filter>
<linearGradient id="paint0_linear_318_148" x1="62.0003" y1="44.5555" x2="62.0003" y2="78.3333" gradientUnits="userSpaceOnUse">
<stop stop-color="#AADE35"/>
<stop offset="1" stop-color="#6BDE35"/>
</linearGradient>
<linearGradient id="paint1_linear_318_148" x1="62" y1="33" x2="62" y2="72.1111" gradientUnits="userSpaceOnUse">
<stop stop-color="#AADE35"/>
<stop offset="1" stop-color="#6BDE35"/>
</linearGradient>
</defs>
</svg>
