<svg width="124" height="123" viewBox="0 0 124 123" fill="none" xmlns="http://www.w3.org/2000/svg">
<rect x="42" y="36" width="37" height="36" rx="10" fill="black"/>
<g filter="url(#filter0_f_26_2564)">
<rect x="44.667" y="44.5555" width="34.6667" height="33.7778" rx="7.11111" fill="url(#paint0_linear_26_2564)"/>
</g>
<rect x="42" y="33" width="40" height="39.1111" rx="7.11111" fill="url(#paint1_linear_26_2564)"/>
<path d="M66.9091 45H57.0909C56.0063 45.0013 54.9665 45.4327 54.1996 46.1996C53.4327 46.9665 53.0013 48.0063 53 49.0909V55.6363C53.0012 56.579 53.3273 57.4925 53.9235 58.2228C54.5196 58.953 55.3493 59.4555 56.2727 59.6454V62.1817C56.2727 62.3298 56.3129 62.4752 56.389 62.6023C56.4651 62.7293 56.5743 62.8333 56.7049 62.9032C56.8355 62.9731 56.9827 63.0062 57.1306 62.999C57.2786 62.9918 57.4218 62.9446 57.545 62.8624L62.2455 59.7272H66.9091C67.9937 59.7259 69.0335 59.2945 69.8004 58.5275C70.5673 57.7606 70.9987 56.7209 71 55.6363V49.0909C70.9987 48.0063 70.5673 46.9665 69.8004 46.1996C69.0335 45.4327 67.9937 45.0013 66.9091 45V45ZM65.2727 54.8181H58.7273C58.5103 54.8181 58.3022 54.7319 58.1487 54.5785C57.9953 54.425 57.9091 54.2169 57.9091 53.9999C57.9091 53.7829 57.9953 53.5748 58.1487 53.4214C58.3022 53.268 58.5103 53.1818 58.7273 53.1818H65.2727C65.4897 53.1818 65.6978 53.268 65.8513 53.4214C66.0047 53.5748 66.0909 53.7829 66.0909 53.9999C66.0909 54.2169 66.0047 54.425 65.8513 54.5785C65.6978 54.7319 65.4897 54.8181 65.2727 54.8181ZM66.9091 51.5454H57.0909C56.8739 51.5454 56.6658 51.4592 56.5124 51.3058C56.3589 51.1523 56.2727 50.9442 56.2727 50.7272C56.2727 50.5102 56.3589 50.3021 56.5124 50.1487C56.6658 49.9953 56.8739 49.9091 57.0909 49.9091H66.9091C67.1261 49.9091 67.3342 49.9953 67.4876 50.1487C67.6411 50.3021 67.7273 50.5102 67.7273 50.7272C67.7273 50.9442 67.6411 51.1523 67.4876 51.3058C67.3342 51.4592 67.1261 51.5454 66.9091 51.5454Z" fill="white"/>
<defs>
<filter id="filter0_f_26_2564" x="0.222546" y="0.111095" width="123.555" height="122.667" filterUnits="userSpaceOnUse" color-interpolation-filters="sRGB">
<feFlood flood-opacity="0" result="BackgroundImageFix"/>
<feBlend mode="normal" in="SourceGraphic" in2="BackgroundImageFix" result="shape"/>
<feGaussianBlur stdDeviation="22.2222" result="effect1_foregroundBlur_26_2564"/>
</filter>
<linearGradient id="paint0_linear_26_2564" x1="62.0003" y1="44.5555" x2="62.0003" y2="78.3333" gradientUnits="userSpaceOnUse">
<stop stop-color="#7BC3FF"/>
<stop offset="1" stop-color="#3EA8FF"/>
</linearGradient>
<linearGradient id="paint1_linear_26_2564" x1="62" y1="33" x2="62" y2="72.1111" gradientUnits="userSpaceOnUse">
<stop stop-color="#7BC3FF"/>
<stop offset="1" stop-color="#3EA8FF"/>
</linearGradient>
</defs>
</svg>
