<svg width="20" height="20" viewBox="0 0 20 20" fill="none" xmlns="http://www.w3.org/2000/svg">
<path fill-rule="evenodd" clip-rule="evenodd" d="M19.6682 10.7681C20.071 11.1193 20.1129 11.7307 19.7617 12.1335L13.1929 19.6684C12.9277 19.9725 12.5016 20.0802 12.1238 19.9386C11.746 19.7971 11.4957 19.4359 11.4957 19.0324L11.4957 0.968098C11.4957 0.433639 11.929 0.000365858 12.4634 0.000365882C12.9979 0.000365905 13.4311 0.433639 13.4311 0.968098L13.4311 16.4497L18.3028 10.8617C18.654 10.4588 19.2653 10.4169 19.6682 10.7681Z" fill="#F8F8F9"/>
<path fill-rule="evenodd" clip-rule="evenodd" d="M0.33245 9.23208C-0.0705141 8.88086 -0.11232 8.26951 0.238902 7.86668L6.80774 0.33185C7.0729 0.0277114 7.49896 -0.080004 7.87676 0.0615688C8.25456 0.203154 8.50488 0.564286 8.50488 0.967779L8.50488 19.0321C8.50488 19.5666 8.0716 19.9998 7.53715 19.9998C7.0027 19.9998 6.56942 19.5666 6.56942 19.0321L6.56942 3.55048L1.69773 9.13853C1.3465 9.54137 0.735284 9.5833 0.33245 9.23208Z" fill="#F8F8F9"/>
</svg>
