<svg width="124" height="123" viewBox="0 0 124 123" fill="none" xmlns="http://www.w3.org/2000/svg">
<rect x="42" y="36" width="37" height="36" rx="10" fill="black"/>
<g filter="url(#filter0_f_26_2571)">
<rect x="44.667" y="44.5555" width="34.6667" height="33.7778" rx="7.11111" fill="url(#paint0_linear_26_2571)"/>
</g>
<rect x="42" y="33" width="40" height="39.1111" rx="7.11111" fill="url(#paint1_linear_26_2571)"/>
<path d="M62.3662 48.7741L65.2252 51.6331L67.7684 49.0899L67.921 48.9373C68.0199 48.8384 68.0755 48.7043 68.0755 48.5644C68.0755 48.4246 68.0199 48.2904 67.921 48.1916L65.8078 46.0784C65.7089 45.9795 65.5748 45.9239 65.435 45.9239C65.2951 45.9239 65.161 45.9794 65.0621 46.0784L64.9095 46.231L62.3662 48.7741Z" fill="white"/>
<path d="M64.0989 45.5498C62.1616 44.0594 59.8143 43.1818 57.3461 43.0476L56.4862 43.0009C56.2439 42.9868 56.0241 43.1414 55.9533 43.3733C55.8824 43.6052 55.9788 43.8555 56.1869 43.98L58.4517 45.3344C59.2353 45.8029 59.9598 46.3678 60.6054 47.0134L61.6204 48.0284L64.0989 45.5498Z" fill="white"/>
<path d="M70.9982 57.513L70.9515 56.6531C70.8173 54.1849 69.9397 51.8376 68.4492 49.9003L65.9707 52.3788L66.9857 53.3937C67.6312 54.0393 68.1961 54.764 68.6646 55.5474L70.019 57.8122C70.1161 57.9746 70.2898 58.069 70.4716 58.069C70.5229 58.069 70.5748 58.0615 70.6257 58.0459C70.8577 57.975 71.0114 57.7551 70.9982 57.513V57.513Z" fill="white"/>
<path d="M61.8741 49.7835L57.9856 53.6721C57.5737 54.0839 57.1031 54.4294 56.5869 54.6989C55.9754 55.0181 55.4181 55.4272 54.9305 55.9149L53.3602 57.4852C53.1279 57.7174 53 58.0263 53 58.3547C53 58.6832 53.1279 58.992 53.3602 59.2242L54.775 60.639C55.0073 60.8713 55.3161 60.9993 55.6445 60.9993C55.973 60.9993 56.2819 60.8713 56.5141 60.6391L58.0844 59.0687C58.5721 58.5811 58.9812 58.0238 59.3004 57.4124C59.5699 56.8961 59.9154 56.4255 60.3272 56.0137L64.2157 52.1252L61.8741 49.7835Z" fill="white"/>
<defs>
<filter id="filter0_f_26_2571" x="0.222546" y="0.111095" width="123.555" height="122.667" filterUnits="userSpaceOnUse" color-interpolation-filters="sRGB">
<feFlood flood-opacity="0" result="BackgroundImageFix"/>
<feBlend mode="normal" in="SourceGraphic" in2="BackgroundImageFix" result="shape"/>
<feGaussianBlur stdDeviation="22.2222" result="effect1_foregroundBlur_26_2571"/>
</filter>
<linearGradient id="paint0_linear_26_2571" x1="62.0003" y1="44.5555" x2="62.0003" y2="78.3333" gradientUnits="userSpaceOnUse">
<stop stop-color="#EF8FC6"/>
<stop offset="1" stop-color="#FF50B4"/>
</linearGradient>
<linearGradient id="paint1_linear_26_2571" x1="62" y1="33" x2="62" y2="72.1111" gradientUnits="userSpaceOnUse">
<stop stop-color="#EF8FC6"/>
<stop offset="1" stop-color="#FF50B4"/>
</linearGradient>
</defs>
</svg>
