<svg width="124" height="123" viewBox="0 0 124 123" fill="none" xmlns="http://www.w3.org/2000/svg">
<rect x="43" y="36" width="37" height="36" rx="10" fill="black"/>
<g filter="url(#filter0_f_26_2548)">
<rect x="44.667" y="44.5555" width="34.6667" height="33.7778" rx="7.11111" fill="url(#paint0_linear_26_2548)"/>
</g>
<rect x="42" y="33" width="40" height="39.1111" rx="7.11111" fill="url(#paint1_linear_26_2548)"/>
<path d="M69.2484 46.9815L67.0746 44.8236C66.9193 44.6723 66.6685 44.6723 66.5132 44.8236L54.5131 56.8236C54.4335 56.8953 54.3857 56.9948 54.3857 57.1023C54.3857 57.2058 54.4335 57.3014 54.5131 57.3651L56.6711 59.5389C56.7467 59.6106 56.8463 59.6464 56.9498 59.6425C57.0493 59.6385 57.1409 59.6026 57.2165 59.5389L69.2484 47.523C69.2962 47.4433 69.3241 47.3518 69.3321 47.2602C69.3281 47.1646 69.3002 47.0651 69.2484 46.9815Z" fill="white"/>
<path d="M56.4479 49.8958C58.3522 49.8958 59.8958 48.3522 59.8958 46.4479C59.8958 44.5437 58.3522 43 56.4479 43C54.5437 43 53 44.5437 53 46.4479C53 48.3522 54.5437 49.8958 56.4479 49.8958Z" fill="white"/>
<path d="M67.5519 61.5256C69.4562 61.5256 70.9999 59.982 70.9999 58.0777C70.9999 56.1735 69.4562 54.6298 67.5519 54.6298C65.6477 54.6298 64.104 56.1735 64.104 58.0777C64.104 59.982 65.6477 61.5256 67.5519 61.5256Z" fill="white"/>
<defs>
<filter id="filter0_f_26_2548" x="0.222546" y="0.111095" width="123.555" height="122.667" filterUnits="userSpaceOnUse" color-interpolation-filters="sRGB">
<feFlood flood-opacity="0" result="BackgroundImageFix"/>
<feBlend mode="normal" in="SourceGraphic" in2="BackgroundImageFix" result="shape"/>
<feGaussianBlur stdDeviation="22.2222" result="effect1_foregroundBlur_26_2548"/>
</filter>
<linearGradient id="paint0_linear_26_2548" x1="62.0003" y1="44.5555" x2="62.0003" y2="78.3333" gradientUnits="userSpaceOnUse">
<stop offset="0.0520833" stop-color="#FF8B70"/>
<stop offset="1" stop-color="#FE471C"/>
</linearGradient>
<linearGradient id="paint1_linear_26_2548" x1="62" y1="33" x2="62" y2="72.1111" gradientUnits="userSpaceOnUse">
<stop offset="0.0520833" stop-color="#FF8B70"/>
<stop offset="1" stop-color="#FE471C"/>
</linearGradient>
</defs>
</svg>
