<svg width="16" height="16" viewBox="0 0 16 16" fill="none" xmlns="http://www.w3.org/2000/svg">
<path d="M7.17902 0C3.22274 0 0 3.22274 0 7.17903C0 11.1353 3.22274 14.3643 7.17902 14.3643C8.86886 14.3643 10.423 13.7721 11.6513 12.7888L14.6416 15.7776C14.7925 15.9223 14.9941 16.0021 15.2031 16C15.4122 15.9978 15.612 15.9139 15.76 15.7662C15.9079 15.6185 15.9921 15.4188 15.9945 15.2097C15.9969 15.0007 15.9174 14.799 15.773 14.6479L12.7826 11.6576C13.7667 10.4274 14.3596 8.87082 14.3596 7.17903C14.3596 3.22274 11.1353 0 7.17902 0ZM7.17902 1.59571C10.2729 1.59571 12.7623 4.08513 12.7623 7.17903C12.7623 10.2729 10.2729 12.7686 7.17902 12.7686C4.08512 12.7686 1.59568 10.2729 1.59568 7.17903C1.59568 4.08513 4.08512 1.59571 7.17902 1.59571Z" fill="#FC7010"/>
</svg>
