<svg width="70" height="69" viewBox="0 0 70 69" fill="none" xmlns="http://www.w3.org/2000/svg">
<rect width="70" height="68.4444" rx="20" fill="url(#paint0_linear_305_146)"/>
<path d="M45.7797 15.75H23.2119C21.9895 15.75 21 16.7395 21 17.9619V52.0381C21 53.2605 21.9895 54.25 23.2119 54.25H45.7797C47.0021 54.25 47.9915 53.2605 47.9915 52.0381V17.9619C47.9916 16.7395 47.0021 15.75 45.7797 15.75ZM24.2222 18.0409C24.8043 18.0409 25.2782 18.5148 25.2782 19.0969C25.2782 19.679 24.8043 20.153 24.2222 20.153C23.6401 20.153 23.1661 19.679 23.1661 19.0969C23.1661 18.5148 23.6401 18.0409 24.2222 18.0409ZM24.2222 52.1504C23.6401 52.1504 23.1661 51.6764 23.1661 51.0943C23.1661 50.5123 23.6401 50.0383 24.2222 50.0383C24.8043 50.0383 25.2782 50.5123 25.2782 51.0943C25.2782 51.6764 24.8043 52.1504 24.2222 52.1504ZM29.8434 38.1141C29.8434 38.4883 29.5398 38.7918 29.1657 38.7918H29.0118C28.6376 38.7918 28.3341 38.4883 28.3341 38.1141V35.5322H25.3822V38.1141C25.3822 38.4883 25.0787 38.7918 24.7045 38.7918H24.559C24.1848 38.7918 23.8813 38.4883 23.8813 38.1141V32.0106C23.8813 31.6364 24.1848 31.3329 24.559 31.3329H24.7128C25.087 31.3329 25.3905 31.6364 25.3905 32.0106V34.2682H28.3424V32.0106C28.3424 31.6364 28.646 31.3329 29.0201 31.3329H29.174C29.5482 31.3329 29.8517 31.6364 29.8517 32.0106V38.1141H29.8434ZM37.4187 36.7171C37.2316 37.2576 36.9655 37.6984 36.6204 38.0351C36.3585 38.2887 36.0051 38.4883 35.5644 38.6296C35.2318 38.7336 34.7869 38.7876 34.2297 38.7876H32.072C31.6978 38.7876 31.3943 38.4841 31.3943 38.1099V32.0106C31.3943 31.6364 31.6978 31.3329 32.072 31.3329H34.1465C34.766 31.3329 35.24 31.3787 35.5644 31.4743C36.0009 31.6032 36.3751 31.8319 36.6869 32.1603C36.9987 32.4887 37.2357 32.8921 37.3979 33.3702C37.5601 33.8483 37.6432 34.4346 37.6432 35.133C37.6473 35.7442 37.5725 36.2764 37.4187 36.7171ZM41.7509 38.7876H39.5931C39.2189 38.7876 38.9154 38.4841 38.9154 38.1099V32.0106C38.9154 31.6364 39.2189 31.3329 39.5931 31.3329H41.6678C42.2873 31.3329 42.7613 31.3787 43.0855 31.4743C43.5221 31.6032 43.8963 31.8319 44.2081 32.1603C44.5199 32.4887 44.757 32.8921 44.9191 33.3702C45.0812 33.8483 45.1644 34.4346 45.1644 35.133C45.1644 35.7484 45.0896 36.2764 44.9357 36.7213C44.7486 37.2618 44.4826 37.7025 44.1375 38.0392C43.8755 38.2929 43.5221 38.4924 43.0814 38.6338C42.7529 38.7377 42.308 38.7876 41.7509 38.7876ZM44.4534 52.1504C43.8713 52.1504 43.3974 51.6764 43.3974 51.0943C43.3974 50.5123 43.8713 50.0383 44.4534 50.0383C45.0355 50.0383 45.5095 50.5123 45.5095 51.0943C45.5095 51.6764 45.0396 52.1504 44.4534 52.1504ZM44.4534 20.153C43.8713 20.153 43.3974 19.679 43.3974 19.0969C43.3974 18.5148 43.8713 18.0409 44.4534 18.0409C45.0355 18.0409 45.5095 18.5148 45.5095 19.0969C45.5095 19.679 45.0396 20.153 44.4534 20.153Z" fill="white"/>
<path d="M43.0348 33.0168C42.8519 32.8422 42.6191 32.7258 42.3363 32.6676C42.1243 32.6219 41.7127 32.597 41.1015 32.597H40.4238V37.5362H41.5464C41.9664 37.5362 42.2698 37.5113 42.4569 37.4655C42.7022 37.4032 42.9018 37.2992 43.0639 37.1537C43.2261 37.0082 43.355 36.7671 43.4589 36.4344C43.5587 36.1018 43.6128 35.6445 43.6128 35.0707C43.6128 34.4928 43.5629 34.0521 43.4589 33.7444C43.3592 33.4284 43.2178 33.1873 43.0348 33.0168Z" fill="white"/>
<path d="M35.5104 33.0168C35.3275 32.8422 35.0947 32.7258 34.8119 32.6676C34.5999 32.6219 34.1882 32.597 33.5771 32.597H32.8994V37.5362H34.022C34.442 37.5362 34.7454 37.5113 34.9325 37.4655C35.1778 37.4032 35.3774 37.2992 35.5395 37.1537C35.7017 37.0082 35.8306 36.7671 35.9345 36.4344C36.0343 36.1018 36.0884 35.6445 36.0884 35.0707C36.0884 34.4928 36.0385 34.0521 35.9345 33.7444C35.8389 33.4284 35.6934 33.1873 35.5104 33.0168Z" fill="white"/>
<defs>
<linearGradient id="paint0_linear_305_146" x1="35" y1="0" x2="35" y2="68.4444" gradientUnits="userSpaceOnUse">
<stop stop-color="#FC8F10"/>
<stop offset="1" stop-color="#FC8310"/>
</linearGradient>
</defs>
</svg>
